<svg width="30" height="30" viewBox="0 0 30 30" fill="none" xmlns="http://www.w3.org/2000/svg">
<path d="M13.5367 1.479C14.0201 0.173442 15.8668 0.173546 16.3502 1.479L19.2086 9.20166C19.4618 9.88595 20.0009 10.426 20.6852 10.6792L28.4078 13.5366C29.7138 14.0199 29.7138 15.8669 28.4078 16.3501L20.6852 19.2085C20.001 19.4617 19.4618 20.0009 19.2086 20.6851L16.3502 28.4077C15.867 29.7136 14.02 29.7136 13.5367 28.4077L10.6793 20.6851C10.4261 20.0008 9.88607 19.4617 9.20178 19.2085L1.47913 16.3501C0.17367 15.8667 0.173562 14.0199 1.47913 13.5366L9.20178 10.6792C9.88608 10.426 10.4261 9.88596 10.6793 9.20166L13.5367 1.479Z" fill="#2C2B2D" stroke="#949494"/>
</svg>
