<svg width="417" height="240" viewBox="0 0 417 240" fill="none" xmlns="http://www.w3.org/2000/svg">
<g clip-path="url(#clip0_2480_2555)">
<path d="M0 8.00001C0 3.58173 3.58172 0 8 0H409C413.418 0 417 3.58172 417 8V232C417 236.418 413.418 240 409 240H8C3.58172 240 0 236.418 0 232V8.00001Z" fill="#6A846D"/>
<path d="M291.224 33.0912C291.224 30.882 293.014 29.0912 295.224 29.0912H371.974C374.184 29.0912 375.974 30.882 375.974 33.0912V109.842C375.974 112.051 374.184 113.842 371.974 113.842H295.224C293.014 113.842 291.224 112.051 291.224 109.842V33.0912Z" fill="#516953"/>
<rect x="314.791" y="65.2805" width="8.24023" height="32.52" fill="#6A846D"/>
<rect x="329.48" y="45.1327" width="8.24023" height="52.6677" fill="#A3C7A7"/>
<rect x="344.17" y="56.0526" width="8.24023" height="41.7479" fill="#92AE95"/>
<rect x="-100.609" y="-82.0638" width="289.93" height="284.17" fill="#516953"/>
<rect x="-22.2505" y="-5.26112" width="133.211" height="130.564" fill="#6A846D"/>
<rect x="66.8398" y="30.0211" width="97.5391" height="16.9054" fill="#A3C7A7"/>
<rect x="66.8398" y="59.3477" width="97.5391" height="16.9054" fill="#A3C7A7"/>
<rect x="66.8398" y="88.6743" width="97.5391" height="16.9054" fill="#A3C7A7"/>
<rect x="66.8398" y="118.001" width="97.5391" height="16.9054" fill="#A3C7A7"/>
<rect x="66.8398" y="147.328" width="97.5391" height="16.9054" fill="#A3C7A7"/>
<rect opacity="0.5" x="-8.92285" y="-2.63055" width="434.846" height="245.261" fill="#556C57"/>
<path d="M198.108 115.109C202.726 107.109 214.274 107.109 218.892 115.109L222.806 121.888C227.425 129.888 221.652 139.888 212.414 139.888H204.586C195.348 139.888 189.575 129.888 194.194 121.888L198.108 115.109Z" fill="white"/>
<circle cx="208.501" cy="93.6908" r="7.83906" fill="white"/>
</g>
<defs>
<clipPath id="clip0_2480_2555">
<path d="M0 8.00001C0 3.58173 3.58172 0 8 0H409C413.418 0 417 3.58172 417 8V232C417 236.418 413.418 240 409 240H8C3.58172 240 0 236.418 0 232V8.00001Z" fill="white"/>
</clipPath>
</defs>
</svg>
