<svg width="417" height="240" viewBox="0 0 417 240" fill="none" xmlns="http://www.w3.org/2000/svg">
<g clip-path="url(#clip0_2480_2553)">
<path d="M0 8.00001C0 3.58173 3.58172 0 8 0H409C413.418 0 417 3.58172 417 8V232C417 236.418 413.418 240 409 240H8C3.58172 240 0 236.418 0 232V8.00001Z" fill="#9B794E"/>
<rect x="17.7778" y="65.0198" width="158.276" height="93.1071" fill="#746148"/>
<rect x="17.7778" y="174.374" width="82.9204" height="9.37323" fill="#887254"/>
<rect x="17.7778" y="191.245" width="142.357" height="9.37323" fill="#887254"/>
<circle cx="46.4455" cy="96.5381" r="8.98456" fill="#887254"/>
<path d="M84.4204 109.558L19.1094 158.628H176.685V83.641L130.034 125.454L84.4204 109.558Z" fill="#887254"/>
<rect x="237.306" y="10.1038" width="170.356" height="12.216" fill="#746148"/>
<rect x="237.306" y="24.6224" width="170.356" height="12.216" fill="#746148"/>
<rect x="237.306" y="39.1411" width="170.356" height="12.216" fill="#746148"/>
<rect x="237.306" y="53.6598" width="170.356" height="12.216" fill="#746148"/>
<rect x="237.306" y="68.1784" width="170.356" height="12.216" fill="#746148"/>
<rect x="237.306" y="82.697" width="170.356" height="12.216" fill="#746148"/>
<rect x="237.306" y="97.2157" width="170.356" height="12.216" fill="#746148"/>
<rect x="237.306" y="111.734" width="170.356" height="12.216" fill="#746148"/>
<rect x="237.306" y="126.253" width="170.356" height="12.216" fill="#746148"/>
<rect x="237.306" y="140.772" width="170.356" height="12.216" fill="#746148"/>
<rect x="-12.4258" y="-1.70154" width="235.531" height="35.4287" fill="#887254"/>
<rect opacity="0.5" x="-8.92285" y="-2.63055" width="434.846" height="245.261" fill="#9B794E"/>
<path d="M206.769 145.446C207.539 146.78 209.463 146.78 210.233 145.446L231.404 108.776C232.173 107.443 231.211 105.776 229.671 105.776H187.33C185.79 105.776 184.828 107.443 185.597 108.776L206.769 145.446Z" stroke="white" stroke-width="4"/>
<path d="M208.5 128.439L215.809 115.78H201.192L208.5 128.439Z" fill="white"/>
</g>
<defs>
<clipPath id="clip0_2480_2553">
<path d="M0 8.00001C0 3.58173 3.58172 0 8 0H409C413.418 0 417 3.58172 417 8V232C417 236.418 413.418 240 409 240H8C3.58172 240 0 236.418 0 232V8.00001Z" fill="white"/>
</clipPath>
</defs>
</svg>
