<svg width="417" height="240" viewBox="0 0 417 240" fill="none" xmlns="http://www.w3.org/2000/svg">
<g clip-path="url(#clip0_2480_569)">
<path d="M0 8.00001C0 3.58173 3.58172 0 8 0H409C413.418 0 417 3.58172 417 8V232C417 236.418 413.418 240 409 240H8C3.58172 240 0 236.418 0 232V8.00001Z" fill="#4E919B"/>
<rect x="-39.8091" y="120" width="209.56" height="130.38" fill="#6E969C"/>
<rect x="256.55" y="-38.5521" width="209.56" height="130.38" fill="#233234"/>
<rect x="90.8174" y="60.5773" width="245.517" height="131.142" fill="#3C6369"/>
<path d="M90.8174 49.5243C90.8174 47.3151 92.6082 45.5243 94.8174 45.5243H332.334C334.543 45.5243 336.334 47.3151 336.334 49.5243V61.8738H90.8174V49.5243Z" fill="#5AC0D0"/>
<circle cx="103.78" cy="53.699" r="2.49292" fill="#3C6369"/>
<circle cx="112.671" cy="53.699" r="2.49292" fill="#233234"/>
<circle cx="121.563" cy="53.6991" r="2.49292" fill="#6F969C"/>
<rect opacity="0.5" x="-8.92285" y="-2.63055" width="434.846" height="245.261" fill="#4E919B"/>
<path d="M215.325 98.5986H200.075C198.47 98.5986 197.029 99.5793 196.441 101.072L183.405 134.121C182.207 137.157 184.954 140.272 188.116 139.464L226.08 129.765C229.667 128.848 230.191 123.97 226.88 122.312L214.944 116.339C212.546 115.139 211.985 111.966 213.825 110.016L218.234 105.344C220.642 102.793 218.833 98.5986 215.325 98.5986Z" fill="white"/>
</g>
<defs>
<clipPath id="clip0_2480_569">
<path d="M0 8.00001C0 3.58173 3.58172 0 8 0H409C413.418 0 417 3.58172 417 8V232C417 236.418 413.418 240 409 240H8C3.58172 240 0 236.418 0 232V8.00001Z" fill="white"/>
</clipPath>
</defs>
</svg>
