<svg width="417" height="240" viewBox="0 0 417 240" fill="none" xmlns="http://www.w3.org/2000/svg">
<g clip-path="url(#clip0_2721_2949)">
<path d="M0 8.00001C0 3.58173 3.58172 0 8 0H409C413.418 0 417 3.58172 417 8V232C417 236.418 413.418 240 409 240H8C3.58172 240 0 236.418 0 232V8.00001Z" fill="#69A745"/>
<path d="M63.4375 246.208C107.252 246.208 143.851 215.316 152.643 174.126C167.277 184.123 184.973 189.969 204.033 189.969C211.995 189.969 219.719 188.949 227.081 187.033C236.59 227.253 272.726 257.181 315.852 257.181C366.229 257.181 407.067 216.342 407.067 165.965C407.067 115.588 366.229 74.7493 315.852 74.7493C307.89 74.7493 300.166 75.7694 292.804 77.6861C283.295 37.466 247.159 7.53766 204.033 7.53766C160.219 7.53766 123.62 38.4288 114.827 79.6194C100.193 69.6222 82.4981 63.7759 63.4375 63.7759C13.0604 63.7759 -27.7783 104.615 -27.7783 154.992C-27.7783 205.369 13.0604 246.208 63.4375 246.208Z" fill="#4A7F2D"/>
<path d="M135.188 297.838C179.003 297.838 215.602 266.947 224.394 225.756C239.028 235.754 256.724 241.6 275.784 241.6C283.746 241.6 291.47 240.58 298.832 238.663C308.341 278.883 344.477 308.812 387.603 308.812C437.98 308.812 478.818 267.973 478.818 217.596C478.818 167.219 437.98 126.38 387.603 126.38C379.641 126.38 371.917 127.4 364.555 129.317C355.046 89.0965 318.91 59.1682 275.784 59.1682C231.97 59.1682 195.371 90.0593 186.578 131.25C171.944 121.253 154.249 115.407 135.188 115.407C84.8114 115.407 43.9727 156.245 43.9727 206.622C43.9727 256.999 84.8114 297.838 135.188 297.838Z" fill="#55A32B"/>
<path d="M1.65935 307.317C38.4768 307.317 69.2314 281.359 76.6198 246.746C88.9171 255.147 103.787 260.059 119.803 260.059C126.494 260.059 132.984 259.202 139.17 257.592C147.161 291.389 177.526 316.538 213.765 316.538C256.098 316.538 290.415 282.221 290.415 239.888C290.415 197.556 256.098 163.239 213.765 163.239C207.075 163.239 200.585 164.096 194.398 165.707C186.408 131.909 156.042 106.76 119.803 106.76C82.9859 106.76 52.2313 132.718 44.8429 167.331C32.5455 158.93 17.6761 154.018 1.65935 154.018C-40.673 154.018 -74.9902 188.335 -74.9902 230.667C-74.9902 273 -40.673 307.317 1.65935 307.317Z" fill="#5A9339"/>
<rect opacity="0.5" x="-8.92285" y="-2.63055" width="434.846" height="245.261" fill="#4A7F2D"/>
<circle cx="208.5" cy="120" r="14.3556" stroke="white" stroke-width="9"/>
<circle cx="208.5" cy="120" r="4.5" stroke="white" stroke-width="2.85229"/>
</g>
<defs>
<clipPath id="clip0_2721_2949">
<path d="M0 8.00001C0 3.58173 3.58172 0 8 0H409C413.418 0 417 3.58172 417 8V232C417 236.418 413.418 240 409 240H8C3.58172 240 0 236.418 0 232V8.00001Z" fill="white"/>
</clipPath>
</defs>
</svg>
