<svg width="417" height="240" viewBox="0 0 417 240" fill="none" xmlns="http://www.w3.org/2000/svg">
<g clip-path="url(#clip0_2722_2983)">
<path d="M0 8.00001C0 3.58173 3.58172 0 8 0H409C413.418 0 417 3.58172 417 8V232C417 236.418 413.418 240 409 240H8C3.58172 240 0 236.418 0 232V8.00001Z" fill="#A79E45"/>
<path d="M42.2849 6.30402L43.926 27.5932L50.8099 7.38097L47.105 28.4094L58.7992 10.5442L49.9811 29.9906L65.7509 15.5948L52.3737 32.2374L71.2281 22.2157L54.1324 35.0086L74.8867 29.9906L55.1466 38.1301L76.4968 38.4311L55.3527 41.4057L75.9573 47.0069L54.7377 44.6297L73.302 55.1791L53.3402 47.5995L68.6978 62.4342L51.2481 50.1284L62.4339 68.3163L48.5928 52.0576L54.9041 72.4559L45.5412 53.2658L46.5813 74.5928L42.2849 53.6772L37.9885 74.5928L39.0287 53.2658L29.6658 72.4559L35.977 52.0576L22.1359 68.3163L33.3217 50.1284L15.8721 62.4342L31.2296 47.5995L11.2679 55.1791L29.8321 44.6297L8.61256 47.0069L29.2171 41.4057L8.07301 38.4311L29.4232 38.1301L9.68313 29.9906L30.4375 35.0086L13.3417 22.2157L32.1961 32.2374L18.819 15.5948L34.5887 29.9906L25.7706 10.5442L37.4648 28.4094L33.7599 7.38097L40.6438 27.5932L42.2849 6.30402Z" fill="#F9E627"/>
<path d="M57.2526 71.3262L45.3657 43.5573L71.1573 59.2195H59.2904L57.2526 71.3262Z" fill="#DCD26C" stroke="#8C842F"/>
<path d="M28.9173 10.1125L40.8042 37.8814L15.0126 22.2192H26.8796L28.9173 10.1125Z" fill="#DCD26C" stroke="#8C842F"/>
<circle cx="71.8384" cy="246.554" r="103.489" stroke="#8C842F"/>
<circle cx="71.8384" cy="87.3879" r="103.489" stroke="#8C842F"/>
<circle cx="208.5" cy="246.554" r="103.489" stroke="#8C842F"/>
<circle cx="208.5" cy="87.3879" r="103.489" stroke="#8C842F"/>
<circle cx="345.162" cy="246.554" r="103.489" stroke="#8C842F"/>
<circle cx="345.162" cy="87.3879" r="103.489" stroke="#8C842F"/>
<rect opacity="0.5" x="-8.92285" y="-2.63062" width="434.846" height="245.261" fill="#A79E45"/>
<path d="M208.5 120L222.954 145.035H194.046L208.5 120Z" fill="white"/>
<path d="M208.5 120L222.954 94.9651H194.046L208.5 120Z" fill="white"/>
</g>
<defs>
<clipPath id="clip0_2722_2983">
<path d="M0 8.00001C0 3.58173 3.58172 0 8 0H409C413.418 0 417 3.58172 417 8V232C417 236.418 413.418 240 409 240H8C3.58172 240 0 236.418 0 232V8.00001Z" fill="white"/>
</clipPath>
</defs>
</svg>
