<svg width="417" height="240" viewBox="0 0 417 240" fill="none" xmlns="http://www.w3.org/2000/svg">
<g clip-path="url(#clip0_2480_2554)">
<path d="M0 8.00001C0 3.58173 3.58172 0 8 0H409C413.418 0 417 3.58172 417 8V232C417 236.418 413.418 240 409 240H8C3.58172 240 0 236.418 0 232V8.00001Z" fill="#974E9B"/>
<circle cx="362.489" cy="186.801" r="87.0595" fill="#9E72A0"/>
<circle cx="208.5" cy="120" r="176.93" fill="#9E72A0"/>
<circle cx="208.5" cy="120" r="138.349" fill="#77427A"/>
<circle cx="208.5" cy="120" r="95.9844" fill="#722F76"/>
<path d="M408.371 207.776C408.371 220.446 398.1 230.717 385.43 230.717C372.76 230.717 362.489 220.446 362.489 207.776C362.489 195.106 372.76 184.835 385.43 184.835C398.1 184.835 408.371 195.106 408.371 207.776ZM369.789 207.776C369.789 216.414 376.792 223.417 385.43 223.417C394.068 223.417 401.071 216.414 401.071 207.776C401.071 199.138 394.068 192.135 385.43 192.135C376.792 192.135 369.789 199.138 369.789 207.776Z" fill="#722F76"/>
<path d="M427.433 207.776C427.433 198.842 424.585 190.141 419.302 182.937C414.019 175.733 406.577 170.401 398.056 167.715C389.536 165.03 380.381 165.131 371.922 168.004C363.463 170.877 356.14 176.372 351.017 183.691C345.895 191.01 343.239 199.772 343.437 208.704C343.634 217.635 346.674 226.271 352.114 233.357C357.555 240.443 365.113 245.609 373.691 248.106C382.269 250.603 391.419 250.299 399.813 247.24L395.236 234.682C389.513 236.768 383.275 236.974 377.427 235.272C371.578 233.57 366.425 230.048 362.716 225.217C359.007 220.386 356.934 214.498 356.8 208.408C356.665 202.319 358.476 196.345 361.968 191.355C365.461 186.365 370.453 182.619 376.22 180.66C381.988 178.701 388.229 178.632 394.038 180.463C399.847 182.294 404.922 185.929 408.523 190.841C412.125 195.753 414.067 201.685 414.067 207.776H427.433Z" fill="#77427A"/>
<rect opacity="0.5" x="-8.92285" y="-2.63055" width="434.846" height="245.261" fill="#974E9B"/>
<path d="M204.749 100.085C206.037 96.6028 210.963 96.6028 212.251 100.085L215.979 110.158C216.384 111.253 217.247 112.116 218.342 112.521L228.415 116.249C231.897 117.537 231.897 122.463 228.415 123.751L218.342 127.479C217.247 127.884 216.384 128.747 215.979 129.842L212.251 139.915C210.963 143.397 206.037 143.397 204.749 139.915L201.021 129.842C200.616 128.747 199.753 127.884 198.658 127.479L188.585 123.751C185.103 122.463 185.103 117.537 188.585 116.249L198.658 112.521C199.753 112.116 200.616 111.253 201.021 110.158L204.749 100.085Z" fill="white"/>
</g>
<defs>
<clipPath id="clip0_2480_2554">
<path d="M0 8.00001C0 3.58173 3.58172 0 8 0H409C413.418 0 417 3.58172 417 8V232C417 236.418 413.418 240 409 240H8C3.58172 240 0 236.418 0 232V8.00001Z" fill="white"/>
</clipPath>
</defs>
</svg>
