<svg width="382" height="127" viewBox="0 0 382 127" fill="none" xmlns="http://www.w3.org/2000/svg">
<path d="M191.027 0.5C210.487 0.5 225.704 6.70322 236.054 17.667C246.399 28.6265 251.828 44.2857 251.828 63.0996C251.828 82.0032 246.4 97.664 236.054 108.602C225.704 119.543 210.486 125.7 191.027 125.7C171.48 125.7 156.263 119.543 145.935 108.601C135.611 97.6626 130.228 82.0022 130.228 63.0996C130.228 44.2867 135.61 28.627 145.934 17.667C156.261 6.70259 171.479 0.500084 191.027 0.5ZM105.838 2.2998V75.5596H124.198V100.86H105.838V123.9H77.8379V100.86H1.33789V81.8066L1.46875 81.6631L73.6484 2.46289L73.7969 2.2998H105.838ZM362.303 2.2998V75.5596H380.663V100.86H362.303V123.9H334.303V100.86H257.803V81.8066L257.934 81.6631L330.113 2.46289L330.262 2.2998H362.303ZM191.027 27.7803C179.564 27.7803 171.915 30.2444 167.105 35.7969C162.279 41.3693 160.208 50.1673 160.208 63.0996C160.208 76.0319 162.279 84.8298 167.105 90.4023C171.915 95.955 179.564 98.4199 191.027 98.4199C202.399 98.4199 210.05 95.9555 214.883 90.4014C219.732 84.8282 221.848 76.03 221.848 63.0996C221.848 50.1693 219.732 41.3709 214.883 35.7979C210.05 30.244 202.399 27.7803 191.027 27.7803ZM296.423 74.2744V75.5596H334.303V34.4404H333.041L296.423 74.2744ZM39.958 74.2744V75.5596H77.8379V34.4404H76.5762L39.958 74.2744Z" fill="url(#paint0_linear_1348_3782)" stroke="url(#paint1_linear_1348_3782)"/>
<defs>
<linearGradient id="paint0_linear_1348_3782" x1="117" y1="1" x2="279.5" y2="159.5" gradientUnits="userSpaceOnUse">
<stop stop-color="#F56E0F" stop-opacity="0.6"/>
<stop offset="0.951624" stop-color="#F4D2BB"/>
</linearGradient>
<linearGradient id="paint1_linear_1348_3782" x1="1.83789" y1="63.1" x2="380.163" y2="63.1" gradientUnits="userSpaceOnUse">
<stop stop-color="#1E1E1E"/>
<stop offset="1" stop-color="#F56E0F"/>
</linearGradient>
</defs>
</svg>

