<svg width="562" height="606" viewBox="0 0 562 606" fill="none" xmlns="http://www.w3.org/2000/svg">
<g filter="url(#filter0_d_1951_4683)">
<mask id="mask0_1951_4683" style="mask-type:luminance" maskUnits="userSpaceOnUse" x="0" y="0" width="562" height="605">
<path d="M498.917 490.263L491.713 501.067C491.041 502.075 490.682 503.26 490.682 504.472V523.11C490.682 526.501 493.431 529.25 496.823 529.25H511.026C513.447 529.25 515.642 527.828 516.631 525.619L548.961 453.424C549.476 452.274 549.625 450.993 549.387 449.756L546.701 435.793C545.677 430.466 538.752 428.988 535.641 433.432L528.572 443.529C528.028 444.305 527.313 444.945 526.481 445.398L515.005 451.657L503.177 458.025C501.189 459.096 499.948 461.172 499.948 463.431V486.857C499.948 488.069 499.589 489.254 498.917 490.263Z" fill="white"/>
<path d="M289.147 580.976V594.13C289.147 596.859 290.948 599.26 293.569 600.024L309.803 604.755C311.107 605.135 312.501 605.072 313.765 604.575L327.556 599.16C328.271 598.879 329.033 598.735 329.801 598.735H344.448C345.43 598.735 346.398 598.5 347.27 598.048L365.788 588.465C366.334 588.183 366.834 587.82 367.273 587.389L395.816 559.302C396.524 558.605 397.053 557.747 397.356 556.801L404.314 535.113C404.796 533.608 405.84 532.348 407.229 531.593L423.968 522.497C425.946 521.422 427.177 519.353 427.177 517.102V485.945C427.177 483.962 428.134 482.101 429.748 480.949L464.189 456.352L476.043 446.78C477.645 445.486 478.492 443.476 478.299 441.426L474.763 403.965L470.98 377.483C470.939 377.195 470.918 376.905 470.918 376.614V349.205C470.918 347.642 471.514 346.138 472.584 345L538.123 275.287C538.501 274.885 538.824 274.433 539.081 273.944L561.291 231.797C561.911 230.62 562.133 229.283 561.922 227.97L558.926 209.33C558.376 205.905 555.098 203.618 551.692 204.28L510.586 212.272C507.879 212.798 505.154 211.457 503.921 208.991L499.634 200.418C499.397 199.945 499.101 199.504 498.752 199.107L457.424 152.15C457.128 151.814 456.869 151.446 456.654 151.054L396.801 42.2888C396.544 41.821 396.226 41.3888 395.857 41.0031L392.873 37.8858C390.579 35.4894 386.795 35.3485 384.329 37.5677L378.924 42.4316C377.797 43.4463 376.333 44.0077 374.817 44.0077H360.09C359.137 44.0077 358.197 43.7858 357.344 43.3595L339.089 34.233C338.236 33.8067 337.296 33.5848 336.343 33.5848H314.503C313.085 33.5848 311.712 34.0751 310.615 34.9726L301.267 42.6199C300.17 43.5173 298.796 44.0077 297.378 44.0077H278.882C278.013 44.0077 277.154 43.8234 276.362 43.4669L254.4 33.5848L232.037 24.2686C228.999 23.0028 227.499 19.5667 228.637 16.4785L231.665 8.26246C233.142 4.2541 230.175 3.05176e-05 225.903 3.05176e-05H174.318C173.658 3.05176e-05 173.002 0.106418 172.376 0.315099L142.994 10.1078C142.368 10.3165 141.712 10.4229 141.052 10.4229H115.181C113.827 10.4229 112.511 10.8705 111.437 11.6961L84.3678 32.5158C83.4594 33.2145 82.7646 34.1535 82.3622 35.2265L76.6093 50.5657C76.2288 51.58 75.5931 52.471 74.7534 53.1556C65.839 60.4243 49.1684 73.7871 44.7557 76.4343C40.3241 79.0929 20.7029 102.449 10.2202 115.286C9.32828 116.378 8.85004 117.737 8.85004 119.148V154.354C8.85004 154.905 8.77568 155.454 8.62898 155.986L0.22107 186.464C-0.188021 187.947 -0.0254745 189.529 0.676543 190.898L22.1583 232.783C22.5479 233.543 23.0917 234.213 23.7549 234.751L63.9136 267.308C65.0074 268.194 66.3728 268.678 67.7809 268.678H110.87C112.306 268.678 113.697 268.175 114.801 267.255L132.234 252.73C133.337 251.81 134.728 251.307 136.165 251.307H159.311C160.871 251.307 162.372 251.9 163.51 252.967L178.499 267.018C179.637 268.084 181.139 268.678 182.699 268.678H204.698C206.798 268.678 208.752 269.751 209.879 271.522L214.872 279.367C215.71 280.684 216.015 282.271 215.725 283.805L208.603 321.446C208.265 323.234 208.737 325.079 209.891 326.485L234.009 355.841C234.472 356.405 234.831 357.047 235.069 357.737L245.956 389.306C246.178 389.95 246.291 390.626 246.291 391.307V419.324C246.291 420.76 245.788 422.151 244.868 423.254L236.133 433.736C235.213 434.84 234.709 436.23 234.709 437.667V469.573C234.709 470.731 235.037 471.865 235.654 472.844L253.816 501.687C254.202 502.3 254.477 502.976 254.627 503.684L262.249 539.614C262.419 540.417 262.749 541.178 263.218 541.851L288.044 577.466C288.762 578.496 289.147 579.721 289.147 580.976Z" fill="white"/>
<path d="M498.917 490.263L491.713 501.067C491.041 502.075 490.682 503.26 490.682 504.472V523.11C490.682 526.501 493.431 529.25 496.823 529.25H511.026C513.447 529.25 515.642 527.828 516.631 525.619L548.961 453.424C549.476 452.274 549.625 450.993 549.387 449.756L546.701 435.793C545.677 430.466 538.752 428.988 535.641 433.432L528.572 443.529C528.028 444.305 527.313 444.945 526.481 445.398L515.005 451.657L503.177 458.025C501.189 459.096 499.948 461.172 499.948 463.431V486.857C499.948 488.069 499.589 489.254 498.917 490.263Z" stroke="white"/>
<path d="M289.147 580.976V594.13C289.147 596.859 290.948 599.26 293.569 600.024L309.803 604.755C311.107 605.135 312.501 605.072 313.765 604.575L327.556 599.16C328.271 598.879 329.033 598.735 329.801 598.735H344.448C345.43 598.735 346.398 598.5 347.27 598.048L365.788 588.465C366.334 588.183 366.834 587.82 367.273 587.389L395.816 559.302C396.524 558.605 397.053 557.747 397.356 556.801L404.314 535.113C404.796 533.608 405.84 532.348 407.229 531.593L423.968 522.497C425.946 521.422 427.177 519.353 427.177 517.102V485.945C427.177 483.962 428.134 482.101 429.748 480.949L464.189 456.352L476.043 446.78C477.645 445.486 478.492 443.476 478.299 441.426L474.763 403.965L470.98 377.483C470.939 377.195 470.918 376.905 470.918 376.614V349.205C470.918 347.642 471.514 346.138 472.584 345L538.123 275.287C538.501 274.885 538.824 274.433 539.081 273.944L561.291 231.797C561.911 230.62 562.133 229.283 561.922 227.97L558.926 209.33C558.376 205.905 555.098 203.618 551.692 204.28L510.586 212.272C507.879 212.798 505.154 211.457 503.921 208.991L499.634 200.418C499.397 199.945 499.101 199.504 498.752 199.107L457.424 152.15C457.128 151.814 456.869 151.446 456.654 151.054L396.801 42.2888C396.544 41.821 396.226 41.3888 395.857 41.0031L392.873 37.8858C390.579 35.4894 386.795 35.3485 384.329 37.5677L378.924 42.4316C377.797 43.4463 376.333 44.0077 374.817 44.0077H360.09C359.137 44.0077 358.197 43.7858 357.344 43.3595L339.089 34.233C338.236 33.8067 337.296 33.5848 336.343 33.5848H314.503C313.085 33.5848 311.712 34.0751 310.615 34.9726L301.267 42.6199C300.17 43.5173 298.796 44.0077 297.378 44.0077H278.882C278.013 44.0077 277.154 43.8234 276.362 43.4669L254.4 33.5848L232.037 24.2686C228.999 23.0028 227.499 19.5667 228.637 16.4785L231.665 8.26246C233.142 4.2541 230.175 3.05176e-05 225.903 3.05176e-05H174.318C173.658 3.05176e-05 173.002 0.106418 172.376 0.315099L142.994 10.1078C142.368 10.3165 141.712 10.4229 141.052 10.4229H115.181C113.827 10.4229 112.511 10.8705 111.437 11.6961L84.3678 32.5158C83.4594 33.2145 82.7646 34.1535 82.3622 35.2265L76.6093 50.5657C76.2288 51.58 75.5931 52.471 74.7534 53.1556C65.839 60.4243 49.1684 73.7871 44.7557 76.4343C40.3241 79.0929 20.7029 102.449 10.2202 115.286C9.32828 116.378 8.85004 117.737 8.85004 119.148V154.354C8.85004 154.905 8.77568 155.454 8.62898 155.986L0.22107 186.464C-0.188021 187.947 -0.0254745 189.529 0.676543 190.898L22.1583 232.783C22.5479 233.543 23.0917 234.213 23.7549 234.751L63.9136 267.308C65.0074 268.194 66.3728 268.678 67.7809 268.678H110.87C112.306 268.678 113.697 268.175 114.801 267.255L132.234 252.73C133.337 251.81 134.728 251.307 136.165 251.307H159.311C160.871 251.307 162.372 251.9 163.51 252.967L178.499 267.018C179.637 268.084 181.139 268.678 182.699 268.678H204.698C206.798 268.678 208.752 269.751 209.879 271.522L214.872 279.367C215.71 280.684 216.015 282.271 215.725 283.805L208.603 321.446C208.265 323.234 208.737 325.079 209.891 326.485L234.009 355.841C234.472 356.405 234.831 357.047 235.069 357.737L245.956 389.306C246.178 389.95 246.291 390.626 246.291 391.307V419.324C246.291 420.76 245.788 422.151 244.868 423.254L236.133 433.736C235.213 434.84 234.709 436.23 234.709 437.667V469.573C234.709 470.731 235.037 471.865 235.654 472.844L253.816 501.687C254.202 502.3 254.477 502.976 254.627 503.684L262.249 539.614C262.419 540.417 262.749 541.178 263.218 541.851L288.044 577.466C288.762 578.496 289.147 579.721 289.147 580.976Z" stroke="white"/>
</mask>
<g mask="url(#mask0_1951_4683)">
<path d="M-4.31385 154.17L1.93846 160.421L-4.31385 166.673L-10.5662 160.421L-4.31385 154.17Z" fill="#FDE2CF"/>
<path d="M5.3197 179.078L11.572 185.329L5.3197 191.581L-0.932617 185.329L5.3197 179.078Z" fill="#F56E0F"/>
<path d="M14.9532 203.986L21.2056 210.237L14.9532 216.489L8.70093 210.237L14.9532 203.986Z" fill="#FDE2CF"/>
<path d="M24.5865 228.894L30.8389 235.145L24.5865 241.397L18.3342 235.145L24.5865 228.894Z" fill="#FDE2CF"/>
<path d="M34.2201 253.802L40.4724 260.053L34.2201 266.305L27.9678 260.053L34.2201 253.802Z" fill="#FDE2CF"/>
<path d="M43.8536 278.71L50.1059 284.961L43.8536 291.213L37.6013 284.961L43.8536 278.71Z" fill="#FDE2CF"/>
<path d="M53.4872 303.618L59.7395 309.869L53.4872 316.121L47.2349 309.869L53.4872 303.618Z" fill="#FDE2CF"/>
<path d="M63.1205 328.526L69.3728 334.777L63.1205 341.029L56.8682 334.777L63.1205 328.526Z" fill="#FDE2CF"/>
<path d="M72.754 353.434L79.0063 359.686L72.754 365.937L66.5017 359.686L72.754 353.434Z" fill="#FDE2CF"/>
<path d="M82.3876 378.342L88.6399 384.594L82.3876 390.845L76.1353 384.594L82.3876 378.342Z" fill="#FDE2CF"/>
<path d="M92.0211 403.25L98.2734 409.502L92.0211 415.753L85.7688 409.502L92.0211 403.25Z" fill="#FDE2CF"/>
<path d="M101.654 428.158L107.907 434.41L101.654 440.661L95.4021 434.41L101.654 428.158Z" fill="#FDE2CF"/>
<path d="M111.288 453.066L117.54 459.318L111.288 465.569L105.036 459.318L111.288 453.066Z" fill="#FDE2CF"/>
<path d="M120.922 477.974L127.174 484.226L120.922 490.477L114.669 484.226L120.922 477.974Z" fill="#FDE2CF"/>
<path d="M130.555 502.882L136.807 509.134L130.555 515.385L124.303 509.134L130.555 502.882Z" fill="#FDE2CF"/>
<path d="M140.188 527.79L146.441 534.042L140.188 540.293L133.936 534.042L140.188 527.79Z" fill="#FDE2CF"/>
<path d="M149.822 552.698L156.074 558.95L149.822 565.201L143.57 558.95L149.822 552.698Z" fill="#FDE2CF"/>
<path d="M159.455 577.607L165.708 583.858L159.455 590.11L153.203 583.858L159.455 577.607Z" fill="#FDE2CF"/>
<path d="M169.089 602.515L175.341 608.766L169.089 615.018L162.837 608.766L169.089 602.515Z" fill="#FDE2CF"/>
<path d="M-4.31678 54.5374L1.93553 60.7888L-4.31678 67.0403L-10.5691 60.7888L-4.31678 54.5374Z" fill="#FDE2CF"/>
<path d="M5.31677 79.4454L11.5691 85.6969L5.31677 91.9484L-0.935547 85.6969L5.31677 79.4454Z" fill="#FDE2CF"/>
<path d="M14.9501 104.353L21.2024 110.605L14.9501 116.856L8.69775 110.605L14.9501 104.353Z" fill="#F56E0F"/>
<path d="M24.5836 129.262L30.8359 135.513L24.5836 141.765L18.3313 135.513L24.5836 129.262Z" fill="#FDE2CF"/>
<path d="M34.2172 154.17L40.4695 160.421L34.2172 166.673L27.9648 160.421L34.2172 154.17Z" fill="#FDE2CF"/>
<path d="M43.8507 179.078L50.103 185.329L43.8507 191.581L37.5984 185.329L43.8507 179.078Z" fill="#FDE2CF"/>
<path d="M53.484 203.986L59.7363 210.237L53.484 216.489L47.2317 210.237L53.484 203.986Z" fill="#FDE2CF"/>
<path d="M63.1175 228.894L69.3699 235.145L63.1175 241.397L56.8652 235.145L63.1175 228.894Z" fill="#FDE2CF"/>
<path d="M72.7511 253.802L79.0034 260.053L72.7511 266.305L66.4988 260.053L72.7511 253.802Z" fill="#FDE2CF"/>
<path d="M82.3846 278.71L88.6369 284.961L82.3846 291.213L76.1323 284.961L82.3846 278.71Z" fill="#FDE2CF"/>
<path d="M92.0179 303.618L98.2702 309.869L92.0179 316.121L85.7656 309.869L92.0179 303.618Z" fill="#FDE2CF"/>
<path d="M101.651 328.526L107.904 334.777L101.651 341.029L95.3992 334.777L101.651 328.526Z" fill="#FDE2CF"/>
<path d="M111.285 353.434L117.537 359.686L111.285 365.937L105.033 359.686L111.285 353.434Z" fill="#FDE2CF"/>
<path d="M120.919 378.342L127.171 384.594L120.919 390.845L114.666 384.594L120.919 378.342Z" fill="#FDE2CF"/>
<path d="M130.552 403.25L136.804 409.502L130.552 415.753L124.3 409.502L130.552 403.25Z" fill="#FDE2CF"/>
<path d="M140.185 428.158L146.438 434.41L140.185 440.661L133.933 434.41L140.185 428.158Z" fill="#FDE2CF"/>
<path d="M149.819 453.066L156.071 459.318L149.819 465.569L143.567 459.318L149.819 453.066Z" fill="#FDE2CF"/>
<path d="M159.453 477.974L165.705 484.226L159.453 490.477L153.2 484.226L159.453 477.974Z" fill="#FDE2CF"/>
<path d="M169.086 502.882L175.338 509.134L169.086 515.385L162.833 509.134L169.086 502.882Z" fill="#FDE2CF"/>
<path d="M178.719 527.79L184.972 534.042L178.719 540.293L172.467 534.042L178.719 527.79Z" fill="#FDE2CF"/>
<path d="M188.353 552.698L194.605 558.95L188.353 565.201L182.101 558.95L188.353 552.698Z" fill="#FDE2CF"/>
<path d="M197.986 577.607L204.239 583.858L197.986 590.11L191.734 583.858L197.986 577.607Z" fill="#FDE2CF"/>
<path d="M207.62 602.515L213.872 608.766L207.62 615.018L201.368 608.766L207.62 602.515Z" fill="#FDE2CF"/>
<path d="M14.9471 4.72124L21.1995 10.9727L14.9471 17.2242L8.69482 10.9727L14.9471 4.72124Z" fill="#FDE2CF"/>
<path d="M24.5807 29.6293L30.833 35.8808L24.5807 42.1323L18.3284 35.8808L24.5807 29.6293Z" fill="#FDE2CF"/>
<path d="M34.2142 54.5374L40.4665 60.7888L34.2142 67.0403L27.9619 60.7888L34.2142 54.5374Z" fill="#FDE2CF"/>
<path d="M43.8475 79.4454L50.0998 85.6969L43.8475 91.9484L37.5952 85.6969L43.8475 79.4454Z" fill="#FDE2CF"/>
<path d="M53.4811 104.353L59.7334 110.605L53.4811 116.856L47.2288 110.605L53.4811 104.353Z" fill="#FDE2CF"/>
<path d="M63.1146 129.262L69.3669 135.513L63.1146 141.765L56.8623 135.513L63.1146 129.262Z" fill="#FDE2CF"/>
<path d="M72.7479 154.17L79.0002 160.421L72.7479 166.673L66.4956 160.421L72.7479 154.17Z" fill="#FDE2CF"/>
<path d="M82.3815 179.078L88.6338 185.329L82.3815 191.581L76.1292 185.329L82.3815 179.078Z" fill="#FDE2CF"/>
<path d="M92.015 203.986L98.2673 210.237L92.015 216.489L85.7627 210.237L92.015 203.986Z" fill="#FDE2CF"/>
<path d="M101.649 228.894L107.901 235.145L101.649 241.397L95.3962 235.145L101.649 228.894Z" fill="#FDE2CF"/>
<path d="M111.282 253.802L117.534 260.053L111.282 266.305L105.03 260.053L111.282 253.802Z" fill="#FDE2CF"/>
<path d="M120.915 278.71L127.168 284.961L120.915 291.213L114.663 284.961L120.915 278.71Z" fill="#FDE2CF"/>
<path d="M130.549 303.618L136.801 309.869L130.549 316.121L124.297 309.869L130.549 303.618Z" fill="#FDE2CF"/>
<path d="M140.182 328.526L146.435 334.777L140.182 341.029L133.93 334.777L140.182 328.526Z" fill="#FDE2CF"/>
<path d="M149.816 353.434L156.068 359.686L149.816 365.937L143.564 359.686L149.816 353.434Z" fill="#FDE2CF"/>
<path d="M159.45 378.342L165.702 384.594L159.45 390.845L153.197 384.594L159.45 378.342Z" fill="#FDE2CF"/>
<path d="M169.083 403.25L175.335 409.502L169.083 415.753L162.831 409.502L169.083 403.25Z" fill="#FDE2CF"/>
<path d="M178.716 428.158L184.969 434.41L178.716 440.661L172.464 434.41L178.716 428.158Z" fill="#FDE2CF"/>
<path d="M188.35 453.066L194.602 459.318L188.35 465.569L182.098 459.318L188.35 453.066Z" fill="#FDE2CF"/>
<path d="M197.983 477.974L204.236 484.226L197.983 490.477L191.731 484.226L197.983 477.974Z" fill="#FDE2CF"/>
<path d="M207.617 502.882L213.869 509.134L207.617 515.385L201.365 509.134L207.617 502.882Z" fill="#FDE2CF"/>
<path d="M217.25 527.79L223.503 534.042L217.25 540.293L210.998 534.042L217.25 527.79Z" fill="#FDE2CF"/>
<path d="M226.884 552.698L233.136 558.95L226.884 565.201L220.632 558.95L226.884 552.698Z" fill="#FDE2CF"/>
<path d="M236.517 577.607L242.77 583.858L236.517 590.11L230.265 583.858L236.517 577.607Z" fill="#FDE2CF"/>
<path d="M246.151 602.515L252.403 608.766L246.151 615.018L239.898 608.766L246.151 602.515Z" fill="#FDE2CF"/>
<path d="M53.4781 4.72124L59.7305 10.9727L53.4781 17.2242L47.2258 10.9727L53.4781 4.72124Z" fill="#FDE2CF"/>
<path d="M63.1117 29.6293L69.364 35.8808L63.1117 42.1323L56.8594 35.8808L63.1117 29.6293Z" fill="#FDE2CF"/>
<path d="M72.745 54.5374L78.9973 60.7888L72.745 67.0403L66.4927 60.7888L72.745 54.5374Z" fill="#FDE2CF"/>
<path d="M82.3785 79.4454L88.6308 85.6969L82.3785 91.9484L76.1262 85.6969L82.3785 79.4454Z" fill="#FDE2CF"/>
<path d="M92.0121 104.353L98.2644 110.605L92.0121 116.856L85.7598 110.605L92.0121 104.353Z" fill="#FDE2CF"/>
<path d="M101.646 129.262L107.898 135.513L101.646 141.765L95.3933 135.513L101.646 129.262Z" fill="#FDE2CF"/>
<path d="M111.279 154.17L117.531 160.421L111.279 166.673L105.027 160.421L111.279 154.17Z" fill="#FDE2CF"/>
<path d="M120.912 179.078L127.165 185.329L120.912 191.581L114.66 185.329L120.912 179.078Z" fill="#FDE2CF"/>
<path d="M130.546 203.986L136.798 210.237L130.546 216.489L124.294 210.237L130.546 203.986Z" fill="#F56E0F"/>
<path d="M140.18 228.894L146.432 235.145L140.18 241.397L133.927 235.145L140.18 228.894Z" fill="#FDE2CF"/>
<path d="M149.813 253.802L156.065 260.053L149.813 266.305L143.561 260.053L149.813 253.802Z" fill="#FDE2CF"/>
<path d="M159.446 278.71L165.699 284.961L159.446 291.213L153.194 284.961L159.446 278.71Z" fill="#FDE2CF"/>
<path d="M169.08 303.618L175.332 309.869L169.08 316.121L162.828 309.869L169.08 303.618Z" fill="#FDE2CF"/>
<path d="M178.713 328.526L184.966 334.777L178.713 341.029L172.461 334.777L178.713 328.526Z" fill="#FDE2CF"/>
<path d="M188.347 353.434L194.599 359.686L188.347 365.937L182.095 359.686L188.347 353.434Z" fill="#FDE2CF"/>
<path d="M197.98 378.342L204.233 384.594L197.98 390.845L191.728 384.594L197.98 378.342Z" fill="#FDE2CF"/>
<path d="M207.614 403.25L213.866 409.502L207.614 415.753L201.362 409.502L207.614 403.25Z" fill="#FDE2CF"/>
<path d="M217.247 428.158L223.5 434.41L217.247 440.661L210.995 434.41L217.247 428.158Z" fill="#FDE2CF"/>
<path d="M226.881 453.066L233.133 459.318L226.881 465.569L220.628 459.318L226.881 453.066Z" fill="#FDE2CF"/>
<path d="M236.514 477.974L242.767 484.226L236.514 490.477L230.262 484.226L236.514 477.974Z" fill="#FDE2CF"/>
<path d="M246.148 502.882L252.4 509.134L246.148 515.385L239.896 509.134L246.148 502.882Z" fill="#FDE2CF"/>
<path d="M255.781 527.79L262.034 534.042L255.781 540.293L249.529 534.042L255.781 527.79Z" fill="#FDE2CF"/>
<path d="M265.415 552.698L271.667 558.95L265.415 565.201L259.163 558.95L265.415 552.698Z" fill="#FDE2CF"/>
<path d="M275.048 577.607L281.301 583.858L275.048 590.11L268.796 583.858L275.048 577.607Z" fill="#FDE2CF"/>
<path d="M284.682 602.515L290.934 608.766L284.682 615.018L278.429 608.766L284.682 602.515Z" fill="#FDE2CF"/>
<path d="M92.0091 4.72124L98.2615 10.9727L92.0091 17.2242L85.7568 10.9727L92.0091 4.72124Z" fill="#FDE2CF"/>
<path d="M101.642 29.6293L107.895 35.8808L101.642 42.1323L95.3901 35.8808L101.642 29.6293Z" fill="#FDE2CF"/>
<path d="M111.276 54.5374L117.528 60.7888L111.276 67.0403L105.024 60.7888L111.276 54.5374Z" fill="#FDE2CF"/>
<path d="M120.91 79.4454L127.162 85.6969L120.91 91.9484L114.657 85.6969L120.91 79.4454Z" fill="#FDE2CF"/>
<path d="M130.543 104.353L136.795 110.605L130.543 116.856L124.291 110.605L130.543 104.353Z" fill="#FDE2CF"/>
<path d="M140.176 129.262L146.429 135.513L140.176 141.765L133.924 135.513L140.176 129.262Z" fill="#FDE2CF"/>
<path d="M149.81 154.17L156.062 160.421L149.81 166.673L143.558 160.421L149.81 154.17Z" fill="#FDE2CF"/>
<path d="M159.443 179.078L165.696 185.329L159.443 191.581L153.191 185.329L159.443 179.078Z" fill="#FDE2CF"/>
<path d="M169.077 203.986L175.329 210.237L169.077 216.489L162.825 210.237L169.077 203.986Z" fill="#FDE2CF"/>
<path d="M178.71 228.894L184.963 235.145L178.71 241.397L172.458 235.145L178.71 228.894Z" fill="#FDE2CF"/>
<path d="M188.344 253.802L194.596 260.053L188.344 266.305L182.092 260.053L188.344 253.802Z" fill="#FDE2CF"/>
<path d="M197.977 278.71L204.23 284.961L197.977 291.213L191.725 284.961L197.977 278.71Z" fill="#FDE2CF"/>
<path d="M207.611 303.618L213.863 309.869L207.611 316.121L201.359 309.869L207.611 303.618Z" fill="#FDE2CF"/>
<path d="M217.244 328.526L223.497 334.777L217.244 341.029L210.992 334.777L217.244 328.526Z" fill="#F56E0F"/>
<path d="M226.878 353.434L233.13 359.686L226.878 365.937L220.625 359.686L226.878 353.434Z" fill="#FDE2CF"/>
<path d="M236.511 378.342L242.764 384.594L236.511 390.845L230.259 384.594L236.511 378.342Z" fill="#FDE2CF"/>
<path d="M246.145 403.25L252.397 409.502L246.145 415.753L239.893 409.502L246.145 403.25Z" fill="#FDE2CF"/>
<path d="M255.778 428.158L262.031 434.41L255.778 440.661L249.526 434.41L255.778 428.158Z" fill="#FDE2CF"/>
<path d="M265.412 453.066L271.664 459.318L265.412 465.569L259.159 459.318L265.412 453.066Z" fill="#FDE2CF"/>
<path d="M275.045 477.974L281.298 484.226L275.045 490.477L268.793 484.226L275.045 477.974Z" fill="#FDE2CF"/>
<path d="M284.679 502.882L290.931 509.134L284.679 515.385L278.427 509.134L284.679 502.882Z" fill="#FDE2CF"/>
<path d="M294.312 527.79L300.565 534.042L294.312 540.293L288.06 534.042L294.312 527.79Z" fill="#FDE2CF"/>
<path d="M303.946 552.698L310.198 558.95L303.946 565.201L297.693 558.95L303.946 552.698Z" fill="#FDE2CF"/>
<path d="M313.579 577.607L319.832 583.858L313.579 590.11L307.327 583.858L313.579 577.607Z" fill="#FDE2CF"/>
<path d="M323.213 602.515L329.465 608.766L323.213 615.018L316.96 608.766L323.213 602.515Z" fill="#FDE2CF"/>
<path d="M130.54 4.72124L136.792 10.9727L130.54 17.2242L124.288 10.9727L130.54 4.72124Z" fill="#FDE2CF"/>
<path d="M140.173 29.6293L146.426 35.8808L140.173 42.1323L133.921 35.8808L140.173 29.6293Z" fill="#FDE2CF"/>
<path d="M149.807 54.5374L156.059 60.7888L149.807 67.0403L143.555 60.7888L149.807 54.5374Z" fill="#FDE2CF"/>
<path d="M159.441 79.4454L165.693 85.6969L159.441 91.9484L153.188 85.6969L159.441 79.4454Z" fill="#FDE2CF"/>
<path d="M169.074 104.353L175.326 110.605L169.074 116.856L162.822 110.605L169.074 104.353Z" fill="#FDE2CF"/>
<path d="M178.707 129.262L184.96 135.513L178.707 141.765L172.455 135.513L178.707 129.262Z" fill="#FDE2CF"/>
<path d="M188.341 154.17L194.593 160.421L188.341 166.673L182.089 160.421L188.341 154.17Z" fill="#FDE2CF"/>
<path d="M197.974 179.078L204.227 185.329L197.974 191.581L191.722 185.329L197.974 179.078Z" fill="#FDE2CF"/>
<path d="M207.608 203.986L213.86 210.237L207.608 216.489L201.355 210.237L207.608 203.986Z" fill="#FDE2CF"/>
<path d="M217.241 228.894L223.494 235.145L217.241 241.397L210.989 235.145L217.241 228.894Z" fill="#FDE2CF"/>
<path d="M226.875 253.802L233.127 260.053L226.875 266.305L220.623 260.053L226.875 253.802Z" fill="#FDE2CF"/>
<path d="M236.508 278.71L242.761 284.961L236.508 291.213L230.256 284.961L236.508 278.71Z" fill="#FDE2CF"/>
<path d="M246.142 303.618L252.394 309.869L246.142 316.121L239.89 309.869L246.142 303.618Z" fill="#FDE2CF"/>
<path d="M255.775 328.526L262.028 334.777L255.775 341.029L249.523 334.777L255.775 328.526Z" fill="#FDE2CF"/>
<path d="M265.409 353.434L271.661 359.686L265.409 365.937L259.156 359.686L265.409 353.434Z" fill="#FDE2CF"/>
<path d="M275.042 378.342L281.295 384.594L275.042 390.845L268.79 384.594L275.042 378.342Z" fill="#FDE2CF"/>
<path d="M284.676 403.25L290.928 409.502L284.676 415.753L278.423 409.502L284.676 403.25Z" fill="#FDE2CF"/>
<path d="M294.309 428.158L300.562 434.41L294.309 440.661L288.057 434.41L294.309 428.158Z" fill="#FDE2CF"/>
<path d="M303.943 453.066L310.195 459.318L303.943 465.569L297.69 459.318L303.943 453.066Z" fill="#FDE2CF"/>
<path d="M313.576 477.974L319.829 484.226L313.576 490.477L307.324 484.226L313.576 477.974Z" fill="#FDE2CF"/>
<path d="M323.21 502.882L329.462 509.134L323.21 515.385L316.958 509.134L323.21 502.882Z" fill="#FDE2CF"/>
<path d="M332.843 527.79L339.095 534.042L332.843 540.293L326.591 534.042L332.843 527.79Z" fill="#FDE2CF"/>
<path d="M342.477 552.698L348.729 558.95L342.477 565.201L336.224 558.95L342.477 552.698Z" fill="#FDE2CF"/>
<path d="M352.11 577.607L358.363 583.858L352.11 590.11L345.858 583.858L352.11 577.607Z" fill="#FDE2CF"/>
<path d="M361.744 602.515L367.996 608.766L361.744 615.018L355.491 608.766L361.744 602.515Z" fill="#FDE2CF"/>
<path d="M169.071 4.72124L175.323 10.9727L169.071 17.2242L162.819 10.9727L169.071 4.72124Z" fill="#FDE2CF"/>
<path d="M178.704 29.6293L184.957 35.8808L178.704 42.1323L172.452 35.8808L178.704 29.6293Z" fill="#FDE2CF"/>
<path d="M188.338 54.5374L194.59 60.7888L188.338 67.0403L182.086 60.7888L188.338 54.5374Z" fill="#FDE2CF"/>
<path d="M197.971 79.4454L204.224 85.6969L197.971 91.9484L191.719 85.6969L197.971 79.4454Z" fill="#FDE2CF"/>
<path d="M207.605 104.353L213.857 110.605L207.605 116.856L201.353 110.605L207.605 104.353Z" fill="#F56E0F"/>
<path d="M217.238 129.262L223.491 135.513L217.238 141.765L210.986 135.513L217.238 129.262Z" fill="#FDE2CF"/>
<path d="M226.872 154.17L233.124 160.421L226.872 166.673L220.62 160.421L226.872 154.17Z" fill="#F56E0F"/>
<path d="M236.505 179.078L242.758 185.329L236.505 191.581L230.253 185.329L236.505 179.078Z" fill="#FDE2CF"/>
<path d="M246.139 203.986L252.391 210.237L246.139 216.489L239.886 210.237L246.139 203.986Z" fill="#FDE2CF"/>
<path d="M255.772 228.894L262.025 235.145L255.772 241.397L249.52 235.145L255.772 228.894Z" fill="#FDE2CF"/>
<path d="M265.406 253.802L271.658 260.053L265.406 266.305L259.154 260.053L265.406 253.802Z" fill="#F56E0F"/>
<path d="M275.039 278.71L281.292 284.961L275.039 291.213L268.787 284.961L275.039 278.71Z" fill="#FDE2CF"/>
<path d="M284.673 303.618L290.925 309.869L284.673 316.121L278.42 309.869L284.673 303.618Z" fill="#FDE2CF"/>
<path d="M294.306 328.526L300.559 334.777L294.306 341.029L288.054 334.777L294.306 328.526Z" fill="#FDE2CF"/>
<path d="M303.94 353.434L310.192 359.686L303.94 365.937L297.688 359.686L303.94 353.434Z" fill="#FDE2CF"/>
<path d="M313.573 378.342L319.826 384.594L313.573 390.845L307.321 384.594L313.573 378.342Z" fill="#FDE2CF"/>
<path d="M323.207 403.25L329.459 409.502L323.207 415.753L316.955 409.502L323.207 403.25Z" fill="#FDE2CF"/>
<path d="M332.84 428.158L339.093 434.41L332.84 440.661L326.588 434.41L332.84 428.158Z" fill="#FDE2CF"/>
<path d="M342.474 453.066L348.726 459.318L342.474 465.569L336.221 459.318L342.474 453.066Z" fill="#FDE2CF"/>
<path d="M352.107 477.974L358.36 484.226L352.107 490.477L345.855 484.226L352.107 477.974Z" fill="#F56E0F"/>
<path d="M361.741 502.882L367.993 509.134L361.741 515.385L355.488 509.134L361.741 502.882Z" fill="#FDE2CF"/>
<path d="M371.374 527.79L377.626 534.042L371.374 540.293L365.122 534.042L371.374 527.79Z" fill="#FDE2CF"/>
<path d="M381.008 552.698L387.26 558.95L381.008 565.201L374.755 558.95L381.008 552.698Z" fill="#FDE2CF"/>
<path d="M390.641 577.607L396.894 583.858L390.641 590.11L384.389 583.858L390.641 577.607Z" fill="#FDE2CF"/>
<path d="M400.275 602.515L406.527 608.766L400.275 615.018L394.022 608.766L400.275 602.515Z" fill="#FDE2CF"/>
<path d="M207.602 4.72124L213.854 10.9727L207.602 17.2242L201.35 10.9727L207.602 4.72124Z" fill="#FDE2CF"/>
<path d="M217.235 29.6293L223.488 35.8808L217.235 42.1323L210.983 35.8808L217.235 29.6293Z" fill="#FDE2CF"/>
<path d="M226.869 54.5374L233.121 60.7888L226.869 67.0403L220.616 60.7888L226.869 54.5374Z" fill="#FDE2CF"/>
<path d="M236.502 79.4454L242.755 85.6969L236.502 91.9484L230.25 85.6969L236.502 79.4454Z" fill="#FDE2CF"/>
<path d="M246.136 104.353L252.388 110.605L246.136 116.856L239.884 110.605L246.136 104.353Z" fill="#FDE2CF"/>
<path d="M255.769 129.262L262.022 135.513L255.769 141.765L249.517 135.513L255.769 129.262Z" fill="#FDE2CF"/>
<path d="M265.403 154.17L271.655 160.421L265.403 166.673L259.15 160.421L265.403 154.17Z" fill="#FDE2CF"/>
<path d="M275.036 179.078L281.289 185.329L275.036 191.581L268.784 185.329L275.036 179.078Z" fill="#FDE2CF"/>
<path d="M284.67 203.986L290.922 210.237L284.67 216.489L278.417 210.237L284.67 203.986Z" fill="#FDE2CF"/>
<path d="M294.303 228.894L300.556 235.145L294.303 241.397L288.051 235.145L294.303 228.894Z" fill="#FDE2CF"/>
<path d="M303.937 253.802L310.189 260.053L303.937 266.305L297.685 260.053L303.937 253.802Z" fill="#FDE2CF"/>
<path d="M313.57 278.71L319.823 284.961L313.57 291.213L307.318 284.961L313.57 278.71Z" fill="#FDE2CF"/>
<path d="M323.204 303.618L329.456 309.869L323.204 316.121L316.951 309.869L323.204 303.618Z" fill="#FDE2CF"/>
<path d="M332.837 328.526L339.09 334.777L332.837 341.029L326.585 334.777L332.837 328.526Z" fill="#FDE2CF"/>
<path d="M342.471 353.434L348.723 359.686L342.471 365.937L336.219 359.686L342.471 353.434Z" fill="#FDE2CF"/>
<path d="M352.104 378.342L358.357 384.594L352.104 390.845L345.852 384.594L352.104 378.342Z" fill="#FDE2CF"/>
<path d="M361.738 403.25L367.99 409.502L361.738 415.753L355.485 409.502L361.738 403.25Z" fill="#FDE2CF"/>
<path d="M371.371 428.158L377.624 434.41L371.371 440.661L365.119 434.41L371.371 428.158Z" fill="#FDE2CF"/>
<path d="M381.005 453.066L387.257 459.318L381.005 465.569L374.752 459.318L381.005 453.066Z" fill="#FDE2CF"/>
<path d="M390.638 477.974L396.89 484.226L390.638 490.477L384.386 484.226L390.638 477.974Z" fill="#FDE2CF"/>
<path d="M400.272 502.882L406.524 509.134L400.272 515.385L394.019 509.134L400.272 502.882Z" fill="#FDE2CF"/>
<path d="M409.905 527.79L416.157 534.042L409.905 540.293L403.653 534.042L409.905 527.79Z" fill="#FDE2CF"/>
<path d="M419.539 552.698L425.791 558.95L419.539 565.201L413.286 558.95L419.539 552.698Z" fill="#FDE2CF"/>
<path d="M429.172 577.607L435.425 583.858L429.172 590.11L422.92 583.858L429.172 577.607Z" fill="#FDE2CF"/>
<path d="M438.806 602.515L445.058 608.766L438.806 615.018L432.553 608.766L438.806 602.515Z" fill="#FDE2CF"/>
<path d="M246.133 4.72124L252.385 10.9727L246.133 17.2242L239.881 10.9727L246.133 4.72124Z" fill="#FDE2CF"/>
<path d="M255.766 29.6293L262.019 35.8808L255.766 42.1323L249.514 35.8808L255.766 29.6293Z" fill="#FDE2CF"/>
<path d="M265.4 54.5374L271.652 60.7888L265.4 67.0403L259.147 60.7888L265.4 54.5374Z" fill="#FDE2CF"/>
<path d="M275.033 79.4454L281.286 85.6969L275.033 91.9484L268.781 85.6969L275.033 79.4454Z" fill="#FDE2CF"/>
<path d="M284.667 104.353L290.919 110.605L284.667 116.856L278.415 110.605L284.667 104.353Z" fill="#F56E0F"/>
<path d="M294.3 129.262L300.552 135.513L294.3 141.765L288.048 135.513L294.3 129.262Z" fill="#FDE2CF"/>
<path d="M303.934 154.17L310.186 160.421L303.934 166.673L297.681 160.421L303.934 154.17Z" fill="#FDE2CF"/>
<path d="M313.567 179.078L319.82 185.329L313.567 191.581L307.315 185.329L313.567 179.078Z" fill="#FDE2CF"/>
<path d="M323.201 203.986L329.453 210.237L323.201 216.489L316.948 210.237L323.201 203.986Z" fill="#FDE2CF"/>
<path d="M332.834 228.894L339.087 235.145L332.834 241.397L326.582 235.145L332.834 228.894Z" fill="#FDE2CF"/>
<path d="M342.468 253.802L348.72 260.053L342.468 266.305L336.215 260.053L342.468 253.802Z" fill="#FDE2CF"/>
<path d="M352.101 278.71L358.353 284.961L352.101 291.213L345.849 284.961L352.101 278.71Z" fill="#FDE2CF"/>
<path d="M361.735 303.618L367.987 309.869L361.735 316.121L355.482 309.869L361.735 303.618Z" fill="#FDE2CF"/>
<path d="M371.368 328.526L377.621 334.777L371.368 341.029L365.116 334.777L371.368 328.526Z" fill="#FDE2CF"/>
<path d="M381.002 353.434L387.254 359.686L381.002 365.937L374.75 359.686L381.002 353.434Z" fill="#FDE2CF"/>
<path d="M390.635 378.342L396.887 384.594L390.635 390.845L384.383 384.594L390.635 378.342Z" fill="#FDE2CF"/>
<path d="M400.269 403.25L406.521 409.502L400.269 415.753L394.016 409.502L400.269 403.25Z" fill="#FDE2CF"/>
<path d="M409.902 428.158L416.155 434.41L409.902 440.661L403.65 434.41L409.902 428.158Z" fill="#FDE2CF"/>
<path d="M419.536 453.066L425.788 459.318L419.536 465.569L413.283 459.318L419.536 453.066Z" fill="#FDE2CF"/>
<path d="M429.169 477.974L435.421 484.226L429.169 490.477L422.917 484.226L429.169 477.974Z" fill="#FDE2CF"/>
<path d="M438.803 502.882L445.055 509.134L438.803 515.385L432.55 509.134L438.803 502.882Z" fill="#FDE2CF"/>
<path d="M448.436 527.79L454.688 534.042L448.436 540.293L442.184 534.042L448.436 527.79Z" fill="#FDE2CF"/>
<path d="M458.07 552.698L464.322 558.95L458.07 565.201L451.817 558.95L458.07 552.698Z" fill="#FDE2CF"/>
<path d="M467.703 577.607L473.955 583.858L467.703 590.11L461.451 583.858L467.703 577.607Z" fill="#FDE2CF"/>
<path d="M477.337 602.515L483.589 608.766L477.337 615.018L471.084 608.766L477.337 602.515Z" fill="#FDE2CF"/>
<path d="M284.664 4.72124L290.916 10.9727L284.664 17.2242L278.411 10.9727L284.664 4.72124Z" fill="#FDE2CF"/>
<path d="M294.297 29.6293L300.55 35.8808L294.297 42.1323L288.045 35.8808L294.297 29.6293Z" fill="#FDE2CF"/>
<path d="M303.931 54.5374L310.183 60.7888L303.931 67.0403L297.678 60.7888L303.931 54.5374Z" fill="#FDE2CF"/>
<path d="M313.564 79.4454L319.817 85.6969L313.564 91.9484L307.312 85.6969L313.564 79.4454Z" fill="#FDE2CF"/>
<path d="M323.198 104.353L329.45 110.605L323.198 116.856L316.946 110.605L323.198 104.353Z" fill="#FDE2CF"/>
<path d="M332.831 129.262L339.083 135.513L332.831 141.765L326.579 135.513L332.831 129.262Z" fill="#FDE2CF"/>
<path d="M342.465 154.17L348.717 160.421L342.465 166.673L336.212 160.421L342.465 154.17Z" fill="#FDE2CF"/>
<path d="M352.098 179.078L358.351 185.329L352.098 191.581L345.846 185.329L352.098 179.078Z" fill="#FDE2CF"/>
<path d="M361.732 203.986L367.984 210.237L361.732 216.489L355.479 210.237L361.732 203.986Z" fill="#FDE2CF"/>
<path d="M371.365 228.894L377.617 235.145L371.365 241.397L365.113 235.145L371.365 228.894Z" fill="#FDE2CF"/>
<path d="M380.999 253.802L387.251 260.053L380.999 266.305L374.746 260.053L380.999 253.802Z" fill="#FDE2CF"/>
<path d="M390.632 278.71L396.885 284.961L390.632 291.213L384.38 284.961L390.632 278.71Z" fill="#FDE2CF"/>
<path d="M400.266 303.618L406.518 309.869L400.266 316.121L394.013 309.869L400.266 303.618Z" fill="#FDE2CF"/>
<path d="M409.899 328.526L416.152 334.777L409.899 341.029L403.647 334.777L409.899 328.526Z" fill="#FDE2CF"/>
<path d="M419.533 353.434L425.785 359.686L419.533 365.937L413.28 359.686L419.533 353.434Z" fill="#FDE2CF"/>
<path d="M429.166 378.342L435.418 384.594L429.166 390.845L422.914 384.594L429.166 378.342Z" fill="#FDE2CF"/>
<path d="M438.8 403.25L445.052 409.502L438.8 415.753L432.547 409.502L438.8 403.25Z" fill="#FDE2CF"/>
<path d="M448.433 428.158L454.685 434.41L448.433 440.661L442.181 434.41L448.433 428.158Z" fill="#FDE2CF"/>
<path d="M458.067 453.066L464.319 459.318L458.067 465.569L451.814 459.318L458.067 453.066Z" fill="#FDE2CF"/>
<path d="M467.7 477.974L473.952 484.226L467.7 490.477L461.448 484.226L467.7 477.974Z" fill="#FDE2CF"/>
<path d="M477.334 502.882L483.586 509.134L477.334 515.385L471.081 509.134L477.334 502.882Z" fill="#FDE2CF"/>
<path d="M486.967 527.79L493.219 534.042L486.967 540.293L480.715 534.042L486.967 527.79Z" fill="#FDE2CF"/>
<path d="M496.6 552.698L502.853 558.95L496.6 565.201L490.348 558.95L496.6 552.698Z" fill="#FDE2CF"/>
<path d="M506.234 577.607L512.486 583.858L506.234 590.11L499.982 583.858L506.234 577.607Z" fill="#FDE2CF"/>
<path d="M515.868 602.515L522.12 608.766L515.868 615.018L509.615 608.766L515.868 602.515Z" fill="#FDE2CF"/>
<path d="M323.195 4.72124L329.447 10.9727L323.195 17.2242L316.942 10.9727L323.195 4.72124Z" fill="#FDE2CF"/>
<path d="M332.828 29.6293L339.081 35.8808L332.828 42.1323L326.576 35.8808L332.828 29.6293Z" fill="#FDE2CF"/>
<path d="M342.462 54.5374L348.714 60.7888L342.462 67.0403L336.209 60.7888L342.462 54.5374Z" fill="#FDE2CF"/>
<path d="M352.095 79.4454L358.348 85.6969L352.095 91.9484L345.843 85.6969L352.095 79.4454Z" fill="#FDE2CF"/>
<path d="M361.729 104.353L367.981 110.605L361.729 116.856L355.476 110.605L361.729 104.353Z" fill="#FDE2CF"/>
<path d="M371.362 129.262L377.615 135.513L371.362 141.765L365.11 135.513L371.362 129.262Z" fill="#FDE2CF"/>
<path d="M380.996 154.17L387.248 160.421L380.996 166.673L374.743 160.421L380.996 154.17Z" fill="#F56E0F"/>
<path d="M390.629 179.078L396.882 185.329L390.629 191.581L384.377 185.329L390.629 179.078Z" fill="#FDE2CF"/>
<path d="M400.263 203.986L406.515 210.237L400.263 216.489L394.01 210.237L400.263 203.986Z" fill="#FDE2CF"/>
<path d="M409.896 228.894L416.148 235.145L409.896 241.397L403.644 235.145L409.896 228.894Z" fill="#FDE2CF"/>
<path d="M419.53 253.802L425.782 260.053L419.53 266.305L413.277 260.053L419.53 253.802Z" fill="#FDE2CF"/>
<path d="M429.163 278.71L435.415 284.961L429.163 291.213L422.911 284.961L429.163 278.71Z" fill="#FDE2CF"/>
<path d="M438.797 303.618L445.049 309.869L438.797 316.121L432.544 309.869L438.797 303.618Z" fill="#FDE2CF"/>
<path d="M448.43 328.526L454.682 334.777L448.43 341.029L442.178 334.777L448.43 328.526Z" fill="#FDE2CF"/>
<path d="M458.064 353.434L464.316 359.686L458.064 365.937L451.811 359.686L458.064 353.434Z" fill="#F56E0F"/>
<path d="M467.697 378.342L473.949 384.594L467.697 390.845L461.445 384.594L467.697 378.342Z" fill="#FDE2CF"/>
<path d="M477.33 403.25L483.583 409.502L477.33 415.753L471.078 409.502L477.33 403.25Z" fill="#F56E0F"/>
<path d="M486.964 428.158L493.217 434.41L486.964 440.661L480.712 434.41L486.964 428.158Z" fill="#FDE2CF"/>
<path d="M496.598 453.066L502.85 459.318L496.598 465.569L490.345 459.318L496.598 453.066Z" fill="#FDE2CF"/>
<path d="M506.231 477.974L512.483 484.226L506.231 490.477L499.979 484.226L506.231 477.974Z" fill="#FDE2CF"/>
<path d="M515.865 502.882L522.117 509.134L515.865 515.385L509.612 509.134L515.865 502.882Z" fill="#FDE2CF"/>
<path d="M525.498 527.79L531.75 534.042L525.498 540.293L519.246 534.042L525.498 527.79Z" fill="#FDE2CF"/>
<path d="M535.131 552.698L541.384 558.95L535.131 565.201L528.879 558.95L535.131 552.698Z" fill="#FDE2CF"/>
<path d="M544.765 577.607L551.017 583.858L544.765 590.11L538.513 583.858L544.765 577.607Z" fill="#FDE2CF"/>
<path d="M554.399 602.515L560.651 608.766L554.399 615.018L548.146 608.766L554.399 602.515Z" fill="#FDE2CF"/>
<path d="M361.726 4.72124L367.978 10.9727L361.726 17.2242L355.473 10.9727L361.726 4.72124Z" fill="#FDE2CF"/>
<path d="M371.359 29.6293L377.612 35.8808L371.359 42.1323L365.107 35.8808L371.359 29.6293Z" fill="#FDE2CF"/>
<path d="M380.993 54.5374L387.245 60.7888L380.993 67.0403L374.74 60.7888L380.993 54.5374Z" fill="#FDE2CF"/>
<path d="M390.626 79.4454L396.878 85.6969L390.626 91.9484L384.374 85.6969L390.626 79.4454Z" fill="#FDE2CF"/>
<path d="M400.26 104.353L406.512 110.605L400.26 116.856L394.007 110.605L400.26 104.353Z" fill="#FDE2CF"/>
<path d="M409.893 129.262L416.145 135.513L409.893 141.765L403.641 135.513L409.893 129.262Z" fill="#FDE2CF"/>
<path d="M419.527 154.17L425.779 160.421L419.527 166.673L413.274 160.421L419.527 154.17Z" fill="#FDE2CF"/>
<path d="M429.16 179.078L435.412 185.329L429.16 191.581L422.908 185.329L429.16 179.078Z" fill="#FDE2CF"/>
<path d="M438.794 203.986L445.046 210.237L438.794 216.489L432.541 210.237L438.794 203.986Z" fill="#FDE2CF"/>
<path d="M448.427 228.894L454.679 235.145L448.427 241.397L442.175 235.145L448.427 228.894Z" fill="#FDE2CF"/>
<path d="M458.061 253.802L464.313 260.053L458.061 266.305L451.808 260.053L458.061 253.802Z" fill="#FDE2CF"/>
<path d="M467.694 278.71L473.947 284.961L467.694 291.213L461.442 284.961L467.694 278.71Z" fill="#F56E0F"/>
<path d="M477.327 303.618L483.58 309.869L477.327 316.121L471.075 309.869L477.327 303.618Z" fill="#FDE2CF"/>
<path d="M486.961 328.526L493.213 334.777L486.961 341.029L480.709 334.777L486.961 328.526Z" fill="#FDE2CF"/>
<path d="M496.595 353.434L502.847 359.686L496.595 365.937L490.342 359.686L496.595 353.434Z" fill="#FDE2CF"/>
<path d="M506.228 378.342L512.48 384.594L506.228 390.845L499.976 384.594L506.228 378.342Z" fill="#FDE2CF"/>
<path d="M515.862 403.25L522.114 409.502L515.862 415.753L509.609 409.502L515.862 403.25Z" fill="#FDE2CF"/>
<path d="M525.495 428.158L531.747 434.41L525.495 440.661L519.243 434.41L525.495 428.158Z" fill="#FDE2CF"/>
<path d="M535.129 453.066L541.381 459.318L535.129 465.569L528.876 459.318L535.129 453.066Z" fill="#FDE2CF"/>
<path d="M544.762 477.974L551.014 484.226L544.762 490.477L538.51 484.226L544.762 477.974Z" fill="#FDE2CF"/>
<path d="M554.395 502.882L560.648 509.134L554.395 515.385L548.143 509.134L554.395 502.882Z" fill="#FDE2CF"/>
<path d="M564.029 527.79L570.281 534.042L564.029 540.293L557.777 534.042L564.029 527.79Z" fill="#FDE2CF"/>
<path d="M400.257 4.72124L406.509 10.9727L400.257 17.2242L394.004 10.9727L400.257 4.72124Z" fill="#FDE2CF"/>
<path d="M409.89 29.6293L416.143 35.8808L409.89 42.1323L403.638 35.8808L409.89 29.6293Z" fill="#FDE2CF"/>
<path d="M419.524 54.5374L425.776 60.7888L419.524 67.0403L413.271 60.7888L419.524 54.5374Z" fill="#FDE2CF"/>
<path d="M429.157 79.4454L435.409 85.6969L429.157 91.9484L422.905 85.6969L429.157 79.4454Z" fill="#FDE2CF"/>
<path d="M438.791 104.353L445.043 110.605L438.791 116.856L432.538 110.605L438.791 104.353Z" fill="#FDE2CF"/>
<path d="M448.424 129.262L454.677 135.513L448.424 141.765L442.172 135.513L448.424 129.262Z" fill="#FDE2CF"/>
<path d="M458.057 154.17L464.31 160.421L458.057 166.673L451.805 160.421L458.057 154.17Z" fill="#FDE2CF"/>
<path d="M467.691 179.078L473.943 185.329L467.691 191.581L461.439 185.329L467.691 179.078Z" fill="#FDE2CF"/>
<path d="M477.325 203.986L483.577 210.237L477.325 216.489L471.072 210.237L477.325 203.986Z" fill="#FDE2CF"/>
<path d="M486.958 228.894L493.21 235.145L486.958 241.397L480.706 235.145L486.958 228.894Z" fill="#FDE2CF"/>
<path d="M496.592 253.802L502.844 260.053L496.592 266.305L490.339 260.053L496.592 253.802Z" fill="#FDE2CF"/>
<path d="M506.225 278.71L512.477 284.961L506.225 291.213L499.973 284.961L506.225 278.71Z" fill="#FDE2CF"/>
<path d="M515.859 303.618L522.111 309.869L515.859 316.121L509.606 309.869L515.859 303.618Z" fill="#FDE2CF"/>
<path d="M525.492 328.526L531.744 334.777L525.492 341.029L519.24 334.777L525.492 328.526Z" fill="#FDE2CF"/>
<path d="M535.126 353.434L541.378 359.686L535.126 365.937L528.873 359.686L535.126 353.434Z" fill="#FDE2CF"/>
<path d="M544.759 378.342L551.011 384.594L544.759 390.845L538.507 384.594L544.759 378.342Z" fill="#FDE2CF"/>
<path d="M554.392 403.25L560.645 409.502L554.392 415.753L548.14 409.502L554.392 403.25Z" fill="#FDE2CF"/>
<path d="M564.026 428.158L570.278 434.41L564.026 440.661L557.774 434.41L564.026 428.158Z" fill="#FDE2CF"/>
<path d="M438.788 4.72124L445.04 10.9727L438.788 17.2242L432.535 10.9727L438.788 4.72124Z" fill="#FDE2CF"/>
<path d="M448.421 29.6293L454.674 35.8808L448.421 42.1323L442.169 35.8808L448.421 29.6293Z" fill="#FDE2CF"/>
<path d="M458.055 54.5374L464.307 60.7888L458.055 67.0403L451.802 60.7888L458.055 54.5374Z" fill="#FDE2CF"/>
<path d="M467.688 79.4454L473.94 85.6969L467.688 91.9484L461.436 85.6969L467.688 79.4454Z" fill="#FDE2CF"/>
<path d="M477.322 104.353L483.574 110.605L477.322 116.856L471.069 110.605L477.322 104.353Z" fill="#FDE2CF"/>
<path d="M486.955 129.262L493.207 135.513L486.955 141.765L480.703 135.513L486.955 129.262Z" fill="#FDE2CF"/>
<path d="M496.589 154.17L502.841 160.421L496.589 166.673L490.336 160.421L496.589 154.17Z" fill="#FDE2CF"/>
<path d="M506.222 179.078L512.474 185.329L506.222 191.581L499.97 185.329L506.222 179.078Z" fill="#FDE2CF"/>
<path d="M515.856 203.986L522.108 210.237L515.856 216.489L509.603 210.237L515.856 203.986Z" fill="#FDE2CF"/>
<path d="M525.489 228.894L531.741 235.145L525.489 241.397L519.237 235.145L525.489 228.894Z" fill="#FDE2CF"/>
<path d="M535.122 253.802L541.375 260.053L535.122 266.305L528.87 260.053L535.122 253.802Z" fill="#FDE2CF"/>
<path d="M544.756 278.71L551.008 284.961L544.756 291.213L538.504 284.961L544.756 278.71Z" fill="#FDE2CF"/>
<path d="M554.39 303.618L560.642 309.869L554.39 316.121L548.137 309.869L554.39 303.618Z" fill="#FDE2CF"/>
<path d="M564.023 328.526L570.275 334.777L564.023 341.029L557.771 334.777L564.023 328.526Z" fill="#FDE2CF"/>
<path d="M477.319 4.72124L483.571 10.9727L477.319 17.2242L471.066 10.9727L477.319 4.72124Z" fill="#FDE2CF"/>
<path d="M486.952 29.6293L493.204 35.8808L486.952 42.1323L480.7 35.8808L486.952 29.6293Z" fill="#FDE2CF"/>
<path d="M496.586 54.5374L502.838 60.7888L496.586 67.0403L490.333 60.7888L496.586 54.5374Z" fill="#FDE2CF"/>
<path d="M506.219 79.4454L512.471 85.6969L506.219 91.9484L499.967 85.6969L506.219 79.4454Z" fill="#FDE2CF"/>
<path d="M515.852 104.353L522.105 110.605L515.852 116.856L509.6 110.605L515.852 104.353Z" fill="#FDE2CF"/>
<path d="M525.486 129.262L531.739 135.513L525.486 141.765L519.234 135.513L525.486 129.262Z" fill="#FDE2CF"/>
<path d="M535.12 154.17L541.372 160.421L535.12 166.673L528.867 160.421L535.12 154.17Z" fill="#FDE2CF"/>
<path d="M544.753 179.078L551.005 185.329L544.753 191.581L538.501 185.329L544.753 179.078Z" fill="#FDE2CF"/>
<path d="M554.387 203.986L560.639 210.237L554.387 216.489L548.134 210.237L554.387 203.986Z" fill="#FDE2CF"/>
<path d="M564.02 228.894L570.272 235.145L564.02 241.397L557.768 235.145L564.02 228.894Z" fill="#FDE2CF"/>
<path d="M515.849 4.72124L522.102 10.9727L515.849 17.2242L509.597 10.9727L515.849 4.72124Z" fill="#FDE2CF"/>
<path d="M525.483 29.6293L531.735 35.8808L525.483 42.1323L519.231 35.8808L525.483 29.6293Z" fill="#FDE2CF"/>
<path d="M535.117 54.5374L541.369 60.7888L535.117 67.0403L528.864 60.7888L535.117 54.5374Z" fill="#FDE2CF"/>
<path d="M544.75 79.4454L551.002 85.6969L544.75 91.9484L538.498 85.6969L544.75 79.4454Z" fill="#FDE2CF"/>
<path d="M554.383 104.353L560.636 110.605L554.383 116.856L548.131 110.605L554.383 104.353Z" fill="#FDE2CF"/>
<path d="M564.017 129.262L570.269 135.513L564.017 141.765L557.765 135.513L564.017 129.262Z" fill="#FDE2CF"/>
<path d="M554.38 4.72124L560.633 10.9727L554.38 17.2242L548.128 10.9727L554.38 4.72124Z" fill="#FDE2CF"/>
<path d="M564.014 29.6293L570.266 35.8808L564.014 42.1323L557.762 35.8808L564.014 29.6293Z" fill="#FDE2CF"/>
<path d="M-4.31385 104.353L1.93846 110.605L-4.31385 116.856L-10.5662 110.605L-4.31385 104.353Z" fill="#FDE2CF"/>
<path d="M5.3197 129.262L11.572 135.513L5.3197 141.765L-0.932617 135.513L5.3197 129.262Z" fill="#FDE2CF"/>
<path d="M14.9532 154.17L21.2056 160.421L14.9532 166.673L8.70093 160.421L14.9532 154.17Z" fill="#FDE2CF"/>
<path d="M24.5865 179.078L30.8389 185.329L24.5865 191.581L18.3342 185.329L24.5865 179.078Z" fill="#FDE2CF"/>
<path d="M34.2201 203.986L40.4724 210.237L34.2201 216.489L27.9678 210.237L34.2201 203.986Z" fill="#FDE2CF"/>
<path d="M43.8536 228.894L50.1059 235.145L43.8536 241.397L37.6013 235.145L43.8536 228.894Z" fill="#FDE2CF"/>
<path d="M53.4872 253.802L59.7395 260.053L53.4872 266.305L47.2349 260.053L53.4872 253.802Z" fill="#F56E0F"/>
<path d="M63.1205 278.71L69.3728 284.961L63.1205 291.213L56.8682 284.961L63.1205 278.71Z" fill="#FDE2CF"/>
<path d="M72.754 303.618L79.0063 309.869L72.754 316.121L66.5017 309.869L72.754 303.618Z" fill="#FDE2CF"/>
<path d="M82.3876 328.526L88.6399 334.777L82.3876 341.029L76.1353 334.777L82.3876 328.526Z" fill="#FDE2CF"/>
<path d="M92.0211 353.434L98.2734 359.686L92.0211 365.937L85.7688 359.686L92.0211 353.434Z" fill="#FDE2CF"/>
<path d="M101.654 378.342L107.907 384.594L101.654 390.845L95.4021 384.594L101.654 378.342Z" fill="#FDE2CF"/>
<path d="M111.288 403.25L117.54 409.502L111.288 415.753L105.036 409.502L111.288 403.25Z" fill="#FDE2CF"/>
<path d="M120.922 428.158L127.174 434.41L120.922 440.661L114.669 434.41L120.922 428.158Z" fill="#FDE2CF"/>
<path d="M130.555 453.066L136.807 459.318L130.555 465.569L124.303 459.318L130.555 453.066Z" fill="#FDE2CF"/>
<path d="M140.188 477.974L146.441 484.226L140.188 490.477L133.936 484.226L140.188 477.974Z" fill="#FDE2CF"/>
<path d="M149.822 502.882L156.074 509.134L149.822 515.385L143.57 509.134L149.822 502.882Z" fill="#FDE2CF"/>
<path d="M159.455 527.79L165.708 534.042L159.455 540.293L153.203 534.042L159.455 527.79Z" fill="#FDE2CF"/>
<path d="M169.089 552.698L175.341 558.95L169.089 565.201L162.837 558.95L169.089 552.698Z" fill="#FDE2CF"/>
<path d="M178.723 577.607L184.975 583.858L178.723 590.11L172.47 583.858L178.723 577.607Z" fill="#FDE2CF"/>
<path d="M188.356 602.515L194.608 608.766L188.356 615.018L182.104 608.766L188.356 602.515Z" fill="#FDE2CF"/>
<path d="M-4.31678 4.72124L1.93553 10.9727L-4.31678 17.2242L-10.5691 10.9727L-4.31678 4.72124Z" fill="#FDE2CF"/>
<path d="M5.31677 29.6293L11.5691 35.8808L5.31677 42.1323L-0.935547 35.8808L5.31677 29.6293Z" fill="#FDE2CF"/>
<path d="M14.9501 54.5374L21.2024 60.7888L14.9501 67.0403L8.69775 60.7888L14.9501 54.5374Z" fill="#FDE2CF"/>
<path d="M24.5836 79.4454L30.8359 85.6969L24.5836 91.9484L18.3313 85.6969L24.5836 79.4454Z" fill="#FDE2CF"/>
<path d="M34.2172 104.353L40.4695 110.605L34.2172 116.856L27.9648 110.605L34.2172 104.353Z" fill="#FDE2CF"/>
<path d="M43.8507 129.262L50.103 135.513L43.8507 141.765L37.5984 135.513L43.8507 129.262Z" fill="#FDE2CF"/>
<path d="M53.484 154.17L59.7363 160.421L53.484 166.673L47.2317 160.421L53.484 154.17Z" fill="#FDE2CF"/>
<path d="M63.1175 179.078L69.3699 185.329L63.1175 191.581L56.8652 185.329L63.1175 179.078Z" fill="#F56E0F"/>
<path d="M72.7511 203.986L79.0034 210.237L72.7511 216.489L66.4988 210.237L72.7511 203.986Z" fill="#FDE2CF"/>
<path d="M82.3846 228.894L88.6369 235.145L82.3846 241.397L76.1323 235.145L82.3846 228.894Z" fill="#FDE2CF"/>
<path d="M92.0179 253.802L98.2702 260.053L92.0179 266.305L85.7656 260.053L92.0179 253.802Z" fill="#FDE2CF"/>
<path d="M101.651 278.71L107.904 284.961L101.651 291.213L95.3992 284.961L101.651 278.71Z" fill="#FDE2CF"/>
<path d="M111.285 303.618L117.537 309.869L111.285 316.121L105.033 309.869L111.285 303.618Z" fill="#FDE2CF"/>
<path d="M120.919 328.526L127.171 334.777L120.919 341.029L114.666 334.777L120.919 328.526Z" fill="#FDE2CF"/>
<path d="M130.552 353.434L136.804 359.686L130.552 365.937L124.3 359.686L130.552 353.434Z" fill="#FDE2CF"/>
<path d="M140.185 378.342L146.438 384.594L140.185 390.845L133.933 384.594L140.185 378.342Z" fill="#FDE2CF"/>
<path d="M149.819 403.25L156.071 409.502L149.819 415.753L143.567 409.502L149.819 403.25Z" fill="#FDE2CF"/>
<path d="M159.453 428.158L165.705 434.41L159.453 440.661L153.2 434.41L159.453 428.158Z" fill="#FDE2CF"/>
<path d="M169.086 453.066L175.338 459.318L169.086 465.569L162.833 459.318L169.086 453.066Z" fill="#FDE2CF"/>
<path d="M178.719 477.974L184.972 484.226L178.719 490.477L172.467 484.226L178.719 477.974Z" fill="#FDE2CF"/>
<path d="M188.353 502.882L194.605 509.134L188.353 515.385L182.101 509.134L188.353 502.882Z" fill="#FDE2CF"/>
<path d="M197.986 527.79L204.239 534.042L197.986 540.293L191.734 534.042L197.986 527.79Z" fill="#FDE2CF"/>
<path d="M207.62 552.698L213.872 558.95L207.62 565.201L201.368 558.95L207.62 552.698Z" fill="#FDE2CF"/>
<path d="M217.253 577.607L223.506 583.858L217.253 590.11L211.001 583.858L217.253 577.607Z" fill="#FDE2CF"/>
<path d="M226.887 602.515L233.139 608.766L226.887 615.018L220.635 608.766L226.887 602.515Z" fill="#FDE2CF"/>
<path d="M34.2142 4.72124L40.4665 10.9727L34.2142 17.2242L27.9619 10.9727L34.2142 4.72124Z" fill="#FDE2CF"/>
<path d="M43.8475 29.6293L50.0998 35.8808L43.8475 42.1323L37.5952 35.8808L43.8475 29.6293Z" fill="#FDE2CF"/>
<path d="M53.4811 54.5374L59.7334 60.7888L53.4811 67.0403L47.2288 60.7888L53.4811 54.5374Z" fill="#FDE2CF"/>
<path d="M63.1146 79.4454L69.3669 85.6969L63.1146 91.9484L56.8623 85.6969L63.1146 79.4454Z" fill="#FDE2CF"/>
<path d="M72.7479 104.353L79.0002 110.605L72.7479 116.856L66.4956 110.605L72.7479 104.353Z" fill="#FDE2CF"/>
<path d="M82.3815 129.262L88.6338 135.513L82.3815 141.765L76.1292 135.513L82.3815 129.262Z" fill="#F56E0F"/>
<path d="M92.015 154.17L98.2673 160.421L92.015 166.673L85.7627 160.421L92.015 154.17Z" fill="#FDE2CF"/>
<path d="M101.649 179.078L107.901 185.329L101.649 191.581L95.3962 185.329L101.649 179.078Z" fill="#FDE2CF"/>
<path d="M111.282 203.986L117.534 210.237L111.282 216.489L105.03 210.237L111.282 203.986Z" fill="#FDE2CF"/>
<path d="M120.915 228.894L127.168 235.145L120.915 241.397L114.663 235.145L120.915 228.894Z" fill="#FDE2CF"/>
<path d="M130.549 253.802L136.801 260.053L130.549 266.305L124.297 260.053L130.549 253.802Z" fill="#FDE2CF"/>
<path d="M140.182 278.71L146.435 284.961L140.182 291.213L133.93 284.961L140.182 278.71Z" fill="#FDE2CF"/>
<path d="M149.816 303.618L156.068 309.869L149.816 316.121L143.564 309.869L149.816 303.618Z" fill="#FDE2CF"/>
<path d="M159.45 328.526L165.702 334.777L159.45 341.029L153.197 334.777L159.45 328.526Z" fill="#FDE2CF"/>
<path d="M169.083 353.434L175.335 359.686L169.083 365.937L162.831 359.686L169.083 353.434Z" fill="#FDE2CF"/>
<path d="M178.716 378.342L184.969 384.594L178.716 390.845L172.464 384.594L178.716 378.342Z" fill="#FDE2CF"/>
<path d="M188.35 403.25L194.602 409.502L188.35 415.753L182.098 409.502L188.35 403.25Z" fill="#FDE2CF"/>
<path d="M197.983 428.158L204.236 434.41L197.983 440.661L191.731 434.41L197.983 428.158Z" fill="#FDE2CF"/>
<path d="M207.617 453.066L213.869 459.318L207.617 465.569L201.365 459.318L207.617 453.066Z" fill="#FDE2CF"/>
<path d="M217.25 477.974L223.503 484.226L217.25 490.477L210.998 484.226L217.25 477.974Z" fill="#FDE2CF"/>
<path d="M226.884 502.882L233.136 509.134L226.884 515.385L220.632 509.134L226.884 502.882Z" fill="#FDE2CF"/>
<path d="M236.517 527.79L242.77 534.042L236.517 540.293L230.265 534.042L236.517 527.79Z" fill="#FDE2CF"/>
<path d="M246.151 552.698L252.403 558.95L246.151 565.201L239.898 558.95L246.151 552.698Z" fill="#FDE2CF"/>
<path d="M255.784 577.607L262.037 583.858L255.784 590.11L249.532 583.858L255.784 577.607Z" fill="#FDE2CF"/>
<path d="M265.418 602.515L271.67 608.766L265.418 615.018L259.166 608.766L265.418 602.515Z" fill="#FDE2CF"/>
<path d="M72.745 4.72124L78.9973 10.9727L72.745 17.2242L66.4927 10.9727L72.745 4.72124Z" fill="#FDE2CF"/>
<path d="M82.3785 29.6293L88.6308 35.8808L82.3785 42.1323L76.1262 35.8808L82.3785 29.6293Z" fill="#F56E0F"/>
<path d="M92.0121 54.5374L98.2644 60.7888L92.0121 67.0403L85.7598 60.7888L92.0121 54.5374Z" fill="#FDE2CF"/>
<path d="M101.646 79.4454L107.898 85.6969L101.646 91.9484L95.3933 85.6969L101.646 79.4454Z" fill="#FDE2CF"/>
<path d="M111.279 104.353L117.531 110.605L111.279 116.856L105.027 110.605L111.279 104.353Z" fill="#FDE2CF"/>
<path d="M120.912 129.262L127.165 135.513L120.912 141.765L114.66 135.513L120.912 129.262Z" fill="#FDE2CF"/>
<path d="M130.546 154.17L136.798 160.421L130.546 166.673L124.294 160.421L130.546 154.17Z" fill="#FDE2CF"/>
<path d="M140.18 179.078L146.432 185.329L140.18 191.581L133.927 185.329L140.18 179.078Z" fill="#FDE2CF"/>
<path d="M149.813 203.986L156.065 210.237L149.813 216.489L143.561 210.237L149.813 203.986Z" fill="#FDE2CF"/>
<path d="M159.446 228.894L165.699 235.145L159.446 241.397L153.194 235.145L159.446 228.894Z" fill="#FDE2CF"/>
<path d="M169.08 253.802L175.332 260.053L169.08 266.305L162.828 260.053L169.08 253.802Z" fill="#FDE2CF"/>
<path d="M178.713 278.71L184.966 284.961L178.713 291.213L172.461 284.961L178.713 278.71Z" fill="#FDE2CF"/>
<path d="M188.347 303.618L194.599 309.869L188.347 316.121L182.095 309.869L188.347 303.618Z" fill="#FDE2CF"/>
<path d="M197.98 328.526L204.233 334.777L197.98 341.029L191.728 334.777L197.98 328.526Z" fill="#FDE2CF"/>
<path d="M207.614 353.434L213.866 359.686L207.614 365.937L201.362 359.686L207.614 353.434Z" fill="#FDE2CF"/>
<path d="M217.247 378.342L223.5 384.594L217.247 390.845L210.995 384.594L217.247 378.342Z" fill="#FDE2CF"/>
<path d="M226.881 403.25L233.133 409.502L226.881 415.753L220.628 409.502L226.881 403.25Z" fill="#FDE2CF"/>
<path d="M236.514 428.158L242.767 434.41L236.514 440.661L230.262 434.41L236.514 428.158Z" fill="#FDE2CF"/>
<path d="M246.148 453.066L252.4 459.318L246.148 465.569L239.896 459.318L246.148 453.066Z" fill="#FDE2CF"/>
<path d="M255.781 477.974L262.034 484.226L255.781 490.477L249.529 484.226L255.781 477.974Z" fill="#FDE2CF"/>
<path d="M265.415 502.882L271.667 509.134L265.415 515.385L259.163 509.134L265.415 502.882Z" fill="#FDE2CF"/>
<path d="M275.048 527.79L281.301 534.042L275.048 540.293L268.796 534.042L275.048 527.79Z" fill="#FDE2CF"/>
<path d="M284.682 552.698L290.934 558.95L284.682 565.201L278.429 558.95L284.682 552.698Z" fill="#FDE2CF"/>
<path d="M294.315 577.607L300.568 583.858L294.315 590.11L288.063 583.858L294.315 577.607Z" fill="#FDE2CF"/>
<path d="M303.949 602.515L310.201 608.766L303.949 615.018L297.697 608.766L303.949 602.515Z" fill="#FDE2CF"/>
<path d="M111.276 4.72124L117.528 10.9727L111.276 17.2242L105.024 10.9727L111.276 4.72124Z" fill="#FDE2CF"/>
<path d="M120.91 29.6293L127.162 35.8808L120.91 42.1323L114.657 35.8808L120.91 29.6293Z" fill="#FDE2CF"/>
<path d="M130.543 54.5374L136.795 60.7888L130.543 67.0403L124.291 60.7888L130.543 54.5374Z" fill="#FDE2CF"/>
<path d="M140.176 79.4454L146.429 85.6969L140.176 91.9484L133.924 85.6969L140.176 79.4454Z" fill="#F56E0F"/>
<path d="M149.81 104.353L156.062 110.605L149.81 116.856L143.558 110.605L149.81 104.353Z" fill="#FDE2CF"/>
<path d="M159.443 129.262L165.696 135.513L159.443 141.765L153.191 135.513L159.443 129.262Z" fill="#FDE2CF"/>
<path d="M169.077 154.17L175.329 160.421L169.077 166.673L162.825 160.421L169.077 154.17Z" fill="#FDE2CF"/>
<path d="M178.71 179.078L184.963 185.329L178.71 191.581L172.458 185.329L178.71 179.078Z" fill="#FDE2CF"/>
<path d="M188.344 203.986L194.596 210.237L188.344 216.489L182.092 210.237L188.344 203.986Z" fill="#FDE2CF"/>
<path d="M197.977 228.894L204.23 235.145L197.977 241.397L191.725 235.145L197.977 228.894Z" fill="#FDE2CF"/>
<path d="M207.611 253.802L213.863 260.053L207.611 266.305L201.359 260.053L207.611 253.802Z" fill="#FDE2CF"/>
<path d="M217.244 278.71L223.497 284.961L217.244 291.213L210.992 284.961L217.244 278.71Z" fill="#FDE2CF"/>
<path d="M226.878 303.618L233.13 309.869L226.878 316.121L220.625 309.869L226.878 303.618Z" fill="#FDE2CF"/>
<path d="M236.511 328.526L242.764 334.777L236.511 341.029L230.259 334.777L236.511 328.526Z" fill="#FDE2CF"/>
<path d="M246.145 353.434L252.397 359.686L246.145 365.937L239.893 359.686L246.145 353.434Z" fill="#FDE2CF"/>
<path d="M255.778 378.342L262.031 384.594L255.778 390.845L249.526 384.594L255.778 378.342Z" fill="#FDE2CF"/>
<path d="M265.412 403.25L271.664 409.502L265.412 415.753L259.159 409.502L265.412 403.25Z" fill="#FDE2CF"/>
<path d="M275.045 428.158L281.298 434.41L275.045 440.661L268.793 434.41L275.045 428.158Z" fill="#FDE2CF"/>
<path d="M284.679 453.066L290.931 459.318L284.679 465.569L278.427 459.318L284.679 453.066Z" fill="#F56E0F"/>
<path d="M294.312 477.974L300.565 484.226L294.312 490.477L288.06 484.226L294.312 477.974Z" fill="#FDE2CF"/>
<path d="M303.946 502.882L310.198 509.134L303.946 515.385L297.693 509.134L303.946 502.882Z" fill="#FDE2CF"/>
<path d="M313.579 527.79L319.832 534.042L313.579 540.293L307.327 534.042L313.579 527.79Z" fill="#FDE2CF"/>
<path d="M323.213 552.698L329.465 558.95L323.213 565.201L316.96 558.95L323.213 552.698Z" fill="#FDE2CF"/>
<path d="M332.846 577.607L339.099 583.858L332.846 590.11L326.594 583.858L332.846 577.607Z" fill="#FDE2CF"/>
<path d="M342.48 602.515L348.732 608.766L342.48 615.018L336.228 608.766L342.48 602.515Z" fill="#FDE2CF"/>
<path d="M149.807 4.72124L156.059 10.9727L149.807 17.2242L143.555 10.9727L149.807 4.72124Z" fill="#FDE2CF"/>
<path d="M159.441 29.6293L165.693 35.8808L159.441 42.1323L153.188 35.8808L159.441 29.6293Z" fill="#FDE2CF"/>
<path d="M169.074 54.5374L175.326 60.7888L169.074 67.0403L162.822 60.7888L169.074 54.5374Z" fill="#FDE2CF"/>
<path d="M178.707 79.4454L184.96 85.6969L178.707 91.9484L172.455 85.6969L178.707 79.4454Z" fill="#FDE2CF"/>
<path d="M188.341 104.353L194.593 110.605L188.341 116.856L182.089 110.605L188.341 104.353Z" fill="#FDE2CF"/>
<path d="M197.974 129.262L204.227 135.513L197.974 141.765L191.722 135.513L197.974 129.262Z" fill="#FDE2CF"/>
<path d="M207.608 154.17L213.86 160.421L207.608 166.673L201.355 160.421L207.608 154.17Z" fill="#FDE2CF"/>
<path d="M217.241 179.078L223.494 185.329L217.241 191.581L210.989 185.329L217.241 179.078Z" fill="#FDE2CF"/>
<path d="M226.875 203.986L233.127 210.237L226.875 216.489L220.623 210.237L226.875 203.986Z" fill="#FDE2CF"/>
<path d="M236.508 228.894L242.761 235.145L236.508 241.397L230.256 235.145L236.508 228.894Z" fill="#FDE2CF"/>
<path d="M246.142 253.802L252.394 260.053L246.142 266.305L239.89 260.053L246.142 253.802Z" fill="#FDE2CF"/>
<path d="M255.775 278.71L262.028 284.961L255.775 291.213L249.523 284.961L255.775 278.71Z" fill="#FDE2CF"/>
<path d="M265.409 303.618L271.661 309.869L265.409 316.121L259.156 309.869L265.409 303.618Z" fill="#FDE2CF"/>
<path d="M275.042 328.526L281.295 334.777L275.042 341.029L268.79 334.777L275.042 328.526Z" fill="#FDE2CF"/>
<path d="M284.676 353.434L290.928 359.686L284.676 365.937L278.423 359.686L284.676 353.434Z" fill="#FDE2CF"/>
<path d="M294.309 378.342L300.562 384.594L294.309 390.845L288.057 384.594L294.309 378.342Z" fill="#F56E0F"/>
<path d="M303.943 403.25L310.195 409.502L303.943 415.753L297.69 409.502L303.943 403.25Z" fill="#FDE2CF"/>
<path d="M313.576 428.158L319.829 434.41L313.576 440.661L307.324 434.41L313.576 428.158Z" fill="#FDE2CF"/>
<path d="M323.21 453.066L329.462 459.318L323.21 465.569L316.958 459.318L323.21 453.066Z" fill="#FDE2CF"/>
<path d="M332.843 477.974L339.095 484.226L332.843 490.477L326.591 484.226L332.843 477.974Z" fill="#FDE2CF"/>
<path d="M342.477 502.882L348.729 509.134L342.477 515.385L336.224 509.134L342.477 502.882Z" fill="#FDE2CF"/>
<path d="M352.11 527.79L358.363 534.042L352.11 540.293L345.858 534.042L352.11 527.79Z" fill="#F56E0F"/>
<path d="M361.744 552.698L367.996 558.95L361.744 565.201L355.491 558.95L361.744 552.698Z" fill="#F56E0F"/>
<path d="M371.377 577.607L377.63 583.858L371.377 590.11L365.125 583.858L371.377 577.607Z" fill="#FDE2CF"/>
<path d="M381.011 602.515L387.263 608.766L381.011 615.018L374.758 608.766L381.011 602.515Z" fill="#FDE2CF"/>
<path d="M188.338 4.72124L194.59 10.9727L188.338 17.2242L182.086 10.9727L188.338 4.72124Z" fill="#FDE2CF"/>
<path d="M197.971 29.6293L204.224 35.8808L197.971 42.1323L191.719 35.8808L197.971 29.6293Z" fill="#F56E0F"/>
<path d="M207.605 54.5374L213.857 60.7888L207.605 67.0403L201.353 60.7888L207.605 54.5374Z" fill="#FDE2CF"/>
<path d="M217.238 79.4454L223.491 85.6969L217.238 91.9484L210.986 85.6969L217.238 79.4454Z" fill="#FDE2CF"/>
<path d="M226.872 104.353L233.124 110.605L226.872 116.856L220.62 110.605L226.872 104.353Z" fill="#FDE2CF"/>
<path d="M236.505 129.262L242.758 135.513L236.505 141.765L230.253 135.513L236.505 129.262Z" fill="#FDE2CF"/>
<path d="M246.139 154.17L252.391 160.421L246.139 166.673L239.886 160.421L246.139 154.17Z" fill="#FDE2CF"/>
<path d="M255.772 179.078L262.025 185.329L255.772 191.581L249.52 185.329L255.772 179.078Z" fill="#FDE2CF"/>
<path d="M265.406 203.986L271.658 210.237L265.406 216.489L259.154 210.237L265.406 203.986Z" fill="#FDE2CF"/>
<path d="M275.039 228.894L281.292 235.145L275.039 241.397L268.787 235.145L275.039 228.894Z" fill="#FDE2CF"/>
<path d="M284.673 253.802L290.925 260.053L284.673 266.305L278.42 260.053L284.673 253.802Z" fill="#FDE2CF"/>
<path d="M294.306 278.71L300.559 284.961L294.306 291.213L288.054 284.961L294.306 278.71Z" fill="#FDE2CF"/>
<path d="M303.94 303.618L310.192 309.869L303.94 316.121L297.688 309.869L303.94 303.618Z" fill="#FDE2CF"/>
<path d="M313.573 328.526L319.826 334.777L313.573 341.029L307.321 334.777L313.573 328.526Z" fill="#FDE2CF"/>
<path d="M323.207 353.434L329.459 359.686L323.207 365.937L316.955 359.686L323.207 353.434Z" fill="#FDE2CF"/>
<path d="M332.84 378.342L339.093 384.594L332.84 390.845L326.588 384.594L332.84 378.342Z" fill="#FDE2CF"/>
<path d="M342.474 403.25L348.726 409.502L342.474 415.753L336.221 409.502L342.474 403.25Z" fill="#FDE2CF"/>
<path d="M352.107 428.158L358.36 434.41L352.107 440.661L345.855 434.41L352.107 428.158Z" fill="#FDE2CF"/>
<path d="M361.741 453.066L367.993 459.318L361.741 465.569L355.488 459.318L361.741 453.066Z" fill="#FDE2CF"/>
<path d="M371.374 477.974L377.626 484.226L371.374 490.477L365.122 484.226L371.374 477.974Z" fill="#FDE2CF"/>
<path d="M381.008 502.882L387.26 509.134L381.008 515.385L374.755 509.134L381.008 502.882Z" fill="#FDE2CF"/>
<path d="M390.641 527.79L396.894 534.042L390.641 540.293L384.389 534.042L390.641 527.79Z" fill="#FDE2CF"/>
<path d="M400.275 552.698L406.527 558.95L400.275 565.201L394.022 558.95L400.275 552.698Z" fill="#FDE2CF"/>
<path d="M409.908 577.607L416.16 583.858L409.908 590.11L403.656 583.858L409.908 577.607Z" fill="#FDE2CF"/>
<path d="M419.542 602.515L425.794 608.766L419.542 615.018L413.289 608.766L419.542 602.515Z" fill="#FDE2CF"/>
<path d="M226.869 4.72124L233.121 10.9727L226.869 17.2242L220.616 10.9727L226.869 4.72124Z" fill="#FDE2CF"/>
<path d="M236.502 29.6293L242.755 35.8808L236.502 42.1323L230.25 35.8808L236.502 29.6293Z" fill="#FDE2CF"/>
<path d="M246.136 54.5374L252.388 60.7888L246.136 67.0403L239.884 60.7888L246.136 54.5374Z" fill="#FDE2CF"/>
<path d="M255.769 79.4454L262.022 85.6969L255.769 91.9484L249.517 85.6969L255.769 79.4454Z" fill="#FDE2CF"/>
<path d="M265.403 104.353L271.655 110.605L265.403 116.856L259.15 110.605L265.403 104.353Z" fill="#FDE2CF"/>
<path d="M275.036 129.262L281.289 135.513L275.036 141.765L268.784 135.513L275.036 129.262Z" fill="#FDE2CF"/>
<path d="M284.67 154.17L290.922 160.421L284.67 166.673L278.417 160.421L284.67 154.17Z" fill="#FDE2CF"/>
<path d="M294.303 179.078L300.556 185.329L294.303 191.581L288.051 185.329L294.303 179.078Z" fill="#FDE2CF"/>
<path d="M303.937 203.986L310.189 210.237L303.937 216.489L297.685 210.237L303.937 203.986Z" fill="#F56E0F"/>
<path d="M313.57 228.894L319.823 235.145L313.57 241.397L307.318 235.145L313.57 228.894Z" fill="#FDE2CF"/>
<path d="M323.204 253.802L329.456 260.053L323.204 266.305L316.951 260.053L323.204 253.802Z" fill="#FDE2CF"/>
<path d="M332.837 278.71L339.09 284.961L332.837 291.213L326.585 284.961L332.837 278.71Z" fill="#F56E0F"/>
<path d="M342.471 303.618L348.723 309.869L342.471 316.121L336.219 309.869L342.471 303.618Z" fill="#FDE2CF"/>
<path d="M352.104 328.526L358.357 334.777L352.104 341.029L345.852 334.777L352.104 328.526Z" fill="#F56E0F"/>
<path d="M361.738 353.434L367.99 359.686L361.738 365.937L355.485 359.686L361.738 353.434Z" fill="#FDE2CF"/>
<path d="M371.371 378.342L377.624 384.594L371.371 390.845L365.119 384.594L371.371 378.342Z" fill="#FDE2CF"/>
<path d="M381.005 403.25L387.257 409.502L381.005 415.753L374.752 409.502L381.005 403.25Z" fill="#F56E0F"/>
<path d="M390.638 428.158L396.89 434.41L390.638 440.661L384.386 434.41L390.638 428.158Z" fill="#FDE2CF"/>
<path d="M400.272 453.066L406.524 459.318L400.272 465.569L394.019 459.318L400.272 453.066Z" fill="#FDE2CF"/>
<path d="M409.905 477.974L416.157 484.226L409.905 490.477L403.653 484.226L409.905 477.974Z" fill="#FDE2CF"/>
<path d="M419.539 502.882L425.791 509.134L419.539 515.385L413.286 509.134L419.539 502.882Z" fill="#FDE2CF"/>
<path d="M429.172 527.79L435.425 534.042L429.172 540.293L422.92 534.042L429.172 527.79Z" fill="#FDE2CF"/>
<path d="M438.806 552.698L445.058 558.95L438.806 565.201L432.553 558.95L438.806 552.698Z" fill="#FDE2CF"/>
<path d="M448.439 577.607L454.691 583.858L448.439 590.11L442.187 583.858L448.439 577.607Z" fill="#FDE2CF"/>
<path d="M458.073 602.515L464.325 608.766L458.073 615.018L451.82 608.766L458.073 602.515Z" fill="#FDE2CF"/>
<path d="M265.4 4.72124L271.652 10.9727L265.4 17.2242L259.147 10.9727L265.4 4.72124Z" fill="#FDE2CF"/>
<path d="M275.033 29.6293L281.286 35.8808L275.033 42.1323L268.781 35.8808L275.033 29.6293Z" fill="#FDE2CF"/>
<path d="M284.667 54.5374L290.919 60.7888L284.667 67.0403L278.415 60.7888L284.667 54.5374Z" fill="#FDE2CF"/>
<path d="M294.3 79.4454L300.552 85.6969L294.3 91.9484L288.048 85.6969L294.3 79.4454Z" fill="#FDE2CF"/>
<path d="M303.934 104.353L310.186 110.605L303.934 116.856L297.681 110.605L303.934 104.353Z" fill="#FDE2CF"/>
<path d="M313.567 129.262L319.82 135.513L313.567 141.765L307.315 135.513L313.567 129.262Z" fill="#FDE2CF"/>
<path d="M323.201 154.17L329.453 160.421L323.201 166.673L316.948 160.421L323.201 154.17Z" fill="#FDE2CF"/>
<path d="M332.834 179.078L339.087 185.329L332.834 191.581L326.582 185.329L332.834 179.078Z" fill="#FDE2CF"/>
<path d="M342.468 203.986L348.72 210.237L342.468 216.489L336.215 210.237L342.468 203.986Z" fill="#FDE2CF"/>
<path d="M352.101 228.894L358.353 235.145L352.101 241.397L345.849 235.145L352.101 228.894Z" fill="#FDE2CF"/>
<path d="M361.735 253.802L367.987 260.053L361.735 266.305L355.482 260.053L361.735 253.802Z" fill="#FDE2CF"/>
<path d="M371.368 278.71L377.621 284.961L371.368 291.213L365.116 284.961L371.368 278.71Z" fill="#FDE2CF"/>
<path d="M381.002 303.618L387.254 309.869L381.002 316.121L374.75 309.869L381.002 303.618Z" fill="#FDE2CF"/>
<path d="M390.635 328.526L396.887 334.777L390.635 341.029L384.383 334.777L390.635 328.526Z" fill="#FDE2CF"/>
<path d="M400.269 353.434L406.521 359.686L400.269 365.937L394.016 359.686L400.269 353.434Z" fill="#FDE2CF"/>
<path d="M409.902 378.342L416.155 384.594L409.902 390.845L403.65 384.594L409.902 378.342Z" fill="#FDE2CF"/>
<path d="M419.536 403.25L425.788 409.502L419.536 415.753L413.283 409.502L419.536 403.25Z" fill="#FDE2CF"/>
<path d="M429.169 428.158L435.421 434.41L429.169 440.661L422.917 434.41L429.169 428.158Z" fill="#FDE2CF"/>
<path d="M438.803 453.066L445.055 459.318L438.803 465.569L432.55 459.318L438.803 453.066Z" fill="#FDE2CF"/>
<path d="M448.436 477.974L454.688 484.226L448.436 490.477L442.184 484.226L448.436 477.974Z" fill="#FDE2CF"/>
<path d="M458.07 502.882L464.322 509.134L458.07 515.385L451.817 509.134L458.07 502.882Z" fill="#FDE2CF"/>
<path d="M467.703 527.79L473.955 534.042L467.703 540.293L461.451 534.042L467.703 527.79Z" fill="#FDE2CF"/>
<path d="M477.337 552.698L483.589 558.95L477.337 565.201L471.084 558.95L477.337 552.698Z" fill="#FDE2CF"/>
<path d="M486.97 577.607L493.222 583.858L486.97 590.11L480.718 583.858L486.97 577.607Z" fill="#FDE2CF"/>
<path d="M496.604 602.515L502.856 608.766L496.604 615.018L490.351 608.766L496.604 602.515Z" fill="#FDE2CF"/>
<path d="M303.931 4.72124L310.183 10.9727L303.931 17.2242L297.678 10.9727L303.931 4.72124Z" fill="#FDE2CF"/>
<path d="M313.564 29.6293L319.817 35.8808L313.564 42.1323L307.312 35.8808L313.564 29.6293Z" fill="#FDE2CF"/>
<path d="M323.198 54.5374L329.45 60.7888L323.198 67.0403L316.946 60.7888L323.198 54.5374Z" fill="#F56E0F"/>
<path d="M332.831 79.4454L339.083 85.6969L332.831 91.9484L326.579 85.6969L332.831 79.4454Z" fill="#FDE2CF"/>
<path d="M342.465 104.353L348.717 110.605L342.465 116.856L336.212 110.605L342.465 104.353Z" fill="#FDE2CF"/>
<path d="M352.098 129.262L358.351 135.513L352.098 141.765L345.846 135.513L352.098 129.262Z" fill="#FDE2CF"/>
<path d="M361.732 154.17L367.984 160.421L361.732 166.673L355.479 160.421L361.732 154.17Z" fill="#FDE2CF"/>
<path d="M371.365 179.078L377.617 185.329L371.365 191.581L365.113 185.329L371.365 179.078Z" fill="#FDE2CF"/>
<path d="M380.999 203.986L387.251 210.237L380.999 216.489L374.746 210.237L380.999 203.986Z" fill="#FDE2CF"/>
<path d="M390.632 228.894L396.885 235.145L390.632 241.397L384.38 235.145L390.632 228.894Z" fill="#F56E0F"/>
<path d="M400.266 253.802L406.518 260.053L400.266 266.305L394.013 260.053L400.266 253.802Z" fill="#FDE2CF"/>
<path d="M409.899 278.71L416.152 284.961L409.899 291.213L403.647 284.961L409.899 278.71Z" fill="#FDE2CF"/>
<path d="M419.533 303.618L425.785 309.869L419.533 316.121L413.28 309.869L419.533 303.618Z" fill="#FDE2CF"/>
<path d="M429.166 328.526L435.418 334.777L429.166 341.029L422.914 334.777L429.166 328.526Z" fill="#FDE2CF"/>
<path d="M438.8 353.434L445.052 359.686L438.8 365.937L432.547 359.686L438.8 353.434Z" fill="#FDE2CF"/>
<path d="M448.433 378.342L454.685 384.594L448.433 390.845L442.181 384.594L448.433 378.342Z" fill="#FDE2CF"/>
<path d="M458.067 403.25L464.319 409.502L458.067 415.753L451.814 409.502L458.067 403.25Z" fill="#FDE2CF"/>
<path d="M467.7 428.158L473.952 434.41L467.7 440.661L461.448 434.41L467.7 428.158Z" fill="#FDE2CF"/>
<path d="M477.334 453.066L483.586 459.318L477.334 465.569L471.081 459.318L477.334 453.066Z" fill="#FDE2CF"/>
<path d="M486.967 477.974L493.219 484.226L486.967 490.477L480.715 484.226L486.967 477.974Z" fill="#FDE2CF"/>
<path d="M496.6 502.882L502.853 509.134L496.6 515.385L490.348 509.134L496.6 502.882Z" fill="#FDE2CF"/>
<path d="M506.234 527.79L512.486 534.042L506.234 540.293L499.982 534.042L506.234 527.79Z" fill="#FDE2CF"/>
<path d="M515.868 552.698L522.12 558.95L515.868 565.201L509.615 558.95L515.868 552.698Z" fill="#FDE2CF"/>
<path d="M525.501 577.607L531.753 583.858L525.501 590.11L519.249 583.858L525.501 577.607Z" fill="#FDE2CF"/>
<path d="M535.135 602.515L541.387 608.766L535.135 615.018L528.882 608.766L535.135 602.515Z" fill="#FDE2CF"/>
<path d="M342.462 4.72124L348.714 10.9727L342.462 17.2242L336.209 10.9727L342.462 4.72124Z" fill="#FDE2CF"/>
<path d="M352.095 29.6293L358.348 35.8808L352.095 42.1323L345.843 35.8808L352.095 29.6293Z" fill="#FDE2CF"/>
<path d="M361.729 54.5374L367.981 60.7888L361.729 67.0403L355.476 60.7888L361.729 54.5374Z" fill="#FDE2CF"/>
<path d="M371.362 79.4454L377.615 85.6969L371.362 91.9484L365.11 85.6969L371.362 79.4454Z" fill="#FDE2CF"/>
<path d="M380.996 104.353L387.248 110.605L380.996 116.856L374.743 110.605L380.996 104.353Z" fill="#FDE2CF"/>
<path d="M390.629 129.262L396.882 135.513L390.629 141.765L384.377 135.513L390.629 129.262Z" fill="#FDE2CF"/>
<path d="M400.263 154.17L406.515 160.421L400.263 166.673L394.01 160.421L400.263 154.17Z" fill="#FDE2CF"/>
<path d="M409.896 179.078L416.148 185.329L409.896 191.581L403.644 185.329L409.896 179.078Z" fill="#FDE2CF"/>
<path d="M419.53 203.986L425.782 210.237L419.53 216.489L413.277 210.237L419.53 203.986Z" fill="#FDE2CF"/>
<path d="M429.163 228.894L435.415 235.145L429.163 241.397L422.911 235.145L429.163 228.894Z" fill="#FDE2CF"/>
<path d="M438.797 253.802L445.049 260.053L438.797 266.305L432.544 260.053L438.797 253.802Z" fill="#FDE2CF"/>
<path d="M448.43 278.71L454.682 284.961L448.43 291.213L442.178 284.961L448.43 278.71Z" fill="#FDE2CF"/>
<path d="M458.064 303.618L464.316 309.869L458.064 316.121L451.811 309.869L458.064 303.618Z" fill="#FDE2CF"/>
<path d="M467.697 328.526L473.949 334.777L467.697 341.029L461.445 334.777L467.697 328.526Z" fill="#FDE2CF"/>
<path d="M477.33 353.434L483.583 359.686L477.33 365.937L471.078 359.686L477.33 353.434Z" fill="#FDE2CF"/>
<path d="M486.964 378.342L493.217 384.594L486.964 390.845L480.712 384.594L486.964 378.342Z" fill="#FDE2CF"/>
<path d="M496.598 403.25L502.85 409.502L496.598 415.753L490.345 409.502L496.598 403.25Z" fill="#FDE2CF"/>
<path d="M506.231 428.158L512.483 434.41L506.231 440.661L499.979 434.41L506.231 428.158Z" fill="#FDE2CF"/>
<path d="M515.865 453.066L522.117 459.318L515.865 465.569L509.612 459.318L515.865 453.066Z" fill="#FDE2CF"/>
<path d="M525.498 477.974L531.75 484.226L525.498 490.477L519.246 484.226L525.498 477.974Z" fill="#F56E0F"/>
<path d="M535.131 502.882L541.384 509.134L535.131 515.385L528.879 509.134L535.131 502.882Z" fill="#FDE2CF"/>
<path d="M544.765 527.79L551.017 534.042L544.765 540.293L538.513 534.042L544.765 527.79Z" fill="#FDE2CF"/>
<path d="M554.399 552.698L560.651 558.95L554.399 565.201L548.146 558.95L554.399 552.698Z" fill="#FDE2CF"/>
<path d="M564.032 577.607L570.284 583.858L564.032 590.11L557.78 583.858L564.032 577.607Z" fill="#FDE2CF"/>
<path d="M380.993 4.72124L387.245 10.9727L380.993 17.2242L374.74 10.9727L380.993 4.72124Z" fill="#FDE2CF"/>
<path d="M390.626 29.6293L396.878 35.8808L390.626 42.1323L384.374 35.8808L390.626 29.6293Z" fill="#FDE2CF"/>
<path d="M400.26 54.5374L406.512 60.7888L400.26 67.0403L394.007 60.7888L400.26 54.5374Z" fill="#FDE2CF"/>
<path d="M409.893 79.4454L416.145 85.6969L409.893 91.9484L403.641 85.6969L409.893 79.4454Z" fill="#F56E0F"/>
<path d="M419.527 104.353L425.779 110.605L419.527 116.856L413.274 110.605L419.527 104.353Z" fill="#FDE2CF"/>
<path d="M429.16 129.262L435.412 135.513L429.16 141.765L422.908 135.513L429.16 129.262Z" fill="#FDE2CF"/>
<path d="M438.794 154.17L445.046 160.421L438.794 166.673L432.541 160.421L438.794 154.17Z" fill="#FDE2CF"/>
<path d="M448.427 179.078L454.679 185.329L448.427 191.581L442.175 185.329L448.427 179.078Z" fill="#FDE2CF"/>
<path d="M458.061 203.986L464.313 210.237L458.061 216.489L451.808 210.237L458.061 203.986Z" fill="#F56E0F"/>
<path d="M467.694 228.894L473.947 235.145L467.694 241.397L461.442 235.145L467.694 228.894Z" fill="#FDE2CF"/>
<path d="M477.327 253.802L483.58 260.053L477.327 266.305L471.075 260.053L477.327 253.802Z" fill="#FDE2CF"/>
<path d="M486.961 278.71L493.213 284.961L486.961 291.213L480.709 284.961L486.961 278.71Z" fill="#FDE2CF"/>
<path d="M496.595 303.618L502.847 309.869L496.595 316.121L490.342 309.869L496.595 303.618Z" fill="#FDE2CF"/>
<path d="M506.228 328.526L512.48 334.777L506.228 341.029L499.976 334.777L506.228 328.526Z" fill="#FDE2CF"/>
<path d="M515.862 353.434L522.114 359.686L515.862 365.937L509.609 359.686L515.862 353.434Z" fill="#FDE2CF"/>
<path d="M525.495 378.342L531.747 384.594L525.495 390.845L519.243 384.594L525.495 378.342Z" fill="#FDE2CF"/>
<path d="M535.129 403.25L541.381 409.502L535.129 415.753L528.876 409.502L535.129 403.25Z" fill="#FDE2CF"/>
<path d="M544.762 428.158L551.014 434.41L544.762 440.661L538.51 434.41L544.762 428.158Z" fill="#F56E0F"/>
<path d="M554.395 453.066L560.648 459.318L554.395 465.569L548.143 459.318L554.395 453.066Z" fill="#FDE2CF"/>
<path d="M564.029 477.974L570.281 484.226L564.029 490.477L557.777 484.226L564.029 477.974Z" fill="#FDE2CF"/>
<path d="M419.524 4.72124L425.776 10.9727L419.524 17.2242L413.271 10.9727L419.524 4.72124Z" fill="#FDE2CF"/>
<path d="M429.157 29.6293L435.409 35.8808L429.157 42.1323L422.905 35.8808L429.157 29.6293Z" fill="#FDE2CF"/>
<path d="M438.791 54.5374L445.043 60.7888L438.791 67.0403L432.538 60.7888L438.791 54.5374Z" fill="#FDE2CF"/>
<path d="M448.424 79.4454L454.677 85.6969L448.424 91.9484L442.172 85.6969L448.424 79.4454Z" fill="#FDE2CF"/>
<path d="M458.057 104.353L464.31 110.605L458.057 116.856L451.805 110.605L458.057 104.353Z" fill="#FDE2CF"/>
<path d="M467.691 129.262L473.943 135.513L467.691 141.765L461.439 135.513L467.691 129.262Z" fill="#FDE2CF"/>
<path d="M477.325 154.17L483.577 160.421L477.325 166.673L471.072 160.421L477.325 154.17Z" fill="#FDE2CF"/>
<path d="M486.958 179.078L493.21 185.329L486.958 191.581L480.706 185.329L486.958 179.078Z" fill="#FDE2CF"/>
<path d="M496.592 203.986L502.844 210.237L496.592 216.489L490.339 210.237L496.592 203.986Z" fill="#FDE2CF"/>
<path d="M506.225 228.894L512.477 235.145L506.225 241.397L499.973 235.145L506.225 228.894Z" fill="#FDE2CF"/>
<path d="M515.859 253.802L522.111 260.053L515.859 266.305L509.606 260.053L515.859 253.802Z" fill="#FDE2CF"/>
<path d="M525.492 278.71L531.744 284.961L525.492 291.213L519.24 284.961L525.492 278.71Z" fill="#FDE2CF"/>
<path d="M535.126 303.618L541.378 309.869L535.126 316.121L528.873 309.869L535.126 303.618Z" fill="#FDE2CF"/>
<path d="M544.759 328.526L551.011 334.777L544.759 341.029L538.507 334.777L544.759 328.526Z" fill="#FDE2CF"/>
<path d="M554.392 353.434L560.645 359.686L554.392 365.937L548.14 359.686L554.392 353.434Z" fill="#FDE2CF"/>
<path d="M564.026 378.342L570.278 384.594L564.026 390.845L557.774 384.594L564.026 378.342Z" fill="#FDE2CF"/>
<path d="M458.055 4.72124L464.307 10.9727L458.055 17.2242L451.802 10.9727L458.055 4.72124Z" fill="#FDE2CF"/>
<path d="M467.688 29.6293L473.94 35.8808L467.688 42.1323L461.436 35.8808L467.688 29.6293Z" fill="#FDE2CF"/>
<path d="M477.322 54.5374L483.574 60.7888L477.322 67.0403L471.069 60.7888L477.322 54.5374Z" fill="#FDE2CF"/>
<path d="M486.955 79.4454L493.207 85.6969L486.955 91.9484L480.703 85.6969L486.955 79.4454Z" fill="#FDE2CF"/>
<path d="M496.589 104.353L502.841 110.605L496.589 116.856L490.336 110.605L496.589 104.353Z" fill="#FDE2CF"/>
<path d="M506.222 129.262L512.474 135.513L506.222 141.765L499.97 135.513L506.222 129.262Z" fill="#FDE2CF"/>
<path d="M515.856 154.17L522.108 160.421L515.856 166.673L509.603 160.421L515.856 154.17Z" fill="#FDE2CF"/>
<path d="M525.489 179.078L531.741 185.329L525.489 191.581L519.237 185.329L525.489 179.078Z" fill="#FDE2CF"/>
<path d="M535.122 203.986L541.375 210.237L535.122 216.489L528.87 210.237L535.122 203.986Z" fill="#FDE2CF"/>
<path d="M544.756 228.894L551.008 235.145L544.756 241.397L538.504 235.145L544.756 228.894Z" fill="#FDE2CF"/>
<path d="M554.39 253.802L560.642 260.053L554.39 266.305L548.137 260.053L554.39 253.802Z" fill="#FDE2CF"/>
<path d="M564.023 278.71L570.275 284.961L564.023 291.213L557.771 284.961L564.023 278.71Z" fill="#FDE2CF"/>
<path d="M496.586 4.72124L502.838 10.9727L496.586 17.2242L490.333 10.9727L496.586 4.72124Z" fill="#FDE2CF"/>
<path d="M506.219 29.6293L512.471 35.8808L506.219 42.1323L499.967 35.8808L506.219 29.6293Z" fill="#FDE2CF"/>
<path d="M515.852 54.5374L522.105 60.7888L515.852 67.0403L509.6 60.7888L515.852 54.5374Z" fill="#FDE2CF"/>
<path d="M525.486 79.4454L531.739 85.6969L525.486 91.9484L519.234 85.6969L525.486 79.4454Z" fill="#FDE2CF"/>
<path d="M535.12 104.353L541.372 110.605L535.12 116.856L528.867 110.605L535.12 104.353Z" fill="#FDE2CF"/>
<path d="M544.753 129.262L551.005 135.513L544.753 141.765L538.501 135.513L544.753 129.262Z" fill="#FDE2CF"/>
<path d="M554.387 154.17L560.639 160.421L554.387 166.673L548.134 160.421L554.387 154.17Z" fill="#FDE2CF"/>
<path d="M564.02 179.078L570.272 185.329L564.02 191.581L557.768 185.329L564.02 179.078Z" fill="#FDE2CF"/>
<path d="M535.117 4.72124L541.369 10.9727L535.117 17.2242L528.864 10.9727L535.117 4.72124Z" fill="#FDE2CF"/>
<path d="M544.75 29.6293L551.002 35.8808L544.75 42.1323L538.498 35.8808L544.75 29.6293Z" fill="#FDE2CF"/>
<path d="M554.383 54.5374L560.636 60.7888L554.383 67.0403L548.131 60.7888L554.383 54.5374Z" fill="#FDE2CF"/>
<path d="M564.017 79.4454L570.269 85.6969L564.017 91.9484L557.765 85.6969L564.017 79.4454Z" fill="#FDE2CF"/>
</g>
</g>
<defs>
<filter id="filter0_d_1951_4683" x="0" y="0" width="562" height="606" filterUnits="userSpaceOnUse" color-interpolation-filters="sRGB">
<feFlood flood-opacity="0" result="BackgroundImageFix"/>
<feColorMatrix in="SourceAlpha" type="matrix" values="0 0 0 0 0 0 0 0 0 0 0 0 0 0 0 0 0 0 127 0" result="hardAlpha"/>
<feOffset dy="1"/>
<feComposite in2="hardAlpha" operator="out"/>
<feColorMatrix type="matrix" values="0 0 0 0 0 0 0 0 0 0 0 0 0 0 0 0 0 0 1 0"/>
<feBlend mode="normal" in2="BackgroundImageFix" result="effect1_dropShadow_1951_4683"/>
<feBlend mode="normal" in="SourceGraphic" in2="effect1_dropShadow_1951_4683" result="shape"/>
</filter>
</defs>
</svg>
