<svg width="648" height="461" viewBox="0 0 648 461" fill="none" xmlns="http://www.w3.org/2000/svg">
<g clip-path="url(#clip0_2652_1593)">
<circle cx="323.854" cy="230.459" r="408.423" fill="#E7F5FE"/>
<circle cx="323.854" cy="230.459" r="268.213" fill="#9FD6FB"/>
<circle cx="323.854" cy="230.459" r="162.317" fill="#3FADF7"/>
<path fill-rule="evenodd" clip-rule="evenodd" d="M275.861 267.836C275.861 266.463 276.507 265.192 277.605 264.156L251.477 264.156L251.477 237.227C250.346 238.805 248.82 239.772 247.14 239.772C243.657 239.772 240.833 235.612 240.833 230.48C240.833 225.348 243.657 221.188 247.14 221.188C248.82 221.188 250.346 222.155 251.477 223.733L251.477 196.804L277.65 196.804C276.525 195.761 275.861 194.474 275.861 193.082C275.861 189.599 280.021 186.775 285.153 186.775C290.285 186.775 294.445 189.599 294.445 193.082C294.445 194.474 293.781 195.761 292.656 196.804L318.829 196.804L318.829 224.119C317.679 222.315 316.044 221.188 314.232 221.188C310.748 221.188 307.924 225.348 307.924 230.48C307.924 235.612 310.748 239.772 314.232 239.772C316.044 239.772 317.679 238.645 318.829 236.841L318.829 264.156L292.701 264.156C293.799 265.192 294.445 266.463 294.445 267.836C294.445 271.32 290.285 274.143 285.153 274.143C280.021 274.143 275.861 271.32 275.861 267.836Z" fill="#063D62"/>
<path fill-rule="evenodd" clip-rule="evenodd" d="M363.907 267.836C363.907 266.463 364.554 265.192 365.652 264.156L339.523 264.156L339.523 237.227C338.393 238.805 336.866 239.772 335.187 239.772C331.703 239.772 328.879 235.612 328.879 230.48C328.879 225.348 331.703 221.188 335.187 221.188C336.866 221.188 338.393 222.155 339.523 223.733L339.523 196.804L365.697 196.804C364.571 195.761 363.907 194.474 363.907 193.082C363.907 189.599 368.067 186.775 373.199 186.775C378.331 186.775 382.492 189.599 382.492 193.082C382.492 194.474 381.827 195.761 380.702 196.804L406.876 196.804L406.876 224.119C405.725 222.315 404.091 221.188 402.278 221.188C398.795 221.188 395.971 225.348 395.971 230.48C395.971 235.612 398.795 239.772 402.278 239.772C404.091 239.772 405.725 238.645 406.876 236.841L406.876 264.156L380.747 264.156C381.845 265.192 382.492 266.463 382.492 267.836C382.492 271.32 378.331 274.143 373.199 274.143C368.067 274.143 363.907 271.32 363.907 267.836Z" fill="#063D62"/>
</g>
<defs>
<clipPath id="clip0_2652_1593">
<path d="M0 8.00002C0 3.58174 3.58172 0 8 0H639.708C644.126 0 647.708 3.58172 647.708 8V452.918C647.708 457.337 644.126 460.918 639.708 460.918H8.00002C3.58174 460.918 0 457.337 0 452.918V8.00002Z" fill="white"/>
</clipPath>
</defs>
</svg>
