<svg width="648" height="461" viewBox="0 0 648 461" fill="none" xmlns="http://www.w3.org/2000/svg">
<g clip-path="url(#clip0_2673_201)">
<circle cx="323.854" cy="230.459" r="408.423" fill="#DAE2E7"/>
<circle cx="323.854" cy="230.459" r="268.213" fill="#A7B7C1"/>
<circle cx="323.854" cy="230.459" r="162.317" fill="#647E8E"/>
<path d="M308.64 172.93C313.485 173.924 317.915 176.055 321.641 179.03L327.698 175.829L333.66 182.951L329.53 188.444C330.899 190.965 331.927 193.698 332.552 196.581L339.335 198.031V207.319L332.725 208.861C332.127 212.055 331.037 215.076 329.537 217.841L333.751 223.235L327.791 230.357L321.652 227.258C317.878 230.274 313.381 232.424 308.462 233.403L307.12 239.678H297.833L296.37 233.408C291.442 232.431 286.936 230.28 283.157 227.259L277.019 230.357L271.057 223.235L275.272 217.842C273.771 215.077 272.681 212.056 272.083 208.862L265.473 207.32V198.032L272.254 196.582C272.88 193.698 273.908 190.965 275.278 188.443L271.149 182.951L277.111 175.829L283.167 179.03C286.893 176.054 291.325 173.923 296.171 172.929L297.832 165.816H307.119L308.64 172.93ZM302.404 186.978C299.613 186.978 296.987 187.685 294.696 188.93C292.073 190.354 289.888 192.484 288.396 195.063C288.224 195.361 288.062 195.665 287.909 195.974C286.836 198.136 286.233 200.572 286.233 203.148C286.233 212.079 293.473 219.319 302.404 219.319C311.335 219.319 318.575 212.079 318.575 203.148C318.575 194.218 311.335 186.978 302.404 186.978Z" fill="#1A272F"/>
<path d="M351.54 228.354C356.384 229.349 360.815 231.479 364.541 234.455L370.597 231.253L376.559 238.375L372.429 243.869C373.798 246.389 374.826 249.122 375.452 252.005L382.235 253.456V262.744L375.625 264.286C375.026 267.479 373.937 270.5 372.436 273.265L376.651 278.66L370.69 285.782L364.551 282.682C360.778 285.699 356.28 287.848 351.362 288.828L350.019 295.102H340.732L339.269 288.833C334.341 287.855 329.836 285.704 326.056 282.683L319.918 285.782L313.957 278.66L318.171 273.266C316.671 270.501 315.58 267.48 314.982 264.287L308.373 262.745V253.457L315.154 252.006C315.779 249.123 316.808 246.389 318.177 243.868L314.048 238.375L320.01 231.253L326.066 234.455C329.793 231.478 334.225 229.347 339.071 228.353L340.731 221.241H350.018L351.54 228.354ZM345.303 242.402C342.512 242.402 339.886 243.109 337.595 244.354C334.972 245.779 332.788 247.908 331.295 250.488C331.123 250.785 330.961 251.089 330.808 251.398C329.736 253.56 329.132 255.996 329.132 258.573C329.132 267.504 336.372 274.744 345.303 274.744C354.234 274.744 361.474 267.504 361.474 258.573C361.474 249.642 354.234 242.402 345.303 242.402Z" fill="#1A272F"/>
</g>
<defs>
<clipPath id="clip0_2673_201">
<path d="M0 8.00002C0 3.58174 3.58172 0 8 0H639.708C644.126 0 647.708 3.58172 647.708 8V452.918C647.708 457.337 644.126 460.918 639.708 460.918H8.00002C3.58174 460.918 0 457.337 0 452.918V8.00002Z" fill="white"/>
</clipPath>
</defs>
</svg>
