<svg width="648" height="461" viewBox="0 0 648 461" fill="none" xmlns="http://www.w3.org/2000/svg">
<g clip-path="url(#clip0_2673_1705)">
<circle cx="323.854" cy="230.459" r="408.423" fill="#FFFBEB"/>
<circle cx="323.854" cy="230.459" r="268.213" fill="#FDEFAD"/>
<circle cx="323.854" cy="230.459" r="162.317" fill="#FBE05B"/>
<path fill-rule="evenodd" clip-rule="evenodd" d="M325.735 220.973V239.448H329.405V306.287V311.094C328.756 313.078 327.327 314.622 325.549 315.232C325.012 315.416 324.443 315.515 323.854 315.515C323.264 315.515 322.695 315.416 322.158 315.232C320.38 314.622 318.951 313.078 318.302 311.094V306.287V239.448H321.972V220.973H325.735Z" fill="#665814"/>
<ellipse cx="323.854" cy="184.375" rx="36.8353" ry="38.9709" fill="#665814"/>
</g>
<defs>
<clipPath id="clip0_2673_1705">
<path d="M0 8.00002C0 3.58174 3.58172 0 8 0H639.708C644.126 0 647.708 3.58172 647.708 8V452.918C647.708 457.337 644.126 460.918 639.708 460.918H8.00002C3.58174 460.918 0 457.337 0 452.918V8.00002Z" fill="white"/>
</clipPath>
</defs>
</svg>
