<svg width="417" height="240" viewBox="0 0 417 240" fill="none" xmlns="http://www.w3.org/2000/svg">
<g clip-path="url(#clip0_2988_3386)">
<path d="M0 8.00001C0 3.58173 3.58172 0 8 0H409C413.418 0 417 3.58172 417 8V232C417 236.418 413.418 240 409 240H8C3.58172 240 0 236.418 0 232V8.00001Z" fill="#D26AFF"/>
<path d="M77.7307 -27.7737L16.9668 100.264L82.7942 177.666L40.1148 222.515L397.464 141.497L385.166 14.1822L145.005 49.6278L77.7307 -27.7737Z" fill="#BD58E8"/>
<path fill-rule="evenodd" clip-rule="evenodd" d="M200.193 84.2452H207.408H209.593H216.808L212.473 90.0258V117.484L246.593 155.755H209.593H207.408H170.408L204.529 117.484V90.0258L200.193 84.2452Z" fill="#5A2173" stroke="white"/>
</g>
<path d="M8 0.5H409C413.142 0.5 416.5 3.85787 416.5 8V232C416.5 236.142 413.142 239.5 409 239.5H8C3.85786 239.5 0.5 236.142 0.5 232V8C0.500004 3.85787 3.85787 0.5 8 0.5Z" stroke="#D4D4D4"/>
<defs>
<clipPath id="clip0_2988_3386">
<path d="M0 8.00001C0 3.58173 3.58172 0 8 0H409C413.418 0 417 3.58172 417 8V232C417 236.418 413.418 240 409 240H8C3.58172 240 0 236.418 0 232V8.00001Z" fill="white"/>
</clipPath>
</defs>
</svg>
