<svg width="417" height="240" viewBox="0 0 417 240" fill="none" xmlns="http://www.w3.org/2000/svg">
<path d="M8 0.5H409C413.142 0.5 416.5 3.85787 416.5 8V232C416.5 236.142 413.142 239.5 409 239.5H8C3.85786 239.5 0.5 236.142 0.5 232V8C0.500004 3.85787 3.85787 0.5 8 0.5Z" fill="#89E853"/>
<path d="M8 0.5H409C413.142 0.5 416.5 3.85787 416.5 8V232C416.5 236.142 413.142 239.5 409 239.5H8C3.85786 239.5 0.5 236.142 0.5 232V8C0.500004 3.85787 3.85787 0.5 8 0.5Z" stroke="#D4D4D4"/>
<path d="M164.997 9.22241L77.3395 94.2762L20.6094 56.0887V181.066L189.298 188.877L52.1705 214.914L345.35 236.899L397.593 188.877L320.35 63.8998L164.997 9.22241Z" fill="#78CC47"/>
<path d="M263.896 117.589L246.951 85.3278C206.25 88.3572 163.815 110.933 154.307 117.589L177.603 154.672C190.534 145.164 247.256 122.501 263.896 117.589Z" fill="#386B1A" stroke="white"/>
<ellipse cx="165.27" cy="120" rx="1.64461" ry="1.76863" fill="#89E853"/>
<path d="M178.769 138.233L181.306 143.437L180.33 143.913L178.239 139.624L177.595 139.938L177.149 139.022L178.769 138.233ZM181.289 136.913C181.956 136.588 182.576 136.579 183.111 136.939C183.611 137.274 184.048 137.847 184.431 138.631C184.819 139.428 185.006 140.134 184.964 140.738C184.919 141.383 184.529 141.866 183.862 142.191C183.191 142.518 182.569 142.529 182.033 142.167C181.53 141.828 181.089 141.246 180.701 140.449C180.319 139.665 180.136 138.968 180.181 138.368C180.226 137.723 180.618 137.24 181.289 136.913ZM185.497 134.861C186.164 134.537 186.784 134.527 187.319 134.888C187.82 135.223 188.257 135.795 188.639 136.579C189.028 137.376 189.214 138.082 189.172 138.687C189.127 139.331 188.737 139.815 188.07 140.14C187.399 140.467 186.776 140.478 186.24 140.116C185.738 139.777 185.297 139.195 184.908 138.398C184.526 137.614 184.344 136.917 184.389 136.316C184.435 135.672 184.827 135.188 185.497 134.861ZM181.735 137.828C181.464 137.961 181.32 138.122 181.262 138.299C181.201 138.496 181.198 138.725 181.268 138.992L181.27 138.993C181.347 139.269 181.477 139.598 181.663 139.98C181.856 140.376 182.039 140.69 182.212 140.926C182.379 141.146 182.561 141.285 182.753 141.358C182.929 141.422 183.144 141.408 183.416 141.276C183.682 141.146 183.82 140.988 183.875 140.814L183.876 140.811C183.941 140.612 183.943 140.384 183.868 140.118L183.868 140.115C183.793 139.833 183.66 139.495 183.468 139.1C183.282 138.719 183.102 138.416 182.928 138.188L182.926 138.185C182.763 137.962 182.582 137.823 182.385 137.752L182.382 137.751C182.211 137.687 182.002 137.699 181.735 137.828ZM185.944 135.777C185.672 135.909 185.529 136.07 185.47 136.248C185.409 136.446 185.407 136.676 185.478 136.945C185.556 137.221 185.686 137.548 185.871 137.929C186.064 138.324 186.248 138.639 186.42 138.874C186.588 139.095 186.769 139.234 186.961 139.307L187.029 139.327C187.192 139.365 187.386 139.34 187.624 139.224C187.89 139.094 188.029 138.936 188.083 138.762L188.084 138.76C188.149 138.561 188.152 138.333 188.077 138.067L188.075 138.064C188.001 137.782 187.869 137.444 187.676 137.049C187.49 136.668 187.309 136.365 187.136 136.137L187.134 136.134C186.971 135.911 186.79 135.771 186.593 135.701L186.59 135.7C186.42 135.636 186.21 135.647 185.944 135.777Z" fill="#89E853" stroke="white" stroke-width="0.4"/>
<path d="M237.994 90.8432L239.613 95.8641L238.778 96.1332L237.454 92.0259L236.979 92.179L236.685 91.2654L237.994 90.8432ZM239.799 90.1834C240.057 90.1002 240.309 90.0838 240.547 90.1476C240.785 90.2114 240.994 90.3516 241.174 90.5528L241.173 90.5531C241.517 90.9345 241.805 91.5078 242.046 92.2551C242.291 93.0153 242.396 93.6584 242.341 94.173C242.312 94.4414 242.224 94.6766 242.068 94.8674C241.912 95.0581 241.699 95.1917 241.44 95.275C241.181 95.3587 240.929 95.375 240.69 95.3117C240.451 95.2483 240.241 95.1093 240.061 94.9081C239.716 94.5224 239.426 93.9391 239.18 93.1789C238.97 92.5247 238.865 91.9577 238.88 91.4841L238.894 91.2869C238.922 91.0184 239.011 90.783 239.168 90.592C239.325 90.4012 239.54 90.2671 239.799 90.1834ZM242.902 89.1832C243.16 89.1 243.411 89.0836 243.649 89.1474C243.887 89.2112 244.096 89.3514 244.277 89.5526L244.276 89.5529C244.619 89.9343 244.908 90.5076 245.148 91.2549C245.394 92.0151 245.499 92.6582 245.444 93.1728C245.415 93.4412 245.327 93.6764 245.171 93.8672C245.015 94.0579 244.801 94.1915 244.543 94.2748C244.283 94.3585 244.031 94.3748 243.792 94.3115C243.554 94.2481 243.344 94.1091 243.164 93.9079C242.818 93.5222 242.527 92.9392 242.282 92.179C242.071 91.5248 241.968 90.9575 241.983 90.4839L241.996 90.2867C242.025 90.0181 242.114 89.7827 242.271 89.5918C242.428 89.401 242.642 89.2669 242.902 89.1832ZM240.094 91.0971C239.922 91.1525 239.828 91.2445 239.784 91.3714L239.785 91.372C239.734 91.5282 239.722 91.7288 239.763 91.9814C239.807 92.2371 239.888 92.547 240.006 92.9128C240.128 93.2914 240.246 93.5987 240.361 93.8366L240.449 93.995C240.539 94.1399 240.635 94.2458 240.735 94.3184C240.845 94.3955 240.974 94.4168 241.146 94.3613C241.315 94.3069 241.404 94.2158 241.445 94.0894L241.445 94.0873C241.499 93.9317 241.511 93.733 241.467 93.4831L241.466 93.4803C241.424 93.2199 241.343 92.9005 241.221 92.5211C241.103 92.1549 240.985 91.8567 240.869 91.6248L240.867 91.6223C240.757 91.394 240.631 91.2397 240.497 91.1446L240.495 91.1431C240.388 91.0648 240.262 91.0427 240.094 91.0971ZM243.196 90.0969C243.024 90.1523 242.931 90.2443 242.886 90.3712L242.888 90.3718C242.836 90.528 242.824 90.7286 242.866 90.9812C242.91 91.2369 242.99 91.5468 243.108 91.9126C243.23 92.2912 243.349 92.5985 243.464 92.8364L243.552 92.9948C243.642 93.1397 243.738 93.2456 243.837 93.3182C243.948 93.3953 244.077 93.4165 244.248 93.3611C244.417 93.3067 244.506 93.2156 244.548 93.0892L244.548 93.0871C244.601 92.9315 244.614 92.7328 244.57 92.4829L244.569 92.4801C244.526 92.2197 244.445 91.9003 244.323 91.5209C244.205 91.1547 244.088 90.8565 243.972 90.6246L243.97 90.6221C243.859 90.3938 243.734 90.2395 243.599 90.1444L243.598 90.1429C243.49 90.0646 243.365 90.0425 243.196 90.0969Z" fill="#89E853" stroke="white" stroke-width="0.4"/>
<rect x="201.724" y="124.603" width="4.40671" height="6.10891" transform="rotate(-26.1137 201.724 124.603)" fill="#89E853" stroke="white"/>
<rect x="200.735" y="109.088" width="4.40671" height="20.4755" transform="rotate(-26.1137 200.735 109.088)" fill="#89E853" stroke="white"/>
<rect x="209.784" y="114.044" width="4.40671" height="12.0429" transform="rotate(-26.1137 209.784 114.044)" fill="#89E853" stroke="white"/>
<rect x="210.911" y="102.844" width="4.40671" height="21.6033" transform="rotate(-26.1137 210.911 102.844)" fill="#89E853" stroke="white"/>
</svg>
