<svg width="417" height="240" viewBox="0 0 417 240" fill="none" xmlns="http://www.w3.org/2000/svg">
<path d="M8 0.5H409C413.142 0.5 416.5 3.85787 416.5 8V232C416.5 236.142 413.142 239.5 409 239.5H8C3.85786 239.5 0.5 236.142 0.5 232V8C0.500004 3.85787 3.85787 0.5 8 0.5Z" fill="#9FD6FB"/>
<path d="M8 0.5H409C413.142 0.5 416.5 3.85787 416.5 8V232C416.5 236.142 413.142 239.5 409 239.5H8C3.85786 239.5 0.5 236.142 0.5 232V8C0.500004 3.85787 3.85787 0.5 8 0.5Z" stroke="#D4D4D4"/>
<path d="M110.926 24.9548L110.926 171.98L27.3887 224.864L391.611 220.432L317.262 176.157L391.611 108.492L278 63.3818L110.926 24.9548Z" fill="#3FADF7"/>
<rect x="171.096" y="109.141" width="16.4521" height="46.4066" fill="#063D62" stroke="white"/>
<rect x="190.547" y="120.386" width="16.4521" height="35.162" fill="#063D62" stroke="white"/>
<rect x="210" y="96.9191" width="16.4521" height="58.6289" fill="#063D62" stroke="white"/>
<rect x="229.453" y="84.4521" width="16.4521" height="71.0958" fill="#063D62" stroke="white"/>
<line x1="156.969" y1="155.548" x2="260.032" y2="155.548" stroke="white"/>
</svg>
