<svg width="417" height="240" viewBox="0 0 417 240" fill="none" xmlns="http://www.w3.org/2000/svg">
<path d="M8 0.5H409C413.142 0.5 416.5 3.85787 416.5 8V232C416.5 236.142 413.142 239.5 409 239.5H8C3.85786 239.5 0.5 236.142 0.5 232V8C0.500004 3.85787 3.85787 0.5 8 0.5Z" fill="#DBE853"/>
<path d="M8 0.5H409C413.142 0.5 416.5 3.85787 416.5 8V232C416.5 236.142 413.142 239.5 409 239.5H8C3.85786 239.5 0.5 236.142 0.5 232V8C0.500004 3.85787 3.85787 0.5 8 0.5Z" stroke="#D4D4D4"/>
<path d="M271.603 47.8L123.552 79.047L20.6094 56.0887L97.5125 140.797L20.6094 203.291L52.1705 214.914L351.952 194.363L395.847 230.818L331.121 9.11325L271.603 47.8Z" fill="#BBC644"/>
<mask id="path-3-inside-1_2988_1274" fill="white">
<path d="M208.654 95.2654C203.427 94.7362 198.161 95.7689 193.521 98.2328C188.881 100.697 185.075 104.481 182.586 109.108C180.097 113.734 179.036 118.995 179.536 124.225C180.037 129.454 182.077 134.418 185.399 138.488C188.721 142.559 193.175 145.552 198.198 147.091C203.222 148.63 208.588 148.644 213.62 147.133C218.651 145.622 223.122 142.652 226.466 138.6C229.81 134.548 231.877 129.596 232.406 124.369L205.978 121.693L208.654 95.2654Z"/>
</mask>
<path d="M208.654 95.2654C203.427 94.7362 198.161 95.7689 193.521 98.2328C188.881 100.697 185.075 104.481 182.586 109.108C180.097 113.734 179.036 118.995 179.536 124.225C180.037 129.454 182.077 134.418 185.399 138.488C188.721 142.559 193.175 145.552 198.198 147.091C203.222 148.63 208.588 148.644 213.62 147.133C218.651 145.622 223.122 142.652 226.466 138.6C229.81 134.548 231.877 129.596 232.406 124.369L205.978 121.693L208.654 95.2654Z" fill="#494E15" stroke="white" stroke-width="2" mask="url(#path-3-inside-1_2988_1274)"/>
<mask id="path-4-inside-2_2988_1274" fill="white">
<path d="M237.604 120.691C237.935 117.218 237.579 113.714 236.556 110.379C235.533 107.044 233.863 103.944 231.642 101.254C229.421 98.5644 226.692 96.3386 223.61 94.7037C220.529 93.0688 217.156 92.0569 213.683 91.7257L211.161 118.168L237.604 120.691Z"/>
</mask>
<path d="M237.604 120.691C237.935 117.218 237.579 113.714 236.556 110.379C235.533 107.044 233.863 103.944 231.642 101.254C229.421 98.5644 226.692 96.3386 223.61 94.7037C220.529 93.0688 217.156 92.0569 213.683 91.7257L211.161 118.168L237.604 120.691Z" fill="#494E15" stroke="white" stroke-width="2" mask="url(#path-4-inside-2_2988_1274)"/>
</svg>
