<svg width="417" height="240" viewBox="0 0 417 240" fill="none" xmlns="http://www.w3.org/2000/svg">
<path d="M8 0.5H409C413.142 0.5 416.5 3.85787 416.5 8V232C416.5 236.142 413.142 239.5 409 239.5H8C3.85786 239.5 0.5 236.142 0.5 232V8C0.500004 3.85787 3.85787 0.5 8 0.5Z" fill="#536EE8"/>
<path d="M8 0.5H409C413.142 0.5 416.5 3.85787 416.5 8V232C416.5 236.142 413.142 239.5 409 239.5H8C3.85786 239.5 0.5 236.142 0.5 232V8C0.500004 3.85787 3.85787 0.5 8 0.5Z" stroke="#D4D4D4"/>
<path d="M271.603 47.8L170.059 32.2308L31.2272 98.5905L93.2212 165.823L20.6094 203.291L241.657 214.72L321.114 157.092L312.383 223.451L397.952 88.9857L271.603 47.8Z" fill="#4660CB"/>
<path d="M204.047 99.1581H211.381C212.744 99.1581 213.983 99.9497 214.557 101.186L215.443 103.1C216.18 104.69 217.774 105.707 219.526 105.707H236.071C238.004 105.707 239.571 107.274 239.571 109.207V137.342C239.571 139.275 238.004 140.842 236.071 140.842H180.385C178.452 140.842 176.885 139.275 176.885 137.342V109.207C176.885 107.274 178.452 105.707 180.385 105.707H195.903C197.657 105.707 199.251 104.688 199.987 103.097L200.87 101.188C201.407 100.028 202.531 99.2584 203.793 99.1669L204.047 99.1581Z" fill="#0C1434" stroke="white"/>
<circle cx="208.227" cy="121.143" r="11.6841" fill="#4660CB" stroke="white"/>
<circle cx="232.955" cy="111.994" r="2.53459" fill="#536EE8" stroke="white"/>
</svg>
