<svg width="417" height="240" viewBox="0 0 417 240" fill="none" xmlns="http://www.w3.org/2000/svg">
<path d="M8 0.5H409C413.142 0.5 416.5 3.85787 416.5 8V232C416.5 236.142 413.142 239.5 409 239.5H8C3.85786 239.5 0.5 236.142 0.5 232V8C0.500004 3.85787 3.85787 0.5 8 0.5Z" fill="#FD6A6A"/>
<path d="M8 0.5H409C413.142 0.5 416.5 3.85787 416.5 8V232C416.5 236.142 413.142 239.5 409 239.5H8C3.85786 239.5 0.5 236.142 0.5 232V8C0.500004 3.85787 3.85787 0.5 8 0.5Z" stroke="#D4D4D4"/>
<path d="M230.959 23.7368L116.806 72.3572L61.8435 23.7368L110.464 137.889H31.1914L78.755 215.048L216.161 223.451L296.491 160.086L394.789 172.769L230.959 23.7368Z" fill="#D95253"/>
<circle cx="209.377" cy="114.33" r="27.3071" fill="#420D0D" stroke="white"/>
<circle cx="209.378" cy="114.453" r="20.0562" fill="#FD6A6A" stroke="white"/>
<circle cx="209.38" cy="114.33" r="12.1243" fill="#420D0D" stroke="white"/>
<circle cx="209.376" cy="114.33" r="4.22011" fill="#FD6A6A" stroke="white"/>
<path d="M181.922 150.054L177.978 152.076L181.651 154.878L182.559 150.539L181.922 150.054ZM209.371 114.731L205.109 116.511L208.781 119.312L209.371 114.731ZM181.998 150.615L182.316 150.857L207.506 117.836L207.188 117.594L206.87 117.351L181.68 150.372L181.998 150.615Z" fill="white"/>
</svg>
