<svg width="417" height="240" viewBox="0 0 417 240" fill="none" xmlns="http://www.w3.org/2000/svg">
<path d="M8 0.5H409C413.142 0.5 416.5 3.85787 416.5 8V232C416.5 236.142 413.142 239.5 409 239.5H8C3.85786 239.5 0.5 236.142 0.5 232V8C0.500004 3.85787 3.85787 0.5 8 0.5Z" fill="#6AFDC7"/>
<path d="M8 0.5H409C413.142 0.5 416.5 3.85787 416.5 8V232C416.5 236.142 413.142 239.5 409 239.5H8C3.85786 239.5 0.5 236.142 0.5 232V8C0.500004 3.85787 3.85787 0.5 8 0.5Z" stroke="#D4D4D4"/>
<path d="M328.086 84.5003L271.352 30.1633L61.8435 23.7368L85.9673 78.9068L31.1914 137.889L47.6118 215.048L221.81 199.567L308.909 215.048L387.218 30.1633L328.086 84.5003Z" fill="#55BC96"/>
<path d="M208.5 93.2363C210.121 93.2363 211.393 94.1736 212.41 95.7197C213.431 97.2722 214.146 99.3722 214.641 101.517C215.133 103.653 215.398 105.796 215.54 107.407C215.611 108.212 215.651 108.882 215.673 109.351C215.677 109.43 215.679 109.505 215.682 109.572H201.318C201.321 109.505 201.323 109.43 201.327 109.351C201.349 108.882 201.389 108.212 201.46 107.407C201.602 105.796 201.867 103.653 202.359 101.517C202.854 99.3722 203.569 97.2722 204.59 95.7197C205.607 94.1736 206.879 93.2363 208.5 93.2363ZM208.5 82.8057C211.104 82.8057 213.215 84.9166 213.215 87.5205C213.215 90.0433 211.234 92.1034 208.742 92.2295L208.5 92.2363L208.258 92.2295C205.766 92.1034 203.785 90.0433 203.785 87.5205C203.785 84.9166 205.896 82.8057 208.5 82.8057Z" fill="#0D3728" stroke="white"/>
<path d="M224.439 127.778C226.061 127.778 227.333 128.715 228.35 130.261C229.371 131.813 230.086 133.913 230.58 136.058C231.072 138.194 231.338 140.337 231.479 141.948C231.55 142.753 231.59 143.424 231.612 143.892C231.616 143.972 231.618 144.046 231.621 144.114H217.258C217.261 144.046 217.263 143.972 217.267 143.892C217.289 143.424 217.329 142.753 217.399 141.948C217.541 140.337 217.806 138.194 218.299 136.058C218.793 133.913 219.508 131.813 220.529 130.261C221.546 128.715 222.818 127.778 224.439 127.778ZM224.439 117.347C227.043 117.347 229.154 119.458 229.154 122.062C229.154 124.585 227.173 126.645 224.682 126.771L224.439 126.778L224.197 126.771C221.706 126.645 219.725 124.585 219.725 122.062C219.725 119.458 221.835 117.347 224.439 117.347Z" fill="#0D3728" stroke="white"/>
<path d="M192.561 127.778C194.182 127.778 195.454 128.715 196.471 130.261C197.492 131.813 198.207 133.913 198.701 136.058C199.194 138.194 199.459 140.337 199.601 141.948C199.671 142.753 199.711 143.424 199.733 143.892C199.737 143.972 199.739 144.046 199.742 144.114H185.379C185.382 144.046 185.384 143.972 185.388 143.892C185.41 143.424 185.45 142.753 185.521 141.948C185.662 140.337 185.928 138.194 186.42 136.058C186.914 133.913 187.629 131.813 188.65 130.261C189.667 128.715 190.939 127.778 192.561 127.778ZM192.561 117.347C195.165 117.347 197.275 119.458 197.275 122.062C197.275 124.585 195.294 126.645 192.803 126.771L192.561 126.778L192.318 126.771C189.827 126.645 187.846 124.585 187.846 122.062C187.846 119.458 189.957 117.347 192.561 117.347Z" fill="#0D3728" stroke="white"/>
<path d="M218.022 100.078C217.953 100.124 217.935 100.218 217.981 100.286L218.737 101.405C218.783 101.474 218.876 101.492 218.945 101.446C219.014 101.399 219.032 101.306 218.985 101.237L218.314 100.243L219.308 99.5713C219.377 99.5249 219.395 99.4317 219.349 99.363C219.302 99.2943 219.209 99.2763 219.14 99.3226L218.022 100.078ZM227.418 113.742C227.467 113.808 227.561 113.823 227.628 113.774L228.715 112.973C228.782 112.924 228.796 112.83 228.747 112.763C228.698 112.697 228.604 112.682 228.537 112.732L227.571 113.443L226.859 112.477C226.81 112.41 226.716 112.396 226.65 112.445C226.583 112.494 226.569 112.588 226.618 112.654L227.418 113.742ZM218.105 100.202L218.077 100.35C219.911 100.705 222.583 101.798 224.622 103.915C226.656 106.026 228.07 109.162 227.391 113.63L227.539 113.653L227.687 113.675C228.381 109.112 226.935 105.883 224.838 103.707C222.747 101.537 220.016 100.42 218.134 100.055L218.105 100.202Z" fill="white"/>
<path d="M199.672 100.078C199.74 100.124 199.759 100.218 199.712 100.286L198.957 101.405C198.91 101.474 198.817 101.492 198.749 101.446C198.68 101.399 198.662 101.306 198.708 101.237L199.38 100.243L198.385 99.5713C198.316 99.5249 198.298 99.4317 198.345 99.363C198.391 99.2943 198.484 99.2763 198.553 99.3226L199.672 100.078ZM190.275 113.742C190.226 113.808 190.132 113.823 190.065 113.774L188.978 112.973C188.912 112.924 188.897 112.83 188.946 112.763C188.996 112.697 189.089 112.682 189.156 112.732L190.123 113.443L190.834 112.477C190.883 112.41 190.977 112.396 191.044 112.445C191.11 112.494 191.125 112.588 191.076 112.654L190.275 113.742ZM199.588 100.202L199.616 100.35C197.782 100.705 195.111 101.798 193.071 103.915C191.037 106.026 189.624 109.162 190.303 113.63L190.154 113.653L190.006 113.675C189.313 109.112 190.758 105.883 192.855 103.707C194.946 101.537 197.677 100.42 199.559 100.055L199.588 100.202Z" fill="white"/>
<path d="M216.914 149.853C216.915 149.771 216.85 149.702 216.767 149.7L215.417 149.671C215.334 149.669 215.266 149.735 215.264 149.818C215.262 149.901 215.328 149.969 215.411 149.971L216.61 149.997L216.585 151.197C216.583 151.279 216.648 151.348 216.731 151.35C216.814 151.352 216.883 151.286 216.884 151.203L216.914 149.853ZM200.332 149.637C200.249 149.638 200.184 149.707 200.185 149.79L200.211 151.139C200.213 151.222 200.281 151.288 200.364 151.287C200.447 151.285 200.512 151.217 200.511 151.134L200.488 149.934L201.688 149.911C201.771 149.909 201.836 149.841 201.835 149.758C201.833 149.675 201.765 149.609 201.682 149.611L200.332 149.637ZM216.764 149.85L216.66 149.742C215.311 151.034 212.876 152.584 209.97 153.027C207.072 153.469 203.695 152.813 200.439 149.679L200.335 149.787L200.231 149.895C203.557 153.096 207.027 153.78 210.015 153.324C212.994 152.87 215.483 151.284 216.867 149.958L216.764 149.85Z" fill="white"/>
</svg>

