<svg width="417" height="240" viewBox="0 0 417 240" fill="none" xmlns="http://www.w3.org/2000/svg">
<path d="M8 0.5H409C413.142 0.5 416.5 3.85787 416.5 8V232C416.5 236.142 413.142 239.5 409 239.5H8C3.85786 239.5 0.5 236.142 0.5 232V8C0.500004 3.85787 3.85787 0.5 8 0.5Z" fill="#FDEFAD"/>
<path d="M8 0.5H409C413.142 0.5 416.5 3.85787 416.5 8V232C416.5 236.142 413.142 239.5 409 239.5H8C3.85786 239.5 0.5 236.142 0.5 232V8C0.500004 3.85787 3.85787 0.5 8 0.5Z" stroke="#D4D4D4"/>
<path d="M20.6083 45.0371L152.132 98.5956L5.01552 134.527L47.7266 236.899L257.893 186.052L345.349 236.899L402.975 12.4952L20.6083 45.0371Z" fill="#FBE05B"/>
<path d="M184.543 110.525L214.581 96.209L234.874 114.432L218.557 142.93L170.523 155.11L184.543 110.525Z" fill="#665814" stroke="white"/>
<path d="M238.737 118.126L210.279 91.7216L217.339 84.8895L246.477 111.296L238.737 118.126Z" fill="#665814" stroke="white"/>
<circle cx="202.699" cy="125.66" r="2.74194" stroke="white"/>
<path d="M170.793 154.885L200.391 127.552" stroke="white"/>
</svg>
