<svg width="600" height="197" viewBox="0 0 600 197" fill="none" xmlns="http://www.w3.org/2000/svg">
<g opacity="0.25">
<path d="M164.042 193.998H121.249V157.481H0V128.381L114.402 2.85291H164.042V118.966H193.142V157.481H164.042V193.998ZM59.6258 118.966H121.249V52.2082H118.11L59.6258 115.828V118.966Z" fill="#A7B7C1"/>
<path d="M299.856 196.851C238.233 196.851 204.284 158.051 204.284 98.4253C204.284 39.0848 238.233 0 299.856 0C361.194 0 395.429 39.0848 395.429 98.4253C395.429 158.051 361.194 196.851 299.856 196.851ZM299.856 155.198C336.088 155.198 349.497 139.507 349.497 98.4253C349.497 57.3434 336.088 41.6524 299.856 41.6524C263.339 41.6524 250.216 57.3434 250.216 98.4253C250.216 139.507 263.339 155.198 299.856 155.198Z" fill="#A7B7C1"/>
<path d="M570.526 193.998H527.732V157.481H406.484V128.381L520.885 2.85291H570.526V118.966H599.625V157.481H570.526V193.998ZM466.109 118.966H527.732V52.2082H524.594L466.109 115.828V118.966Z" fill="#A7B7C1"/>
</g>
</svg>
