<svg width="294" height="282" viewBox="0 0 294 282" fill="none" xmlns="http://www.w3.org/2000/svg">
<path opacity="0.3" d="M150.347 246.583V274.188L6.25586 190.841V163.236L150.347 246.583Z" stroke="#FDE9DA"/>
<path opacity="0.3" d="M150.347 204.127V218.98L31.8404 150.422L6.25586 135.633V108.028L57.4244 137.607L68.8091 144.218L119.102 173.295C123.731 179.186 128.61 184.732 133.833 189.934C139.025 195.104 144.529 199.866 150.347 204.127Z" stroke="#FDE9DA"/>
<path opacity="0.3" d="M93.2986 130.776L31.8404 95.2127L6.25586 80.423V52.8184L57.4244 82.397L68.8091 89.0084L81.883 96.5597C83.2904 102.45 84.8852 108.184 86.6993 113.824C86.7931 114.169 86.9182 114.482 87.0433 114.827C88.7322 120.154 90.8591 125.48 93.2986 130.776Z" stroke="#FDE9DA"/>
<path opacity="0.3" d="M212.901 215.25V242.855L150.348 274.188V246.583L187.317 228.065L212.901 215.25Z" stroke="#FDE9DA"/>
<path opacity="0.3" d="M212.9 215.25L187.316 228.065L150.347 246.583L6.25586 163.237L31.8404 150.421L150.347 218.979L161.763 213.276L187.316 200.461L212.9 215.25Z" stroke="#FDE9DA"/>
<path opacity="0.3" d="M209.21 99.3477C207.865 96.6531 206.395 93.9584 204.8 91.2324C193.697 72.0251 180.404 57.6431 164.891 48.0237C164.047 47.4911 163.202 46.9897 162.326 46.4884C147.126 37.6837 134.021 35.7097 122.918 40.5664L119.853 42.1017C117.382 43.5117 115.161 45.2034 113.253 47.1774C107.999 52.4414 104.652 59.7108 103.182 68.9854C102.588 72.6201 102.307 76.5368 102.307 80.7668C102.307 82.5841 102.369 84.4328 102.494 86.2501C102.682 89.7594 103.089 93.3001 103.683 96.8721C105.059 105.113 107.499 113.447 111.002 121.907C112.253 124.978 113.66 128.049 115.255 131.151C116.631 134.002 118.195 136.854 119.853 139.736C125.201 148.98 131.05 157.095 137.399 164.114C145 172.48 153.287 179.279 162.326 184.512C167.331 187.394 172.053 189.556 176.62 190.966H176.651C187.254 194.256 196.637 193.567 204.8 188.898C206.489 187.958 208.022 186.862 209.46 185.64C210.711 184.606 211.868 183.477 212.9 182.224C218.999 175.143 222.159 164.959 222.346 151.674C222.377 151.173 222.377 150.703 222.377 150.202C222.377 133.689 217.999 116.738 209.21 99.3477ZM166.549 157.252C165.329 157.941 163.953 157.816 162.326 156.907C161.013 156.124 159.793 154.964 158.792 153.398C158.542 153.084 158.323 152.74 158.135 152.395C156.947 150.327 156.321 148.353 156.321 146.535C156.321 144.718 156.947 143.433 158.135 142.744C159.324 142.055 160.731 142.18 162.326 143.089C163.953 144.029 165.329 145.533 166.549 147.601C166.83 148.134 167.112 148.635 167.331 149.136C167.987 150.64 168.331 152.082 168.331 153.46C168.331 155.309 167.737 156.562 166.549 157.252ZM168.331 132.78L156.321 125.824V70.6148L168.331 77.5711V132.78Z" stroke="#FDE9DA"/>
<path opacity="0.3" d="M168.332 77.5725V119.81L156.322 125.826V70.6162L168.332 77.5725Z" stroke="#FDE9DA"/>
<path opacity="0.3" d="M168.332 119.809V132.781L156.322 125.824L168.332 119.809Z" stroke="#FDE9DA"/>
<path opacity="0.3" d="M110.999 121.908L104.712 125.073L93.2965 130.776C90.8569 125.48 88.7301 120.154 87.0412 114.827C86.9161 114.482 86.791 114.169 86.6971 113.824C84.8831 108.184 83.2883 102.45 81.8809 96.5596L93.2652 90.857L102.492 86.251C102.68 89.7603 103.086 93.301 103.681 96.873C105.057 105.114 107.496 113.448 110.999 121.908Z" stroke="#FDE9DA"/>
<path opacity="0.3" d="M103.182 68.986C102.588 72.6207 102.306 76.5377 102.306 80.7677C102.306 82.585 102.369 84.4337 102.494 86.251L93.267 90.857L81.883 96.5597L68.8091 89.0084L57.4244 82.397L6.25586 52.8183L68.8091 21.4851L113.253 47.1783C107.999 52.4423 104.652 59.7114 103.182 68.986Z" stroke="#FDE9DA"/>
<path opacity="0.3" d="M137.399 164.114L130.487 167.592L119.102 173.294L68.8091 144.217L57.4244 137.605L6.25586 108.027L31.8404 95.2117L93.2986 130.775L104.715 125.072L115.255 131.151C116.631 134.002 118.194 136.854 119.852 139.736C125.2 148.98 131.05 157.095 137.399 164.114Z" stroke="#FDE9DA"/>
<path opacity="0.3" d="M168.332 153.461C168.332 155.31 167.738 156.563 166.55 157.252C165.33 157.942 163.954 157.816 162.327 156.908C161.014 156.124 159.794 154.965 158.793 153.398C158.543 153.085 158.324 152.741 158.136 152.396C156.947 150.328 156.322 148.354 156.322 146.536C156.322 144.719 156.947 143.434 158.136 142.745C159.325 142.056 160.732 142.181 162.327 143.09C163.954 144.03 165.33 145.534 166.55 147.602C166.831 148.134 167.113 148.636 167.332 149.137C167.988 150.641 168.332 152.082 168.332 153.461Z" stroke="#FDE9DA"/>
<path opacity="0.3" d="M176.619 190.967L173.554 192.502L150.347 204.127C144.529 199.866 139.025 195.103 133.833 189.933C128.61 184.732 123.73 179.186 119.102 173.295L130.486 167.592L137.399 164.115C144.999 172.481 153.287 179.28 162.326 184.513C167.33 187.395 172.053 189.557 176.619 190.967Z" stroke="#FDE9DA"/>
<path opacity="0.3" d="M212.901 184.858V187.646L187.317 200.462L161.764 213.277L150.348 218.98V204.127L173.555 192.503L176.62 190.967H176.651C187.254 194.257 196.637 193.568 204.8 188.899L210.305 186.142L212.901 184.858Z" stroke="#FDE9DA"/>
<path opacity="0.3" d="M284.928 118.869C284.928 137.982 279.08 150.86 267.351 157.565L264.474 159.007L212.898 184.857L210.303 186.141L204.798 188.899C206.487 187.959 208.019 186.862 209.458 185.64C210.709 184.606 211.866 183.478 212.898 182.224C218.997 175.143 222.156 164.96 222.344 151.674C222.375 151.173 222.375 150.703 222.375 150.202C222.375 133.689 217.997 116.738 209.208 99.348C207.863 96.6533 206.393 93.9587 204.798 91.2327C193.695 72.0253 180.402 57.6433 164.889 48.024C164.044 47.4913 163.2 46.99 162.325 46.4887C147.124 37.684 134.019 35.71 122.916 40.5667L182.404 10.7686C194.133 4.06325 208.27 5.53601 224.878 15.1553C241.486 24.7433 255.654 39.658 267.351 59.8993C279.08 80.1407 284.928 99.7867 284.928 118.869Z" stroke="#FDE9DA"/>
</svg>
