<svg width="292" height="332" viewBox="0 0 292 332" fill="none" xmlns="http://www.w3.org/2000/svg">
<g opacity="0.3">
<path d="M220.174 17.4019L206.166 137.905L141.467 170.255L155.474 49.7515L220.174 17.4019Z" stroke="#FDE9DA"/>
<path d="M290.211 186.43L225.512 218.78L141.467 170.255L206.166 137.905L290.211 186.43Z" stroke="#FDE9DA"/>
<path d="M290.206 186.43L150.131 298.425L85.4316 330.773L136.059 290.305L225.506 218.78L290.206 186.43Z" stroke="#FDE9DA"/>
<path d="M225.508 218.78L136.061 290.305L85.4336 330.773L57.4186 314.6L71.4261 210.175L1.38867 169.738L127.456 33.5769L150.101 46.6466L155.471 49.7518L141.463 170.255L225.508 218.78Z" stroke="#FDE9DA"/>
<path d="M220.174 17.4017L155.474 49.7514L150.104 46.6461L127.459 33.5765L192.159 1.22681L220.174 17.4017Z" stroke="#FDE9DA"/>
</g>
</svg>

