<svg width="305" height="324" viewBox="0 0 305 324" fill="none" xmlns="http://www.w3.org/2000/svg">
<path opacity="0.3" d="M216.13 205.739L203.308 183.449V129.479L156.113 102.329L155.962 102.059L146.782 86.459L122.101 44.459L101.092 56.0093L88.0886 63.1793L40.8937 36.0293V89.9993L7.42383 109.619L40.8937 167.789V221.759L88.0886 248.909L122.101 306.78L156.113 288.059L203.308 315.21V261.239L236.778 241.619L216.13 205.739ZM157.618 213.179V236.699L137.06 224.849L122.101 233.369L107.142 207.629L86.5837 195.809V172.289L71.5944 146.549L86.5837 138.059V114.539L88.2692 115.499L107.142 126.389L122.101 117.869L122.583 118.709L123.215 119.789L123.696 120.599L137.06 143.609L140.341 145.499L146.782 149.189L157.618 155.429V178.949L159.213 181.679L172.607 204.689L157.618 213.179Z" stroke="#FDE9DA"/>
<path opacity="0.3" d="M236.779 241.62L203.309 261.24L263.507 231.24L296.977 211.62L236.779 241.62Z" stroke="#FDE9DA"/>
<path opacity="0.3" d="M122.582 118.71L107.141 126.39L122.1 117.87L122.582 118.71Z" stroke="#FDE9DA"/>
<path opacity="0.3" d="M123.697 120.599L98.4446 133.169L71.5957 146.549L86.585 138.059L97.9925 132.389L123.216 119.789L123.697 120.599Z" stroke="#FDE9DA"/>
<path opacity="0.3" d="M157.618 214.62V236.7L137.061 224.85L148.438 219.18L157.618 214.62Z" stroke="#FDE9DA"/>
<path opacity="0.3" d="M172.606 204.688L157.617 213.179V214.619L148.436 219.179L137.059 224.848L122.1 233.369L107.141 207.628L118.669 201.869L159.212 181.679L172.606 204.688Z" stroke="#FDE9DA"/>
<path opacity="0.3" d="M159.213 181.679L118.67 201.869L107.142 207.629L86.584 195.809L101.092 188.579L146.782 165.809L157.618 172.049V178.949L159.213 181.679Z" stroke="#FDE9DA"/>
<path opacity="0.3" d="M146.782 149.19V165.81L101.092 188.58L86.584 195.81V172.29L101.092 165.06L140.341 145.5L146.782 149.19Z" stroke="#FDE9DA"/>
<path opacity="0.3" d="M140.342 145.498L101.093 165.058L86.585 172.288L71.5957 146.548L98.4446 133.168L123.697 120.598L137.061 143.608L140.342 145.498Z" stroke="#FDE9DA"/>
<path opacity="0.3" d="M123.215 119.789L97.9915 132.389L86.584 138.059V114.539L88.2695 115.499L107.142 126.389L122.583 118.709L123.215 119.789Z" stroke="#FDE9DA"/>
<path opacity="0.3" d="M263.507 231.24V285.21L203.309 315.21V261.24L263.507 231.24Z" stroke="#FDE9DA"/>
<path opacity="0.3" d="M263.507 99.4805V153.45L230.127 170.1L203.309 183.45V129.48L214.867 123.72L263.507 99.4805Z" stroke="#FDE9DA"/>
<path opacity="0.3" d="M263.506 99.4781L214.867 123.718L203.308 129.478L156.113 102.328L182.931 88.9481L216.311 72.3281L263.506 99.4781Z" stroke="#FDE9DA"/>
<path opacity="0.3" d="M216.313 72.3282L182.933 88.9482L156.115 102.328L155.965 102.058L146.784 86.4579L122.104 44.4579L146.635 32.2182L182.302 14.458L216.313 72.3282Z" stroke="#FDE9DA"/>
<path opacity="0.3" d="M146.633 32.2191L122.102 44.4591L101.093 56.0094L88.0895 63.1794L40.8945 36.0294L101.093 6.0293L146.633 32.2191Z" stroke="#FDE9DA"/>
<path opacity="0.3" d="M296.977 211.618L236.779 241.618L216.131 205.738L203.309 183.448L230.127 170.098L263.507 153.448L296.977 211.618Z" stroke="#FDE9DA"/>
</svg>

