<svg width="212" height="360" viewBox="0 0 212 360" fill="none" xmlns="http://www.w3.org/2000/svg">
<path opacity="0.3" d="M143.586 285.035C143.586 298.679 141.163 308.692 136.287 315.015C134.561 317.223 132.562 319.008 130.23 320.339L128.292 321.308C118.086 325.724 105.457 324.847 90.4046 318.676V353.738L61.2694 336.918V301.008C48.398 290.269 37.2831 277.442 27.9247 262.588C18.5664 247.734 11.7225 230.43 7.36133 210.645L34.3154 213.671C37.9497 229.129 43.3409 242.41 50.5186 253.482C57.666 264.585 67.0843 273.479 78.7443 280.195C88.7083 285.943 97.128 288.242 104.063 287.092C110.999 285.913 114.451 279.923 114.451 269.062C114.451 267.338 114.361 265.613 114.209 263.919C113.422 256.054 110.847 248.491 106.426 241.26C101.731 233.516 91.4946 221.99 75.7763 206.652C73.7168 204.655 71.5366 202.568 69.2651 200.42C68.2657 199.482 67.2966 198.575 66.3577 197.667C62.4206 193.916 58.7557 190.255 55.3334 186.686C41.8866 172.679 32.1957 160.034 26.2899 148.689C18.5065 133.775 14.6296 118.8 14.6296 103.765C14.6296 85.6739 19.7178 74.5714 29.9241 70.4269C40.1303 66.2823 50.5786 66.6151 61.2694 71.3647V36.3025L78.4417 46.1949L81.1671 47.768L90.4046 53.0924V88.1848C96.28 92.6622 101.671 97.5025 106.577 102.766C111.756 108.333 116.389 114.323 120.448 120.766C122.628 124.215 124.657 127.694 126.475 131.203C131.381 140.46 135.106 149.96 137.771 159.761L117.54 158.097L110.817 157.553C109.787 153.862 108.637 150.383 107.304 147.055C104.851 140.854 101.913 135.287 98.43 130.387C95.1894 125.849 91.2526 121.704 86.6189 117.953C83.5903 115.472 80.2283 113.203 76.5637 111.086C65.8728 104.945 57.726 102.948 52.1534 105.156C46.5808 107.365 43.7649 112.508 43.7649 120.585C43.7649 129.751 47.4288 139.099 54.6974 148.598C61.2997 157.19 72.294 168.534 87.6186 182.602C88.6483 183.57 89.7077 184.538 90.7677 185.476C91.3734 186.05 91.9794 186.595 92.5852 187.139C94.0692 188.501 95.5528 189.862 96.9763 191.254C111.574 205.291 122.78 220.054 130.654 235.603C132.744 239.778 134.621 243.923 136.196 248.037C141.133 260.713 143.586 273.025 143.586 285.035Z" stroke="#FDE9DA"/>
<path opacity="0.3" d="M150.976 22.8405L90.4047 53.0925L81.1673 47.7682L78.4418 46.1951L61.2695 36.3026L121.841 6.05054L150.976 22.8405Z" stroke="#FDE9DA"/>
<path opacity="0.3" d="M150.98 22.8406V57.9329L118.634 74.0875L106.642 80.0774L90.4082 88.185V53.0925L150.98 22.8406Z" stroke="#FDE9DA"/>
<path opacity="0.3" d="M204.158 254.783C204.158 274.538 199.07 286.639 188.864 291.056L150.977 309.993L138.439 316.255L130.231 320.34C132.563 319.008 134.562 317.224 136.288 315.015C141.164 308.692 143.587 298.679 143.587 285.036C143.587 273.026 141.133 260.713 136.197 248.037C134.622 243.923 132.745 239.778 130.655 235.604C122.781 220.054 111.575 205.291 96.977 191.254C95.5536 189.862 94.0696 188.501 92.5856 187.14C91.9799 186.595 91.3739 186.051 90.7681 185.476C89.7081 184.538 88.6491 183.57 87.6193 182.602C72.2948 168.535 61.3005 157.19 54.6982 148.599C47.4296 139.099 43.7656 129.752 43.7656 120.585C43.7656 112.508 46.5813 107.365 52.1539 105.157C57.7264 102.948 65.8736 104.945 76.5644 111.086C80.229 113.204 83.591 115.473 86.6196 117.953C91.2533 121.704 95.1902 125.849 98.4307 130.387C101.914 135.288 104.852 140.854 107.305 147.056C108.638 150.383 109.788 153.862 110.818 157.553L117.541 158.098L137.772 159.762L149.735 153.772C150.856 154.8 151.976 155.829 153.157 156.888C169.905 172.135 182.595 188.289 191.226 205.352C199.858 222.444 204.158 238.901 204.158 254.783Z" stroke="#FDE9DA"/>
<path opacity="0.3" d="M150.98 309.993V323.486L90.4082 353.738V318.676C105.46 324.847 118.089 325.724 128.296 321.307L130.234 320.339L138.442 316.255L150.98 309.993Z" stroke="#FDE9DA"/>
<path opacity="0.3" d="M198.342 129.509L149.734 153.771L137.771 159.761C135.106 149.959 131.381 140.46 126.474 131.203C124.657 127.694 122.628 124.215 120.447 120.766C116.389 114.322 111.756 108.332 106.577 102.766C101.671 97.5021 96.2797 92.6618 90.4043 88.1845L106.638 80.0769L118.631 74.087L150.976 57.9324C163.12 67.1593 173.145 78.0198 181.019 90.5139C188.923 102.978 194.678 115.986 198.342 129.509Z" stroke="#FDE9DA"/>
<path opacity="0.3" d="M61.271 54.7869L29.9258 70.4272" stroke="#FDE9DA"/>
<path opacity="0.3" d="M114.45 269.062C114.45 279.923 110.998 285.913 104.062 287.093C97.127 288.242 88.7073 285.943 78.7433 280.195C67.0833 273.479 57.665 264.585 50.5176 253.483C43.3399 242.41 37.9487 229.13 34.3145 213.671L66.357 197.667C67.2959 198.575 68.2647 199.483 69.2642 200.42C71.5356 202.568 73.7159 204.656 75.7753 206.652C91.4936 221.99 101.73 233.516 106.425 241.261C110.846 248.491 113.421 256.054 114.208 263.92C114.36 265.614 114.45 267.338 114.45 269.062Z" stroke="#FDE9DA"/>
<path opacity="0.3" d="M66.3577 197.667L34.3154 213.671L7.36133 210.645L55.3334 186.686C58.7557 190.256 62.4206 193.916 66.3577 197.667Z" stroke="#FDE9DA"/>
</svg>
