<svg width="269" height="336" viewBox="0 0 269 336" fill="none" xmlns="http://www.w3.org/2000/svg">
<path opacity="0.3" d="M157.222 162.511L154.223 143.783L59.3348 89.3123L15.4996 64.1479L6.26562 111.602V132.704L15.4996 138.006V201.313L98.739 249.084V185.776L135.728 207.011V238.664L145.572 244.309L154.223 249.268V217.615L163.483 222.917V201.841L157.222 162.511ZM80.2447 217.351L33.9945 190.815V148.61L68.5689 168.446L73.3985 171.216L80.2447 175.146V217.351Z" stroke="#FDE9DA"/>
<path opacity="0.3" d="M235.048 300.177V302.103L181.979 328.481V296.854L209.707 312.76L233.244 301.074L235.048 300.177Z" stroke="#FDE9DA"/>
<path opacity="0.3" d="M262.776 265.279V286.382L235.048 300.177L233.244 301.074L209.707 312.76V291.657L216.553 288.254L235.048 279.075L243.061 275.066L262.776 265.279Z" stroke="#FDE9DA"/>
<path opacity="0.3" d="M262.777 265.279L243.062 275.065L235.048 279.075L216.553 288.254L209.707 291.657L181.979 275.751L215.359 259.16L235.048 249.374L262.777 265.279Z" stroke="#FDE9DA"/>
<path opacity="0.3" d="M235.048 217.72V249.374L215.359 259.16L181.979 275.751V244.098L188.798 240.722L205.488 232.412L216.553 226.926L235.048 217.72Z" stroke="#FDE9DA"/>
<path opacity="0.3" d="M235.046 217.72L216.552 226.926L205.487 232.413L188.797 240.722L181.977 244.098L173.937 239.482L165.313 234.523L163.482 233.468L196.837 216.903L207.291 211.706L216.552 207.09L235.046 217.72Z" stroke="#FDE9DA"/>
<path opacity="0.3" d="M207.294 201.155V211.706L196.839 216.903L163.485 233.468V244.679L154.225 249.268V217.615L163.485 222.917L188.799 210.335L207.294 201.155Z" stroke="#FDE9DA"/>
<path opacity="0.3" d="M135.73 207.011V230.698L98.7402 249.083V185.776L135.73 207.011Z" stroke="#FDE9DA"/>
<path opacity="0.3" d="M73.3981 171.216L68.5685 173.643L33.9941 190.815V148.61L68.5685 168.446L73.3981 171.216Z" stroke="#FDE9DA"/>
<path opacity="0.3" d="M80.2443 175.146V217.351L33.9941 190.815L68.5685 173.643L73.3981 171.216L80.2443 175.146Z" stroke="#FDE9DA"/>
<path opacity="0.3" d="M207.292 117.405L154.223 143.783L59.3352 89.3126L15.5 64.148L25.3446 59.2417L60.4762 79.4208L154.223 133.232L197.448 111.76L207.292 117.405Z" stroke="#FDE9DA"/>
<path opacity="0.3" d="M207.292 85.7514L154.223 112.129L64.1648 60.4285L45.0596 49.4553L15.5 32.4943L68.5693 6.11621L207.292 85.7514Z" stroke="#FDE9DA"/>
<path opacity="0.3" d="M207.292 85.7512V106.854L197.448 111.76L154.223 133.232V112.129L207.292 85.7512Z" stroke="#FDE9DA"/>
<path opacity="0.3" d="M154.223 112.129V133.232L60.4762 79.4205L25.3446 59.2416L15.5 53.5967V32.4944L45.0596 49.4554L64.1648 60.4286L154.223 112.129Z" stroke="#FDE9DA"/>
<path opacity="0.3" d="M216.553 175.463L163.483 201.841L157.221 162.511L154.223 143.783L207.292 117.405L216.553 175.463Z" stroke="#FDE9DA"/>
<path opacity="0.3" d="M216.552 175.463V196.539L207.291 201.155L188.797 210.334L163.482 222.917V201.841L216.552 175.463Z" stroke="#FDE9DA"/>
<path opacity="0.3" d="M209.707 291.657V312.76L181.978 296.854V328.481L163.483 317.877V286.223L135.729 270.291V249.215L163.483 265.121V233.468L165.314 234.523L173.938 239.482L181.978 244.098V275.751L209.707 291.657Z" stroke="#FDE9DA"/>
<path opacity="0.3" d="M163.483 244.679V265.121L135.729 249.216L145.573 244.309L154.223 249.268L163.483 244.679Z" stroke="#FDE9DA"/>
</svg>


