<svg width="270" height="366" viewBox="0 0 270 366" fill="none" xmlns="http://www.w3.org/2000/svg">
<path opacity="0.3" d="M86.3718 236.475L68.3418 226.065V205.635L87.6915 216.825C86.9715 219.795 86.4915 222.915 86.2515 226.185C86.0415 229.485 86.0718 232.905 86.3718 236.475Z" stroke="#FDE9DA"/>
<path opacity="0.3" d="M177.871 308.715C179.941 306.165 181.501 303.165 182.521 299.655C183.571 296.175 184.081 292.215 184.081 287.805C184.081 275.025 180.211 261.915 172.411 248.475C164.611 235.035 155.161 225.105 144.031 218.685C139.741 216.195 135.691 214.545 131.911 213.705C126.841 212.535 122.251 212.805 118.081 214.515L115.651 215.715C115.651 215.715 115.591 215.745 115.561 215.775C111.451 218.145 108.421 221.685 106.501 226.395C106.351 226.815 106.201 227.175 106.051 227.565C104.641 231.465 103.951 236.115 103.951 241.515C103.951 244.065 104.101 246.615 104.431 249.195C105.391 257.355 107.941 265.665 112.051 274.095C113.131 276.345 114.331 278.595 115.651 280.845C123.421 294.285 132.901 304.215 144.031 310.635C147.871 312.855 151.591 314.415 155.161 315.285C158.701 316.155 162.121 316.335 165.391 315.825L189.421 357.285L201.901 350.175L177.871 308.715ZM159.841 291.915C155.521 294.375 150.241 293.805 144.031 290.205C137.791 286.605 132.511 281.085 128.221 273.675C127.021 271.635 126.001 269.595 125.161 267.555C122.881 262.215 121.771 256.965 121.771 251.805C121.771 248.685 122.191 245.985 123.061 243.765C124.051 240.915 125.791 238.785 128.221 237.405C132.511 234.945 137.791 235.515 144.031 239.115C149.011 241.995 153.391 246.135 157.141 251.475C157.141 251.505 157.201 251.505 157.201 251.535C158.131 252.825 159.001 254.205 159.841 255.645C164.131 263.085 166.291 270.345 166.291 277.515C166.291 284.685 164.131 289.455 159.841 291.915Z" stroke="#FDE9DA"/>
<path opacity="0.3" d="M105.51 226.905L106.5 226.425" stroke="#FDE9DA"/>
<path opacity="0.3" d="M157.289 168.524C156.569 169.184 155.909 169.934 155.279 170.744L136.289 180.224L128.339 184.214L104.429 196.184L95.2793 200.744C97.4993 197.954 100.079 195.704 103.049 193.994C103.229 193.904 103.409 193.784 103.589 193.724C106.409 192.194 109.499 191.204 112.859 190.724L128.339 182.984L135.149 179.564L154.139 170.084L157.289 168.524Z" stroke="#FDE9DA"/>
<path opacity="0.3" d="M147.691 186.825C146.971 189.795 146.491 192.915 146.251 196.185C146.161 197.595 146.1 199.005 146.1 200.475L140.701 203.205L118.081 214.515L115.65 215.715C115.65 215.715 115.591 215.745 115.561 215.775C111.451 218.145 108.421 221.685 106.501 226.395L105.51 226.905L86.3706 236.475C86.0706 232.905 86.0406 229.485 86.2506 226.185C86.4906 222.915 86.9706 219.795 87.6906 216.825L96.0606 212.655L109.021 206.175L128.731 196.305L147.691 186.825Z" stroke="#FDE9DA"/>
<path opacity="0.3" d="M261.902 320.175L249.422 327.285L189.422 357.285L201.902 350.175L249.032 326.625L261.902 320.175Z" stroke="#FDE9DA"/>
<path opacity="0.3" d="M261.899 320.175L249.029 326.625L201.899 350.175L177.869 308.715L223.199 286.034H223.229L237.869 278.714L261.899 320.175Z" stroke="#FDE9DA"/>
<path opacity="0.3" d="M166.29 277.514C166.29 284.654 164.13 289.454 159.84 291.914C155.52 294.374 150.24 293.804 144.03 290.204C137.79 286.604 132.51 281.084 128.22 273.674C127.02 271.634 126 269.594 125.16 267.554C122.88 262.214 121.77 256.964 121.77 251.804C121.77 248.684 122.19 245.984 123.06 243.764C124.05 240.914 125.79 238.784 128.22 237.404C132.51 234.944 137.79 235.514 144.03 239.114C149.01 241.994 153.39 246.134 157.14 251.474C157.14 251.504 157.2 251.504 157.2 251.534C158.13 252.824 159 254.204 159.84 255.644C164.13 263.084 166.29 270.344 166.29 277.514Z" stroke="#FDE9DA"/>
<path opacity="0.3" d="M147.691 186.825L128.732 196.305L109.021 206.175L96.0618 212.655L87.6915 216.825L68.3418 205.635L87.3015 196.155L88.7715 196.995L95.2818 200.745L104.431 196.185L128.342 184.215L136.291 180.225L147.691 186.825Z" stroke="#FDE9DA"/>
<path opacity="0.3" d="M172.859 148.994V160.724L157.319 168.494L157.289 168.524L154.139 170.084L135.149 179.564L128.34 182.984L112.859 190.724V159.824L130.649 170.084L143.219 163.784L172.859 148.994Z" stroke="#FDE9DA"/>
<path opacity="0.3" d="M95.0415 151.425V180.195L83.9115 173.775L68.3418 164.775L83.8215 157.035L95.0415 151.425Z" stroke="#FDE9DA"/>
<path opacity="0.3" d="M190.648 78.7947V140.085L172.859 148.995L143.219 163.785L130.648 170.085V108.795L133.738 107.235L190.648 78.7947Z" stroke="#FDE9DA"/>
<path opacity="0.3" d="M190.65 78.7947L133.74 107.235L130.65 108.795L101.61 92.0247L83.8197 81.7647L6 36.8247L66 6.82471L190.65 78.7947Z" stroke="#FDE9DA"/>
<path opacity="0.3" d="M130.65 108.795V170.085L112.86 159.825V190.725C109.5 191.205 106.41 192.195 103.59 193.725C103.41 193.785 103.23 193.905 103.05 193.995C100.08 195.705 97.5 197.955 95.28 200.745L88.77 196.995L87.3 196.155L68.34 185.205V164.775L83.91 173.775L95.0397 180.195V149.535L83.8197 143.055L41.61 118.695V210.645C41.61 219.165 44.22 227.895 49.41 236.865C54.6 245.805 60.9 252.435 68.34 256.725C72.78 259.305 76.8297 260.535 80.4597 260.415C84.0897 260.295 87.18 259.005 89.7 256.545C90.9 260.625 92.22 264.645 93.72 268.575C95.19 272.475 96.99 276.495 99.06 280.605C95.04 282.705 90.4497 283.545 85.2597 283.095C80.0697 282.645 74.43 280.665 68.34 277.155C56.01 270.045 45.51 259.005 36.84 244.035C28.1401 229.065 23.8198 214.485 23.8198 200.355V108.405L6 98.1147V36.8247L83.8197 81.7647L101.61 92.0247L130.65 108.795Z" stroke="#FDE9DA"/>
<path opacity="0.3" d="M106.5 226.425L105.51 226.905" stroke="#FDE9DA"/>
<path opacity="0.3" d="M103.949 241.515C103.949 244.065 104.099 246.615 104.429 249.195L89.6994 256.545C87.1794 259.005 84.0894 260.295 80.4594 260.415C76.8294 260.535 72.7797 259.305 68.3397 256.725C60.8997 252.435 54.5994 245.805 49.4094 236.865C44.2194 227.895 41.6094 219.165 41.6094 210.645V118.695L83.8194 143.055L95.0394 149.535V151.425L83.8194 157.035L68.3397 164.775V185.205L87.2994 196.155L68.3397 205.635V226.065L86.3697 236.475L105.509 226.905C105.689 227.145 105.839 227.355 106.049 227.565C104.639 231.465 103.949 236.115 103.949 241.515Z" stroke="#FDE9DA"/>
<path opacity="0.3" d="M112.051 274.095L99.0612 280.605C96.9912 276.495 95.1912 272.475 93.7212 268.575C92.2212 264.645 90.9012 260.625 89.7012 256.545L104.431 249.195C105.391 257.355 107.941 265.665 112.051 274.095Z" stroke="#FDE9DA"/>
<path opacity="0.3" d="M244.079 257.805C244.079 262.215 243.569 266.175 242.519 269.655C241.499 273.165 239.94 276.165 237.87 278.715L223.23 286.035L177.899 308.715C179.969 306.165 181.529 303.165 182.549 299.655C183.599 296.175 184.109 292.215 184.109 287.805C184.109 275.025 180.239 261.915 172.439 248.475C164.639 235.035 155.189 225.105 144.059 218.685C139.769 216.195 135.719 214.545 131.939 213.705C126.869 212.535 122.279 212.805 118.109 214.515L140.73 203.205L146.129 200.475L175.679 185.715C183.449 181.275 192.929 182.265 204.059 188.685C215.189 195.105 224.639 205.035 232.439 218.475C240.239 231.915 244.109 245.025 244.109 257.805H244.079Z" stroke="#FDE9DA"/>
</svg>
