<svg width="293" height="319" viewBox="0 0 293 319" fill="none" xmlns="http://www.w3.org/2000/svg">
<path opacity="0.3" d="M87.7721 19.8471L79.2335 24.1109L45.6491 40.9455V63.5281L16.2227 46.4727L79.2335 14.8884L87.7721 19.8471Z" stroke="#FDE9DA"/>
<path opacity="0.3" d="M285.374 258.435V281.017L222.363 312.602V290.019L255.885 273.216H255.916L285.374 258.435Z" stroke="#FDE9DA"/>
<path opacity="0.3" d="M285.373 258.433L255.916 273.215H255.884L222.363 290.018L173.277 277.131L187.644 269.93L202.735 278.647L228.191 265.887H228.222L257.617 251.137L285.373 258.433Z" stroke="#FDE9DA"/>
<path opacity="0.3" d="M265.745 156.039V247.065L257.616 251.139L228.222 265.889H228.19L202.734 278.649V177.011L212.532 182.696L233.735 172.084L246.117 165.862L265.745 156.039Z" stroke="#FDE9DA"/>
<path opacity="0.3" d="M275.544 128.528L246.118 143.278L212.817 159.986L212.533 160.113L186.951 145.268L183.107 143.057L187.202 141.004L225.198 121.959L246.118 111.473L275.544 128.528Z" stroke="#FDE9DA"/>
<path opacity="0.3" d="M246.118 88.8892V111.472L225.198 121.958L187.202 141.003L183.107 143.056V120.473L187.202 118.42L204.279 109.861L246.118 88.8892Z" stroke="#FDE9DA"/>
<path opacity="0.3" d="M55.4783 216.015V245.641L6.39258 232.786L48.2317 211.814L55.4783 216.015Z" stroke="#FDE9DA"/>
<path opacity="0.3" d="M166.284 155.626L166 155.752" stroke="#FDE9DA"/>
<path opacity="0.3" d="M173.277 277.132V261.624L187.643 269.93L202.734 278.648V177.01L212.532 182.695V160.112L186.95 145.268L183.107 143.057V120.474L167.574 111.473L108.659 77.3934L89.0312 66.0544L45.6483 40.9453V63.528L16.2218 46.4725V69.0552L26.0204 74.74V198.961L48.2317 211.816L55.4783 216.016V245.642L6.39258 232.788V255.37L222.362 312.601V290.018L173.277 277.132ZM124.191 131.56L165.998 155.754L183.107 165.671V210.837L124.191 176.726V131.56ZM45.6483 153.859V86.1107L89.0312 111.22L104.563 120.19V187.97L45.6483 153.859ZM143.819 269.141L84.9352 253.665V233.072L103.996 244.095L124.191 255.781V233.198L124.915 233.609L140.448 242.61L143.819 244.568V269.141Z" stroke="#FDE9DA"/>
<path opacity="0.3" d="M187.644 269.931L173.277 277.132V261.624L187.644 269.931Z" stroke="#FDE9DA"/>
<path opacity="0.3" d="M103.997 244.095L84.9355 253.665V233.072L103.997 244.095Z" stroke="#FDE9DA"/>
<path opacity="0.3" d="M143.819 245.959V269.142L84.9355 253.666L103.997 244.096L124.191 255.782L143.819 245.959Z" stroke="#FDE9DA"/>
<path opacity="0.3" d="M165.999 155.755L124.191 176.727V131.562L165.999 155.755Z" stroke="#FDE9DA"/>
<path opacity="0.3" d="M183.107 165.67V210.835L124.191 176.724L165.999 155.752L183.107 165.67Z" stroke="#FDE9DA"/>
<path opacity="0.3" d="M104.563 120.189V124.327L89.0313 132.128L45.6484 153.858V86.1101L89.0313 111.22L104.563 120.189Z" stroke="#FDE9DA"/>
<path opacity="0.3" d="M104.563 124.329V187.971L45.6484 153.86L89.0313 132.13L104.563 124.329Z" stroke="#FDE9DA"/>
<path opacity="0.3" d="M143.819 244.569V245.958L124.191 255.781V233.198L124.916 233.609L140.448 242.611L143.819 244.569Z" stroke="#FDE9DA"/>
<path opacity="0.3" d="M246.117 88.8901L204.278 109.862L187.202 118.421L183.107 120.474L167.574 111.473L108.659 77.3935L89.0313 66.0544L45.6484 40.9453L79.2329 24.1108L87.7714 19.847L108.659 9.36108L246.117 88.8901Z" stroke="#FDE9DA"/>
<path opacity="0.3" d="M275.544 128.527V151.109L265.746 156.036L246.119 165.859L233.736 172.081L212.533 182.693V160.111L212.817 159.984L246.119 143.276L275.544 128.527Z" stroke="#FDE9DA"/>
</svg>
